<svg width="48" height="33" viewBox="0 0 48 33" fill="none" xmlns="http://www.w3.org/2000/svg">
<g id="amex 1" clip-path="url(#clip0_4302_108722)">
<path id="Vector" d="M2.99996 0.330078H45C46.6561 0.330078 48 1.57658 48 3.11391V29.5476C48 31.0836 46.6561 32.3301 45 32.3301H2.99996C1.34245 32.3302 0 31.0836 0 29.5478V3.11391C0 1.57658 1.34394 0.330078 2.99996 0.330078Z" fill="white"/>
<path id="Vector_2" d="M8.51432 12.3301L4 22.3172H9.40428L10.0743 20.7249H11.6057L12.2756 22.3172H18.2242V21.1019L18.7543 22.3172H21.8314L22.3614 21.0762V22.3172H34.7329L36.2372 20.7662L37.6458 22.3172L44 22.3301L39.4714 17.3515L44 12.3301H37.7443L36.28 13.8524L34.9157 12.3301H21.4572L20.3015 14.9078L19.1187 12.3301H13.7257V13.5041L13.1258 12.3301H8.51432ZM9.56002 13.7483H12.1943L15.1887 20.5206V13.7483H18.0744L20.3872 18.604L22.5187 13.7483H25.3901V20.9147H23.6429L23.6287 15.2991L21.0815 20.9147H19.5186L16.9571 15.2991V20.9147H13.3629L12.6814 19.3081H9.00004L8.32004 20.9133H6.39426L9.56002 13.7483ZM26.9886 13.7483H34.0928L36.2657 16.0947L38.5086 13.7483H40.6815L37.38 17.3501L40.6815 20.9105H38.4101L36.2372 18.5368L33.9828 20.9105H26.9886V13.7483ZM10.8415 14.9608L9.62865 17.8229H12.053L10.8415 14.9608ZM28.7429 15.2321V16.5403H32.6186V17.9984H28.7429V19.4267H33.0901L35.11 17.323L33.1758 15.2308L28.7429 15.2321Z" fill="black"/>
</g>
<defs>
<clipPath id="clip0_4302_108722">
<rect width="48" height="33" fill="white"/>
</clipPath>
</defs>
</svg>
