<svg width="48" height="33" viewBox="0 0 48 33" fill="none" xmlns="http://www.w3.org/2000/svg">
<g id="apple pay" clip-path="url(#clip0_4302_108769)">
<g id="Clip path group">
<mask id="mask0_4302_108769" style="mask-type:luminance" maskUnits="userSpaceOnUse" x="0" y="0" width="48" height="33">
<g id="clip0_5105_134">
<path id="Vector" d="M48 0.330078H0V32.3301H48V0.330078Z" fill="white"/>
</g>
</mask>
<g mask="url(#mask0_4302_108769)">
<g id="Group">
<path id="Vector_2" d="M0 4.33008C0 2.12094 1.79086 0.330078 4 0.330078H44C46.2091 0.330078 48 2.12094 48 4.33008V28.3301C48 30.5392 46.2091 32.3301 44 32.3301H4C1.79086 32.3301 0 30.5392 0 28.3301V4.33008Z" fill="white"/>
</g>
</g>
</g>
<path id="Vector_3" d="M14.2448 15.7533C14.2693 17.9604 16.2483 18.6933 16.2646 18.7015C16.2483 18.7504 15.947 19.7521 15.2221 20.7783C14.595 21.666 13.9435 22.5537 12.9173 22.57C11.9074 22.5863 11.5817 21.9917 10.4333 21.9917C9.27686 21.9917 8.91851 22.5537 7.96564 22.5863C6.97205 22.6189 6.22278 21.6253 5.58753 20.7375C4.2926 18.9295 3.30715 15.623 4.63466 13.3915C5.29434 12.2839 6.47525 11.5835 7.75389 11.559C8.72305 11.5427 9.64335 12.1943 10.2379 12.1943C10.8324 12.1943 11.9482 11.4124 13.1209 11.5264C13.6096 11.5427 14.9941 11.7219 15.8737 12.9761C15.8004 13.0168 14.2285 13.9046 14.2448 15.7533ZM12.3472 10.3292C12.8766 9.71028 13.2268 8.85514 13.1291 8C12.3717 8.03258 11.4514 8.48865 10.9138 9.10761C10.4252 9.65327 10.0017 10.5247 10.1157 11.3636C10.9627 11.4287 11.826 10.9482 12.3472 10.3292ZM19.9662 9.27172C20.3535 9.20738 20.7902 9.15094 21.26 9.09458C21.7298 9.03822 22.2488 9.01412 22.8091 9.01412C23.6167 9.01412 24.3089 9.11071 24.8939 9.29591C25.479 9.48901 25.9569 9.75467 26.336 10.1168C26.6573 10.4308 26.9128 10.8091 27.0941 11.2357C27.2754 11.6704 27.366 12.1694 27.366 12.7328C27.366 13.417 27.2424 14.0127 26.9952 14.5278C26.7481 15.0429 26.4102 15.4696 25.9817 15.8158C25.5532 16.1619 25.0423 16.4195 24.4489 16.5965C23.8556 16.7655 23.2129 16.8541 22.5125 16.8541C21.8781 16.8541 21.3506 16.8058 20.9221 16.7173V22.384H19.9745V9.27172H19.9662ZM20.9139 15.8882C21.1446 15.9526 21.4001 16.0009 21.6802 16.025C21.9604 16.0491 22.2652 16.0653 22.5867 16.0653C23.798 16.0653 24.7291 15.7916 25.3966 15.2362C26.064 14.6889 26.3936 13.8759 26.3936 12.8133C26.3936 12.2982 26.3031 11.8555 26.13 11.4772C25.9569 11.0988 25.7098 10.7849 25.3884 10.5435C25.067 10.3021 24.6797 10.1168 24.243 9.99615C23.798 9.87537 23.3118 9.81103 22.7679 9.81103C22.3395 9.81103 21.9686 9.82707 21.6555 9.85932C21.3423 9.89157 21.0952 9.93181 20.9139 9.96398V15.8882ZM34.8976 20.1381C34.8976 20.5165 34.9059 20.9029 34.9141 21.2812C34.9306 21.6595 34.9718 22.0298 35.0377 22.3839H34.1478L34.0077 21.0478H33.9665C33.8429 21.233 33.6945 21.4182 33.505 21.5951C33.3092 21.7875 33.0906 21.9551 32.854 22.0943C32.6068 22.2471 32.3267 22.3679 32.0053 22.4565C31.6922 22.545 31.346 22.5933 30.967 22.5933C30.4973 22.5933 30.0853 22.5208 29.731 22.3679C29.3766 22.2151 29.08 22.0218 28.8575 21.7803C28.6268 21.5388 28.4537 21.2571 28.3466 20.9432C28.2313 20.6293 28.1735 20.3153 28.1735 20.0015C28.1735 18.8826 28.6515 18.0293 29.6156 17.4257C30.5797 16.822 32.0218 16.5323 33.9582 16.5564V16.2988C33.9582 16.0492 33.9335 15.7675 33.8841 15.4456C33.8347 15.1237 33.7358 14.8177 33.5709 14.528C33.4061 14.2383 33.1672 13.9967 32.8458 13.8035C32.5244 13.6103 32.0877 13.5057 31.5356 13.5057C31.1154 13.5057 30.7033 13.5701 30.2996 13.6908C29.9015 13.807 29.5236 13.9835 29.1789 14.214L28.874 13.5218C29.3024 13.232 29.7475 13.0308 30.2007 12.902C30.6539 12.7812 31.1318 12.7169 31.6345 12.7169C32.3101 12.7169 32.854 12.8296 33.2743 13.0549C33.6945 13.2801 34.0324 13.5701 34.2713 13.9243C34.5103 14.2785 34.6751 14.6729 34.7658 15.1155C34.8564 15.5581 34.8976 15.9929 34.8976 16.4275V20.1381ZM33.95 17.329C33.4391 17.3129 32.9034 17.3371 32.3514 17.3854C31.791 17.4417 31.2801 17.5544 30.8105 17.7315C30.3408 17.9086 29.9535 18.1662 29.6403 18.5122C29.3355 18.8503 29.1789 19.3091 29.1789 19.8725C29.1789 20.5407 29.3767 21.0316 29.7639 21.3456C30.1512 21.6595 30.588 21.8205 31.0742 21.8205C31.4614 21.8205 31.8158 21.7641 32.1207 21.6595C32.4256 21.555 32.6975 21.41 32.9282 21.2329C33.1589 21.0557 33.3484 20.8546 33.505 20.6292C33.6615 20.4039 33.777 20.1784 33.8593 19.937C33.9253 19.6714 33.9582 19.4862 33.9582 19.3655L33.95 17.329ZM36.7434 12.9341L39.1991 19.0756C39.3309 19.4138 39.4627 19.7679 39.5863 20.1301C39.71 20.4924 39.8171 20.8224 39.9077 21.1282H39.9489C40.0396 20.8384 40.1467 20.5166 40.2703 20.1543C40.3939 19.7921 40.5258 19.4218 40.6741 19.0435L42.9731 12.9422H43.9784L41.1767 19.8725C40.8966 20.605 40.6246 21.2732 40.3774 21.8688C40.1302 22.4644 39.8747 23.0037 39.6193 23.4867C39.3639 23.9697 39.1084 24.3883 38.8447 24.7585C38.581 25.1287 38.2925 25.4508 37.9713 25.7244C37.5922 26.0544 37.2461 26.2959 36.933 26.4408C36.6198 26.5937 36.4056 26.6903 36.2985 26.7226L35.9771 25.9578C36.2161 25.8532 36.488 25.7163 36.7847 25.5473C37.0813 25.3784 37.3697 25.1529 37.6499 24.8792C37.8888 24.6458 38.1608 24.3319 38.4492 23.9455C38.7375 23.559 38.993 23.0923 39.2238 22.5368C39.3062 22.3275 39.3474 22.1907 39.3474 22.1264C39.3474 22.0378 39.3062 21.893 39.2238 21.7159L35.7382 12.9582H36.7435L36.7434 12.9341Z" fill="#010101"/>
</g>
<defs>
<clipPath id="clip0_4302_108769">
<rect width="48" height="33" fill="white"/>
</clipPath>
</defs>
</svg>
