<svg width="48" height="32" viewBox="0 0 48 32" fill="none" xmlns="http://www.w3.org/2000/svg">
<mask id="mask0_4302_108751" style="mask-type:luminance" maskUnits="userSpaceOnUse" x="0" y="0" width="48" height="32">
<path d="M48 0H0V32H48V0Z" fill="white"/>
</mask>
<g mask="url(#mask0_4302_108751)">
<path d="M0 4C0 1.79086 1.79086 0 4 0H44C46.2091 0 48 1.79086 48 4V28C48 30.2091 46.2091 32 44 32H4C1.79086 32 0 30.2091 0 28V4Z" fill="white"/>
</g>
<g clip-path="url(#clip0_4302_108751)">
<path d="M26.7891 16.1807C25.914 16.1807 25.2787 16.5043 24.8471 17.0557V16.3485H23.3008V24.7396H24.8471V21.6349C25.2787 22.1863 25.914 22.51 26.7891 22.51C28.3953 22.51 29.7139 21.1314 29.7139 19.3453C29.7139 17.5592 28.3953 16.1807 26.7891 16.1807ZM26.5014 21.0355C25.5544 21.0355 24.8471 20.3522 24.8471 19.3453C24.8471 18.3384 25.5544 17.6551 26.5014 17.6551C27.4603 17.6551 28.1676 18.3384 28.1676 19.3453C28.1676 20.3522 27.4603 21.0355 26.5014 21.0355Z" fill="#13294B"/>
<path d="M35.359 16.3485V17.0557C34.9275 16.5163 34.2802 16.1807 33.4051 16.1807C31.8108 16.1807 30.4922 17.5592 30.4922 19.3453C30.4922 21.1314 31.8108 22.51 33.4051 22.51C34.2802 22.51 34.9275 22.1743 35.359 21.6349V22.3421H36.9054V16.3485H35.359ZM33.6928 21.0355C32.7458 21.0355 32.0385 20.3522 32.0385 19.3453C32.0385 18.3384 32.7458 17.6551 33.6928 17.6551C34.6518 17.6551 35.359 18.3384 35.359 19.3453C35.359 20.3522 34.6518 21.0355 33.6928 21.0355Z" fill="#13294B"/>
<path d="M42.2158 16.3486L40.8853 20.3764L39.327 16.3486H37.6367L40.0942 22.1505C39.8065 22.9536 39.3749 23.3132 38.5238 23.3013V24.7397C40.0462 24.8236 41.065 24.0684 41.6883 22.3423L43.87 16.3486H42.2158Z" fill="#13294B"/>
<path d="M25.6338 11.033C25.1515 11.033 24.8013 11.2114 24.5634 11.5154V9.80396H23.7109V14.4295H24.5634V14.0396C24.8013 14.3436 25.1515 14.522 25.6338 14.522C26.5193 14.522 27.2462 13.7621 27.2462 12.7775C27.2462 11.7929 26.5193 11.033 25.6338 11.033ZM25.4753 13.7092C24.9532 13.7092 24.5634 13.3326 24.5634 12.7775C24.5634 12.2225 24.9532 11.8458 25.4753 11.8458C26.0039 11.8458 26.3938 12.2225 26.3938 12.7775C26.3938 13.3326 26.0039 13.7092 25.4753 13.7092Z" fill="#13294B"/>
<path d="M28.7001 11.6937V11.1254H27.8477V14.4293H28.7001V12.8501C28.7001 12.1562 29.2617 11.958 29.7045 12.0109V11.0593C29.2882 11.0593 28.8719 11.2444 28.7001 11.6937Z" fill="#13294B"/>
<path d="M30.8022 13.1277H33.2934C33.3132 13.0153 33.3264 12.903 33.3264 12.7775C33.3264 11.8061 32.6326 11.033 31.6546 11.033C30.6172 11.033 29.9102 11.7929 29.9102 12.7775C29.9102 13.762 30.6106 14.5219 31.7207 14.5219C32.3551 14.5219 32.8507 14.2642 33.1612 13.8149L32.474 13.4184C32.3286 13.61 32.0643 13.7488 31.7339 13.7488C31.2846 13.7488 30.9212 13.5638 30.8022 13.1277ZM30.789 12.4669C30.8881 12.044 31.1987 11.7995 31.6546 11.7995C32.0115 11.7995 32.3683 11.9911 32.474 12.4669H30.789Z" fill="#13294B"/>
<path d="M36.4055 11.1255V11.5153C36.1676 11.218 35.8108 11.033 35.3284 11.033C34.4495 11.033 33.7227 11.7929 33.7227 12.7775C33.7227 13.762 34.4495 14.5219 35.3284 14.5219C35.8108 14.5219 36.1676 14.3369 36.4055 14.0396V14.4294H37.2579V11.1255H36.4055ZM35.487 13.7092C34.965 13.7092 34.5751 13.3325 34.5751 12.7775C34.5751 12.2224 34.965 11.8457 35.487 11.8457C36.0156 11.8457 36.4055 12.2224 36.4055 12.7775C36.4055 13.3325 36.0156 13.7092 35.487 13.7092Z" fill="#13294B"/>
<path d="M40.5344 9.80396V11.5154C40.2964 11.2114 39.9462 11.033 39.4639 11.033C38.5784 11.033 37.8516 11.7929 37.8516 12.7775C37.8516 13.7621 38.5784 14.522 39.4639 14.522C39.9462 14.522 40.2964 14.3436 40.5344 14.0396V14.4295H41.3867V9.80396H40.5344ZM39.6223 13.7092C39.0939 13.7092 38.704 13.3326 38.704 12.7775C38.704 12.2225 39.0939 11.8458 39.6223 11.8458C40.1446 11.8458 40.5344 12.2225 40.5344 12.7775C40.5344 13.3326 40.1446 13.7092 39.6223 13.7092Z" fill="#13294B"/>
<path d="M12.339 8.66992C7.73305 8.66992 4 12.403 4 17.0089C4 21.6148 7.73305 25.3479 12.339 25.3479C16.9449 25.3479 20.678 21.6148 20.678 17.0089C20.6858 12.403 16.9527 8.66992 12.339 8.66992ZM13.9444 23.08L13.8353 23.1423C13.1027 23.5398 12.1831 23.2593 11.7857 22.5267L7.24987 14.1019C6.8524 13.3694 7.13296 12.4497 7.86554 12.0523L7.97464 11.9899C8.70725 11.5925 9.62687 11.8652 10.0243 12.6056L14.5601 21.0303C14.9498 21.7707 14.677 22.6825 13.9444 23.08ZM15.7759 20.742L12.2533 14.2033C14.0613 13.2291 16.3136 13.9071 17.2878 15.7152C18.262 17.5155 17.584 19.7678 15.7759 20.742Z" fill="#59BEC9"/>
<path d="M43.9613 21.9382H43.3477V22.0956H43.5718V22.7725H43.7361V22.0956H43.9613V21.9382Z" fill="#13294B"/>
<path d="M44.8712 21.9382H44.7017L44.4633 22.3328L44.2239 21.9382H44.0547V22.7725H44.219V22.2326L44.4539 22.6188H44.473L44.7079 22.2315V22.7725H44.8712V21.9382Z" fill="#13294B"/>
</g>
<defs>
<clipPath id="clip0_4302_108751">
<rect width="41" height="16.678" fill="white" transform="translate(4 8.66992)"/>
</clipPath>
</defs>
</svg>
