<svg width="48" height="33" viewBox="0 0 48 33" fill="none" xmlns="http://www.w3.org/2000/svg">
<g clip-path="url(#clip0_4302_108737)">
<mask id="mask0_4302_108737" style="mask-type:luminance" maskUnits="userSpaceOnUse" x="0" y="0" width="48" height="33">
<path d="M48 0.330078H0V32.3301H48V0.330078Z" fill="white"/>
</mask>
<g mask="url(#mask0_4302_108737)">
<path d="M0 4.33008C0 2.12094 1.79086 0.330078 4 0.330078H44C46.2091 0.330078 48 2.12094 48 4.33008V28.3301C48 30.5392 46.2091 32.3301 44 32.3301H4C1.79086 32.3301 0 30.5392 0 28.3301V4.33008Z" fill="white"/>
</g>
<g clip-path="url(#clip1_4302_108737)">
<path d="M22.5942 16.7757V20.8444H21.3047V10.8009H24.7246C25.5495 10.7849 26.3424 11.0972 26.9431 11.6739C27.5438 12.2105 27.8802 12.9874 27.8642 13.7883C27.8802 14.5972 27.5438 15.3741 26.9431 15.9187C26.3424 16.4874 25.6056 16.7757 24.7326 16.7757H22.5942ZM22.5942 12.0343V15.5423H24.7566C25.2372 15.5583 25.7017 15.3661 26.0301 15.0217C26.7109 14.365 26.7189 13.2837 26.0621 12.6029L26.0301 12.5709C25.7017 12.2185 25.2372 12.0263 24.7566 12.0423L22.5942 12.0343ZM30.8356 13.7482C31.7887 13.7482 32.5415 14.0045 33.0942 14.5091C33.6468 15.0217 33.9191 15.7185 33.9191 16.6075V20.8363H32.6857V19.8833H32.6296C32.093 20.6682 31.3882 21.0606 30.4992 21.0606C29.7463 21.0606 29.1056 20.8363 28.601 20.3878C28.1045 19.9714 27.8241 19.3547 27.8402 18.7059C27.8402 17.9931 28.1125 17.4325 28.6491 17.008C29.1857 16.5835 29.9065 16.3753 30.8035 16.3753C31.5724 16.3753 32.1971 16.5194 32.6937 16.7917V16.4954C32.6937 16.0549 32.5015 15.6384 32.1651 15.3581C31.8207 15.0537 31.3802 14.8855 30.9237 14.8855C30.2029 14.8855 29.6342 15.1899 29.2097 15.7986L28.0724 15.0858C28.6891 14.1968 29.6102 13.7482 30.8356 13.7482ZM29.1697 18.738C29.1697 19.0743 29.3299 19.3867 29.5942 19.5789C29.8825 19.8032 30.2349 19.9233 30.5953 19.9153C31.1399 19.9153 31.6605 19.699 32.045 19.3146C32.4694 18.9142 32.6857 18.4416 32.6857 17.897C32.2852 17.5766 31.7246 17.4164 31.0038 17.4164C30.4832 17.4164 30.0427 17.5446 29.6903 17.7929C29.3459 18.0492 29.1697 18.3615 29.1697 18.738ZM40.9992 13.9725L36.6903 23.8718H35.3608L36.9626 20.4119L34.1273 13.9805H35.5289L37.5713 18.9142H37.6033L39.5976 13.9805L40.9992 13.9725Z" fill="#5F6368"/>
<path d="M17.382 15.8947C17.382 15.5022 17.3499 15.1098 17.2859 14.7253H11.8477V16.9439H14.9632C14.8351 17.6567 14.4186 18.2974 13.8099 18.6979V20.1395H15.668C16.7573 19.1384 17.382 17.6567 17.382 15.8947Z" fill="#4285F4"/>
<path d="M11.8452 21.5334C13.399 21.5334 14.7125 21.0208 15.6656 20.1398L13.8074 18.6982C13.2868 19.0506 12.6221 19.2508 11.8452 19.2508C10.3395 19.2508 9.06602 18.2336 8.6095 16.8721H6.69531V18.3618C7.67243 20.3 9.66671 21.5334 11.8452 21.5334Z" fill="#34A853"/>
<path d="M8.61101 16.8717C8.37074 16.1588 8.37074 15.382 8.61101 14.6611V13.1794H6.69683C6.29009 13.9811 6.07813 14.8674 6.07812 15.7664C6.07812 16.6654 6.29009 17.5517 6.69683 18.3534L8.61101 16.8717Z" fill="#FBBC04"/>
<path d="M11.8452 12.2827C12.6701 12.2667 13.463 12.5791 14.0557 13.1477L15.6976 11.5058C14.6564 10.5207 13.2788 9.98409 11.8452 10.0001C9.66671 10.0001 7.67243 11.2335 6.69531 13.1797L8.6095 14.6694C9.06602 13.2999 10.3395 12.2827 11.8452 12.2827Z" fill="#EA4335"/>
</g>
</g>
<defs>
<clipPath id="clip0_4302_108737">
<rect width="48" height="33" fill="white"/>
</clipPath>
<clipPath id="clip1_4302_108737">
<rect width="35" height="13.9359" fill="white" transform="translate(6 10)"/>
</clipPath>
</defs>
</svg>
