<svg width="48" height="33" viewBox="0 0 48 33" fill="none" xmlns="http://www.w3.org/2000/svg">
<g id="jcb 1" clip-path="url(#clip0_4302_108712)">
<g id="Clip path group">
<mask id="mask0_4302_108712" style="mask-type:luminance" maskUnits="userSpaceOnUse" x="0" y="0" width="48" height="33">
<g id="clip0_5105_158">
<path id="Vector" d="M48 0.330078H0V32.3301H48V0.330078Z" fill="white"/>
</g>
</mask>
<g mask="url(#mask0_4302_108712)">
<g id="Group">
<path id="Vector_2" d="M0 4.33008C0 2.12094 1.79086 0.330078 4 0.330078H44C46.2091 0.330078 48 2.12094 48 4.33008V28.3301C48 30.5392 46.2091 32.3301 44 32.3301H4C1.79086 32.3301 0 30.5392 0 28.3301V4.33008Z" fill="white"/>
<path id="Vector_3" d="M40 23.6794C40 26.428 37.7722 28.6569 35.0227 28.6569H8V8.98211C8 6.23274 10.2278 4.00391 12.9777 4.00391H39.9998L40 23.6794Z" fill="white"/>
<path id="Vector_4" d="M31.1906 16.7614C31.9624 16.7782 32.7386 16.7273 33.5074 16.7878C34.2859 16.9331 34.4735 18.1116 33.7819 18.4976C33.3099 18.7519 32.7493 18.5923 32.2377 18.6372H31.1906V16.7614ZM33.9536 14.6382C34.1251 15.2435 33.5416 15.787 32.9587 15.7036H31.1906C31.203 15.1328 31.1663 14.5133 31.2085 13.9725C31.9168 13.9925 32.6317 13.9318 33.3359 14.0042C33.6385 14.0803 33.8917 14.329 33.9536 14.6382ZM38.2089 5.66215C38.2417 6.81808 38.2136 8.0351 38.2231 9.21448C38.2209 14.0094 38.2277 18.8042 38.2193 23.5993C38.1882 25.3963 36.5957 26.9578 34.8111 26.9937C33.0248 27.0009 31.2382 26.9948 29.4517 26.9968V19.7479C31.3982 19.7378 33.3457 19.7683 35.2915 19.7327C36.1941 19.676 37.1828 19.0805 37.2248 18.0871C37.3311 17.0895 36.3905 16.3995 35.4975 16.2905C35.1543 16.2816 35.1643 16.1905 35.4975 16.1507C36.3492 15.9666 37.0181 15.0851 36.7675 14.2023C36.5539 13.2738 35.5277 12.9144 34.674 12.9162C32.9335 12.9044 31.1927 12.9146 29.4521 12.9111C29.4633 11.5578 29.4286 10.2031 29.4708 8.85081C29.6087 7.08624 31.2413 5.63104 33.0008 5.66261C34.7371 5.66235 36.473 5.66222 38.2089 5.66215Z" fill="url(#paint0_linear_4302_108712)"/>
<path id="Vector_5" d="M9.78067 9.0339C9.82513 7.23974 11.4245 5.69108 13.2067 5.66486C14.9864 5.65938 16.7664 5.66407 18.5461 5.66248C18.5412 11.6654 18.5557 17.6689 18.5388 23.6715C18.4702 25.4438 16.8882 26.963 15.1254 26.9943C13.3423 27.0008 11.5591 26.9953 9.77599 26.997V19.5038C11.5079 19.9129 13.3242 20.0871 15.0912 19.8157C16.1474 19.6458 17.303 19.1271 17.6606 18.0313C17.9237 17.094 17.7756 16.1076 17.8147 15.1456V12.9115H14.7568C14.7431 14.389 14.785 15.8692 14.7347 17.345C14.6523 18.2521 13.7539 18.8285 12.8984 18.7977C11.8374 18.8089 9.7349 18.0287 9.7349 18.0287C9.72962 15.2604 9.76568 11.7931 9.78067 9.0339Z" fill="url(#paint1_linear_4302_108712)"/>
<path id="Vector_6" d="M19.6891 13.8119C19.5281 13.8461 19.6567 13.2637 19.6156 13.0427C19.6266 11.6458 19.5927 10.2473 19.6343 8.85139C19.7718 7.07935 21.417 5.62053 23.1836 5.662H28.3861C28.3813 11.6649 28.3957 17.6684 28.3788 23.671C28.3102 25.4433 26.7281 26.9624 24.9652 26.9938C23.1821 27.0006 21.3988 26.9949 19.6155 26.9966V18.7867C20.8334 19.786 22.4887 19.9415 24.0059 19.9442C25.1498 19.9438 26.2869 19.7675 27.3977 19.5037V17.9996C26.1459 18.6235 24.6743 19.0198 23.2867 18.6613C22.3186 18.4204 21.616 17.4849 21.6316 16.4859C21.5195 15.447 22.1284 14.3502 23.1493 14.0413C24.4169 13.6445 25.7984 13.948 26.9865 14.4639C27.2411 14.5972 27.4994 14.7625 27.3977 14.337V13.1548C25.4105 12.682 23.2958 12.5081 21.2994 13.0224C20.7215 13.1854 20.1585 13.4324 19.6891 13.8119Z" fill="url(#paint2_linear_4302_108712)"/>
</g>
</g>
</g>
</g>
<defs>
<linearGradient id="paint0_linear_4302_108712" x1="29.3918" y1="15.8733" x2="38.1677" y2="15.8733" gradientUnits="userSpaceOnUse">
<stop stop-color="#007B40"/>
<stop offset="1" stop-color="#55B330"/>
</linearGradient>
<linearGradient id="paint1_linear_4302_108712" x1="9.58939" y1="16.5341" x2="18.4023" y2="16.5341" gradientUnits="userSpaceOnUse">
<stop stop-color="#1D2970"/>
<stop offset="1" stop-color="#006DBA"/>
</linearGradient>
<linearGradient id="paint2_linear_4302_108712" x1="19.6027" y1="16.0798" x2="28.3845" y2="16.0798" gradientUnits="userSpaceOnUse">
<stop stop-color="#6E2B2F"/>
<stop offset="1" stop-color="#E30138"/>
</linearGradient>
<clipPath id="clip0_4302_108712">
<rect width="48" height="33" fill="white"/>
</clipPath>
</defs>
</svg>
