<svg width="48" height="33" viewBox="0 0 48 33" fill="none" xmlns="http://www.w3.org/2000/svg">
<g id="master-card 1" clip-path="url(#clip0_4302_108703)">
<g id="Clip path group">
<mask id="mask0_4302_108703" style="mask-type:luminance" maskUnits="userSpaceOnUse" x="0" y="0" width="48" height="33">
<g id="clip0_5105_151">
<path id="Vector" d="M48 0.330078H0V32.3301H48V0.330078Z" fill="white"/>
</g>
</mask>
<g mask="url(#mask0_4302_108703)">
<g id="Group">
<path id="Vector_2" d="M0 4.33008C0 2.12094 1.79086 0.330078 4 0.330078H44C46.2091 0.330078 48 2.12094 48 4.33008V28.3301C48 30.5392 46.2091 32.3301 44 32.3301H4C1.79086 32.3301 0 30.5392 0 28.3301V4.33008Z" fill="white"/>
<path id="Vector_3" d="M29.0087 6.85767L18.6797 6.89319L18.9927 25.803L29.3217 25.7675L29.0087 6.85767Z" fill="#FF5F00"/>
<path id="Vector_4" d="M19.3585 16.3859C19.2946 12.5398 21.0175 9.12241 23.7162 6.90571C21.6792 5.30726 19.1255 4.34606 16.3572 4.35554C9.79896 4.378 4.58253 9.78073 4.69313 16.4362C4.80374 23.0916 10.1991 28.458 16.7574 28.4355C19.5257 28.426 22.0471 27.4475 24.0308 25.8353C21.2593 23.6707 19.4224 20.2321 19.3585 16.3859Z" fill="#EB001B"/>
<path id="Vector_5" d="M43.3063 16.224C43.4169 22.8794 38.2006 28.2822 31.6424 28.3046C28.8741 28.3141 26.3203 27.3529 24.2833 25.7545C27.015 23.5377 28.7049 20.1203 28.641 16.2742C28.5771 12.4281 26.7408 9.02293 23.9688 6.82496C25.9524 5.21275 28.4739 4.23416 31.2422 4.22468C37.8004 4.20222 43.1963 9.60204 43.3063 16.224Z" fill="#F79E1B"/>
</g>
</g>
</g>
</g>
<defs>
<clipPath id="clip0_4302_108703">
<rect width="48" height="33" fill="white"/>
</clipPath>
</defs>
</svg>
