<svg width="48" height="33" viewBox="0 0 48 33" fill="none" xmlns="http://www.w3.org/2000/svg">
<g id="paypal 1" clip-path="url(#clip0_4302_108680)">
<g id="Clip path group">
<mask id="mask0_4302_108680" style="mask-type:luminance" maskUnits="userSpaceOnUse" x="0" y="0" width="48" height="33">
<g id="clip0_5105_134">
<path id="Vector" d="M48 0.330078H0V32.3301H48V0.330078Z" fill="white"/>
</g>
</mask>
<g mask="url(#mask0_4302_108680)">
<g id="Group">
<path id="Vector_2" d="M0 4.33008C0 2.12094 1.79086 0.330078 4 0.330078H44C46.2091 0.330078 48 2.12094 48 4.33008V28.3301C48 30.5392 46.2091 32.3301 44 32.3301H4C1.79086 32.3301 0 30.5392 0 28.3301V4.33008Z" fill="white"/>
<path id="Vector_3" d="M10.7708 11.8475C10.2695 11.5028 9.61522 11.3301 8.8081 11.3301H5.6834C5.43597 11.3301 5.29927 11.4538 5.2733 11.7011L4.00398 19.6689C3.99079 19.7472 4.01037 19.8187 4.06254 19.8838C4.11442 19.949 4.17966 19.9814 4.2578 19.9814H5.74202C6.00234 19.9814 6.14542 19.858 6.17169 19.6104L6.52316 17.4623C6.536 17.3582 6.58178 17.2735 6.65992 17.2084C6.738 17.1433 6.83566 17.1007 6.95284 17.0813C7.07001 17.0619 7.18051 17.0521 7.28485 17.0521C7.3889 17.0521 7.51252 17.0588 7.65596 17.0717C7.79905 17.0847 7.89026 17.0911 7.92936 17.0911C9.04897 17.0911 9.92777 16.7756 10.5658 16.1439C11.2036 15.5126 11.5228 14.6371 11.5228 13.5172C11.5228 12.749 11.2719 12.1927 10.7708 11.8475ZM9.15976 14.24C9.09445 14.6958 8.9254 14.9951 8.65201 15.1383C8.37855 15.2818 7.98798 15.3532 7.48029 15.3532L6.83578 15.3726L7.16785 13.2829C7.19376 13.1399 7.27834 13.0682 7.42167 13.0682H7.79284C8.31337 13.0682 8.69117 13.1433 8.92552 13.2927C9.15976 13.4426 9.2379 13.7584 9.15976 14.24Z" fill="#4A80D4"/>
<path id="Vector_4" d="M43.7458 11.3301H42.3008C42.1571 11.3301 42.0726 11.4017 42.0468 11.545L40.7774 19.6693L40.7578 19.7083C40.7578 19.7737 40.7838 19.8353 40.8361 19.8939C40.8878 19.9524 40.9532 19.9817 41.0313 19.9817H42.3204C42.5674 19.9817 42.7041 19.8583 42.7306 19.6107L43.9999 11.6232V11.6038C43.9998 11.4214 43.9149 11.3301 43.7458 11.3301Z" fill="#009CDE"/>
<path id="Vector_5" d="M26.2883 14.4746C26.2883 14.4096 26.2621 14.3477 26.2104 14.2892C26.1582 14.2307 26.0995 14.2012 26.0346 14.2012H24.5309C24.3873 14.2012 24.2702 14.2666 24.1792 14.3964L22.1091 17.4431L21.2499 14.5137C21.1844 14.3056 21.0414 14.2012 20.8202 14.2012H19.3553C19.2901 14.2012 19.2315 14.2305 19.1797 14.2892C19.1275 14.3477 19.1016 14.4097 19.1016 14.4746C19.1016 14.5008 19.2286 14.8847 19.4824 15.6268C19.7362 16.3692 20.0096 17.1699 20.3026 18.0292C20.5956 18.8884 20.7484 19.3443 20.7615 19.396C19.6938 20.8544 19.1602 21.6355 19.1602 21.7395C19.1602 21.9089 19.2447 21.9935 19.4141 21.9935H20.9178C21.061 21.9935 21.1781 21.9285 21.2694 21.7983L26.2495 14.6112C26.2753 14.5854 26.2883 14.5401 26.2883 14.4746Z" fill="#4A80D4"/>
<path id="Vector_6" d="M40.2883 14.2012H38.8041C38.6216 14.2012 38.5114 14.416 38.4723 14.8458C38.1333 14.3251 37.5153 14.0645 36.6168 14.0645C35.6794 14.0645 34.8819 14.416 34.2245 15.1191C33.567 15.8222 33.2383 16.6492 33.2383 17.5995C33.2383 18.3678 33.4629 18.9797 33.912 19.4352C34.3612 19.8912 34.9632 20.1187 35.7186 20.1187C36.0961 20.1187 36.4802 20.0405 36.8708 19.8844C37.2613 19.7282 37.567 19.52 37.7888 19.2595C37.7888 19.2725 37.7755 19.3309 37.7497 19.435C37.7234 19.5394 37.7106 19.6177 37.7106 19.6694C37.7106 19.8779 37.795 19.9818 37.9645 19.9818H39.3121C39.5592 19.9818 39.7026 19.8584 39.7415 19.6108L40.5423 14.5136C40.5552 14.4354 40.5357 14.3639 40.4837 14.2987C40.4314 14.2338 40.3664 14.2012 40.2883 14.2012ZM37.7398 18.0486C37.4078 18.3741 37.0074 18.5368 36.5388 18.5368C36.161 18.5368 35.8553 18.4328 35.6209 18.2244C35.3864 18.0165 35.2692 17.73 35.2692 17.3651C35.2692 16.8837 35.432 16.4765 35.7576 16.1445C36.0826 15.8125 36.4866 15.6466 36.9684 15.6466C37.3326 15.6466 37.6354 15.754 37.8765 15.9687C38.1171 16.1836 38.2379 16.4798 38.2379 16.8575C38.2378 17.3261 38.0718 17.7233 37.7398 18.0486Z" fill="#009CDE"/>
<path id="Vector_7" d="M18.1049 14.2012H16.6207C16.4381 14.2012 16.3277 14.416 16.2886 14.8458C15.9371 14.3251 15.3186 14.0645 14.4333 14.0645C13.4959 14.0645 12.6983 14.416 12.0409 15.1191C11.3833 15.8222 11.0547 16.6492 11.0547 17.5995C11.0547 18.3678 11.2793 18.9797 11.7285 19.4352C12.1777 19.8912 12.7797 20.1187 13.535 20.1187C13.8993 20.1187 14.2771 20.0405 14.6676 19.8844C15.0582 19.7282 15.3707 19.52 15.605 19.2595C15.5528 19.4156 15.5269 19.5523 15.5269 19.6694C15.5269 19.8779 15.6115 19.9818 15.7808 19.9818H17.1283C17.3755 19.9818 17.5189 19.8584 17.558 19.6108L18.3586 14.5136C18.3715 14.4354 18.352 14.3639 18.3001 14.2987C18.2479 14.2338 18.1829 14.2012 18.1049 14.2012ZM15.5563 18.0583C15.2243 18.3777 14.8172 18.5368 14.3358 18.5368C13.958 18.5368 13.6553 18.4328 13.4276 18.2244C13.1997 18.0165 13.0858 17.73 13.0858 17.3651C13.0858 16.8837 13.2485 16.4765 13.5741 16.1445C13.8994 15.8125 14.303 15.6465 14.7849 15.6465C15.1493 15.6465 15.452 15.754 15.6931 15.9687C15.9338 16.1836 16.0544 16.4798 16.0544 16.8575C16.0543 17.3392 15.8883 17.7397 15.5563 18.0583Z" fill="#4A80D4"/>
<path id="Vector_8" d="M32.9546 11.8475C32.4533 11.5028 31.7992 11.3301 30.9919 11.3301H27.8867C27.6262 11.3301 27.4829 11.4538 27.4571 11.7011L26.1876 19.6689C26.1744 19.7472 26.194 19.8187 26.2462 19.8838C26.2979 19.949 26.3633 19.9814 26.4414 19.9814H28.0428C28.199 19.9814 28.3031 19.8969 28.3553 19.7276L28.7069 17.4623C28.7198 17.3582 28.7654 17.2735 28.8436 17.2084C28.9218 17.1433 29.0193 17.1007 29.1366 17.0813C29.2536 17.0619 29.3641 17.0521 29.4685 17.0521C29.5727 17.0521 29.6962 17.0588 29.8395 17.0717C29.9827 17.0847 30.0741 17.0911 30.1129 17.0911C31.2328 17.0911 32.1114 16.7756 32.7495 16.1439C33.3875 15.5126 33.7064 14.6371 33.7064 13.5172C33.7065 12.749 33.4557 12.1927 32.9546 11.8475ZM30.9529 15.0601C30.6664 15.2554 30.2367 15.353 29.664 15.353L29.0389 15.3726L29.3709 13.2828C29.3967 13.1398 29.4814 13.068 29.6248 13.068H29.9762C30.2626 13.068 30.4904 13.0811 30.66 13.1071C30.8289 13.1332 30.9919 13.2145 31.1481 13.3511C31.3045 13.4879 31.3825 13.6865 31.3825 13.9468C31.3825 14.4938 31.2391 14.8647 30.9529 15.0601Z" fill="#009CDE"/>
</g>
</g>
</g>
</g>
<defs>
<clipPath id="clip0_4302_108680">
<rect width="48" height="33" fill="white"/>
</clipPath>
</defs>
</svg>
