<svg width="48" height="33" viewBox="0 0 48 33" fill="none" xmlns="http://www.w3.org/2000/svg">
<g clip-path="url(#clip0_4302_108725)">
<mask id="mask0_4302_108725" style="mask-type:luminance" maskUnits="userSpaceOnUse" x="0" y="0" width="48" height="33">
<path d="M48 0.330078H0V32.3301H48V0.330078Z" fill="white"/>
</mask>
<g mask="url(#mask0_4302_108725)">
<path d="M0 4.33008C0 2.12094 1.79086 0.330078 4 0.330078H44C46.2091 0.330078 48 2.12094 48 4.33008V28.3301C48 30.5392 46.2091 32.3301 44 32.3301H4C1.79086 32.3301 0 30.5392 0 28.3301V4.33008Z" fill="white"/>
</g>
<g clip-path="url(#clip1_4302_108725)">
<path fill-rule="evenodd" clip-rule="evenodd" d="M23.3442 14.7769C23.7113 14.3229 24.2809 13.9466 24.9608 13.9466C26.4874 13.9466 27.6899 15.2104 27.6889 16.7698C27.6889 18.3945 26.4803 19.597 25.0303 19.597C24.2594 19.597 23.6694 19.2023 23.4537 18.8731H23.4332V21.2596C23.4332 21.274 23.4275 21.2877 23.4173 21.2979C23.4072 21.308 23.3934 21.3138 23.379 21.3138H22.0201C22.0056 21.3138 21.9917 21.3081 21.9814 21.298C21.9711 21.2878 21.9651 21.2741 21.9648 21.2596V13.9998C21.9648 13.9852 21.9707 13.9711 21.9811 13.9607C21.9914 13.9504 22.0054 13.9446 22.0201 13.9446H23.2901C23.3045 13.9448 23.3183 13.9508 23.3284 13.9611C23.3386 13.9714 23.3442 13.9853 23.3442 13.9998V14.7769ZM24.8448 18.2134C24.7322 18.217 24.6189 18.2073 24.5073 18.1842C24.2266 18.1261 23.9696 17.9856 23.7692 17.7807C23.5688 17.5758 23.4341 17.3158 23.3823 17.0339C23.3674 16.9529 23.3595 16.8711 23.3586 16.7895C23.3576 16.6981 23.3653 16.6063 23.3818 16.5155C23.4331 16.2338 23.5671 15.9737 23.7667 15.7685C23.9664 15.5633 24.2227 15.4223 24.5029 15.3634C24.6151 15.3398 24.729 15.3298 24.8424 15.3332C25.0267 15.3355 25.2088 15.3737 25.3785 15.4458C25.5504 15.5189 25.7061 15.6253 25.8368 15.7588C25.9673 15.8924 26.0702 16.0505 26.1394 16.224C26.2086 16.3975 26.2428 16.583 26.24 16.7698C26.24 16.7697 26.24 16.7698 26.24 16.7698C26.243 16.9569 26.2089 17.1429 26.1399 17.3168C26.0708 17.4908 25.968 17.6494 25.8375 17.7835C25.7069 17.9177 25.5512 18.0247 25.3792 18.0985C25.2102 18.171 25.0287 18.21 24.8448 18.2134Z" fill="#5A31F4"/>
<path d="M14.5245 15.0332C14.2106 14.3747 13.6154 13.9493 12.7187 13.9493C12.4434 13.9541 12.173 14.0221 11.9282 14.1479C11.6833 14.2738 11.4707 14.4542 11.3066 14.6753L11.2739 14.7152V12.1344C11.2739 12.1194 11.268 12.1051 11.2574 12.0946C11.2469 12.0841 11.2326 12.0781 11.2176 12.0781H9.94975C9.93501 12.0784 9.92097 12.0844 9.91064 12.095C9.90031 12.1055 9.89453 12.1196 9.89453 12.1344V19.5373C9.89453 19.552 9.90034 19.566 9.91071 19.5763C9.92106 19.5867 9.9351 19.5925 9.94975 19.5925H11.3076C11.3224 19.5925 11.3365 19.5867 11.347 19.5764C11.3576 19.5661 11.3636 19.552 11.3639 19.5373V16.3808C11.3639 15.7673 11.7729 15.3328 12.4273 15.3328C13.143 15.3328 13.324 15.9217 13.324 16.5219V19.5373C13.324 19.552 13.3298 19.566 13.3402 19.5763C13.3505 19.5867 13.3646 19.5925 13.3792 19.5925H14.734C14.7488 19.5925 14.763 19.5867 14.7734 19.5764C14.7839 19.5661 14.79 19.552 14.7903 19.5373V16.342C14.7903 16.2326 14.7903 16.1252 14.776 16.0209C14.7527 15.6791 14.6675 15.3444 14.5245 15.0332Z" fill="#5A31F4"/>
<path d="M7.74649 16.1294C7.74649 16.1294 7.05528 15.9668 6.80067 15.9014C6.54607 15.8359 6.10128 15.6969 6.10128 15.3605C6.10128 15.0241 6.46018 14.9167 6.82419 14.9167C7.18821 14.9167 7.59312 15.0046 7.62481 15.4085C7.62609 15.4231 7.63279 15.4366 7.64359 15.4465C7.65439 15.4563 7.66848 15.4618 7.6831 15.4617L9.02155 15.4566C9.02943 15.4566 9.03723 15.455 9.04446 15.4519C9.05168 15.4487 9.05819 15.4442 9.06357 15.4384C9.06894 15.4326 9.07307 15.4258 9.07569 15.4184C9.07831 15.411 9.07938 15.4031 9.07882 15.3952C8.996 14.1028 7.86203 13.6406 6.81601 13.6406C5.57571 13.6406 4.66875 14.4586 4.66875 15.3605C4.66875 16.019 4.85485 16.6366 6.31805 17.066C6.5747 17.1407 6.92338 17.2378 7.22808 17.3227C7.59414 17.4249 7.79148 17.5793 7.79148 17.8227C7.79148 18.1049 7.38248 18.3012 6.98063 18.3012C6.39883 18.3012 5.98573 18.0855 5.95199 17.6979C5.95024 17.6837 5.94334 17.6707 5.93259 17.6613C5.92184 17.6518 5.908 17.6467 5.89371 17.6468L4.55832 17.6529C4.55049 17.6529 4.54274 17.6545 4.53553 17.6576C4.52832 17.6606 4.52181 17.6651 4.51637 17.6707C4.51093 17.6764 4.50668 17.683 4.50387 17.6903C4.50107 17.6976 4.49976 17.7054 4.50004 17.7133C4.56139 18.9331 5.73931 19.5906 6.83748 19.5906C8.47349 19.5906 9.21276 18.6703 9.21276 17.8084C9.21481 17.4034 9.12176 16.4811 7.74649 16.1294Z" fill="#5A31F4"/>
<path d="M17.9448 13.6289C16.6779 13.6289 16.046 14.0594 15.5388 14.404L15.5234 14.4142C15.4973 14.4321 15.4789 14.4592 15.4719 14.4901C15.4648 14.521 15.4698 14.5534 15.4856 14.5809L15.9866 15.4439C15.9961 15.46 16.0089 15.4739 16.0243 15.4845C16.0397 15.4951 16.0572 15.5022 16.0756 15.5052C16.0937 15.5085 16.1121 15.5077 16.1298 15.5029C16.1476 15.4981 16.1639 15.4895 16.1778 15.4776L16.2178 15.4449C16.4785 15.2261 16.8967 14.9336 17.9089 14.8539C18.4724 14.8089 18.9591 14.9561 19.3179 15.2915C19.7127 15.6555 19.9489 16.2435 19.9489 16.8641C19.9489 18.0063 19.2761 18.7241 18.1953 18.7384C17.3047 18.7333 16.7065 18.269 16.7065 17.5829C16.7065 17.2189 16.8712 16.9817 17.1922 16.7445C17.2167 16.727 17.2341 16.7011 17.241 16.6718C17.2479 16.6425 17.244 16.6116 17.23 16.585L16.7801 15.7342C16.7718 15.719 16.7606 15.7056 16.7471 15.6947C16.7336 15.6838 16.718 15.6757 16.7014 15.6709C16.6844 15.6658 16.6665 15.6643 16.6489 15.6666C16.6313 15.6689 16.6143 15.6749 16.5991 15.6841C16.094 15.9837 15.4743 16.5318 15.5081 17.585C15.549 18.9255 16.6636 19.949 18.1124 19.9909H18.185H18.2842C20.0061 19.9347 21.2495 18.6566 21.2495 16.9234C21.2495 15.3324 20.09 13.6289 17.9448 13.6289Z" fill="#5A31F4"/>
<path fill-rule="evenodd" clip-rule="evenodd" d="M30.4957 12.0967H42.0899C42.8901 12.0967 43.5389 12.7454 43.5389 13.5456V19.8933C43.5389 20.6935 42.8901 21.3421 42.0899 21.3421H30.4957C29.6955 21.3421 29.0469 20.6935 29.0469 19.8933V13.5456C29.0469 12.7454 29.6955 12.0967 30.4957 12.0967ZM33.097 17.1243C34.0643 17.1243 34.7565 16.4188 34.7565 15.4301C34.7565 14.4464 34.0643 13.7368 33.097 13.7368H31.3894C31.3691 13.7368 31.3495 13.7449 31.3352 13.7592C31.3208 13.7736 31.3127 13.7931 31.3127 13.8135V18.4996C31.313 18.5199 31.3211 18.5392 31.3355 18.5535C31.3498 18.5679 31.3692 18.576 31.3894 18.5763H32.0315C32.0519 18.5763 32.0714 18.5682 32.0858 18.5538C32.1002 18.5395 32.1082 18.52 32.1082 18.4996V17.201C32.1082 17.1807 32.1163 17.1612 32.1307 17.1468C32.1451 17.1324 32.1646 17.1243 32.185 17.1243H33.097ZM33.0479 14.4484C33.5735 14.4484 33.961 14.8636 33.961 15.4301C33.961 15.9975 33.5735 16.4117 33.0479 16.4117H32.185C32.1648 16.4117 32.1454 16.4037 32.1311 16.3896C32.1167 16.3754 32.1085 16.3562 32.1082 16.336V14.5251C32.1085 14.5049 32.1167 14.4855 32.131 14.4712C32.1453 14.4569 32.1647 14.4487 32.185 14.4484H33.0479ZM34.9457 17.6775C34.939 17.5259 34.9703 17.3751 35.0367 17.2387C35.1032 17.1022 35.2026 16.9846 35.3261 16.8963C35.5756 16.7092 35.962 16.6121 36.5357 16.5896L37.144 16.5691V16.3892C37.144 16.0303 36.9027 15.8779 36.5152 15.8779C36.1278 15.8779 35.8833 16.0149 35.8261 16.2389C35.8215 16.2547 35.8118 16.2685 35.7984 16.2781C35.7851 16.2878 35.7689 16.2927 35.7525 16.292H35.1522C35.1412 16.2923 35.1302 16.2901 35.1201 16.2857C35.11 16.2813 35.1009 16.2747 35.0937 16.2664C35.0864 16.2582 35.0809 16.2484 35.0778 16.2378C35.0746 16.2272 35.0739 16.216 35.0756 16.2051C35.1655 15.6734 35.6052 15.2695 36.5429 15.2695C37.5388 15.2695 37.8976 15.7327 37.8976 16.6172V18.4965C37.8978 18.5067 37.896 18.5168 37.8921 18.5262C37.8883 18.5356 37.8827 18.5442 37.8756 18.5514C37.8685 18.5587 37.86 18.5644 37.8506 18.5683C37.8412 18.5722 37.8311 18.5743 37.8209 18.5743H37.2146C37.2045 18.5743 37.1944 18.5722 37.185 18.5683C37.1757 18.5644 37.1672 18.5587 37.16 18.5514C37.1529 18.5442 37.1473 18.5356 37.1435 18.5262C37.1397 18.5168 37.1378 18.5067 37.1379 18.4965V18.3565C37.139 18.3442 37.136 18.3319 37.1295 18.3214C37.1229 18.311 37.1132 18.3029 37.1017 18.2984C37.0902 18.2939 37.0776 18.2933 37.0657 18.2966C37.0538 18.2998 37.0433 18.3068 37.0357 18.3166C36.8547 18.5139 36.5602 18.6571 36.0909 18.6571C35.4028 18.6591 34.9457 18.2992 34.9457 17.6775ZM37.144 17.2685V17.1233L36.3568 17.1642C35.9416 17.1857 35.6992 17.3585 35.6992 17.6489C35.6992 17.9117 35.9212 18.0579 36.3077 18.0579C36.8333 18.0579 37.144 17.7736 37.144 17.2695V17.2685ZM38.5071 19.4485V19.9955C38.5062 20.0132 38.5111 20.0307 38.5214 20.0452C38.5315 20.0596 38.5463 20.0703 38.5633 20.0753C38.6702 20.1044 38.7808 20.1179 38.8916 20.1152C39.4794 20.1152 40.0163 19.9004 40.3231 19.064L41.6728 15.4638C41.6766 15.4522 41.6776 15.4399 41.6759 15.4278C41.6741 15.4157 41.6694 15.4042 41.6624 15.3943C41.6553 15.3843 41.646 15.3761 41.6352 15.3705C41.6244 15.3648 41.6124 15.3617 41.6001 15.3615H40.9713C40.955 15.3614 40.939 15.3665 40.9258 15.3761C40.9125 15.3856 40.9027 15.3992 40.8977 15.4147L40.1543 17.6949C40.1487 17.7098 40.1385 17.7227 40.1254 17.7318C40.1123 17.7409 40.0967 17.7457 40.0807 17.7457C40.0647 17.7457 40.0491 17.7409 40.0359 17.7318C40.0228 17.7227 40.0128 17.7098 40.0071 17.6949L39.1502 15.4086C39.1445 15.3939 39.1345 15.3813 39.1216 15.3724C39.1087 15.3635 39.0934 15.3586 39.0776 15.3585H38.4641C38.4519 15.3587 38.4399 15.3617 38.4291 15.3674C38.4183 15.3731 38.409 15.3812 38.4019 15.3912C38.3948 15.4011 38.3902 15.4126 38.3884 15.4247C38.3866 15.4368 38.3877 15.4491 38.3916 15.4607L39.6533 18.7021C39.6595 18.7189 39.6595 18.7374 39.6533 18.7542L39.6134 18.88C39.5669 19.036 39.4694 19.1719 39.3364 19.2659C39.2036 19.3599 39.0429 19.4065 38.8803 19.3984C38.7859 19.3983 38.6918 19.3894 38.5991 19.3718C38.5878 19.3697 38.5763 19.3701 38.5652 19.373C38.5541 19.3759 38.5438 19.3812 38.535 19.3885C38.5263 19.3958 38.5192 19.405 38.5144 19.4154C38.5095 19.4257 38.507 19.4371 38.5071 19.4485Z" fill="#5A31F4"/>
</g>
</g>
<defs>
<clipPath id="clip0_4302_108725">
<rect width="48" height="33" fill="white"/>
</clipPath>
<clipPath id="clip1_4302_108725">
<rect width="40" height="9.41177" fill="white" transform="translate(4 12)"/>
</clipPath>
</defs>
</svg>
