<svg width="48" height="33" viewBox="0 0 48 33" fill="none" xmlns="http://www.w3.org/2000/svg">
<g id="visa 1" clip-path="url(#clip0_4302_108692)">
<g id="Clip path group">
<mask id="mask0_4302_108692" style="mask-type:luminance" maskUnits="userSpaceOnUse" x="0" y="0" width="48" height="33">
<g id="clip0_5105_143">
<path id="Vector" d="M48 0.330078H0V32.3301H48V0.330078Z" fill="white"/>
</g>
</mask>
<g mask="url(#mask0_4302_108692)">
<g id="Group">
<path id="Vector_2" d="M0 4.33008C0 2.12094 1.79086 0.330078 4 0.330078H44C46.2091 0.330078 48 2.12094 48 4.33008V28.3301C48 30.5392 46.2091 32.3301 44 32.3301H4C1.79086 32.3301 0 30.5392 0 28.3301V4.33008Z" fill="white"/>
<path id="Vector_3" d="M41.3105 10.3643H38.7959C38.0357 10.3643 37.4509 10.5983 37.1 11.3585L32.3047 22.2942H35.6965C35.6965 22.2942 36.2813 20.8322 36.3983 20.4813C36.7491 20.4813 40.0825 20.4813 40.5503 20.4813C40.6673 20.8907 40.9597 22.2357 40.9597 22.2357H44.0006L41.3105 10.3643ZM37.3339 18.0252C37.6263 17.3234 38.6205 14.6918 38.6205 14.6918C38.6205 14.7503 38.9129 13.9901 39.0298 13.5807L39.2638 14.6334C39.2638 14.6334 39.907 17.4988 40.024 18.0836H37.3339V18.0252Z" fill="#4A80D5"/>
<path id="Vector_4" d="M32.5366 18.3766C32.5366 20.8327 30.3144 22.4702 26.8641 22.4702C25.4021 22.4702 23.9986 22.1778 23.2383 21.8269L23.7062 19.1368L24.1155 19.3123C25.1682 19.7801 25.8699 19.9555 27.1565 19.9555C28.0921 19.9555 29.0863 19.6047 29.0863 18.7859C29.0863 18.2596 28.6769 17.9088 27.3904 17.324C26.1623 16.7392 24.5249 15.8035 24.5249 14.1076C24.5249 11.7684 26.8056 10.1895 30.022 10.1895C31.25 10.1895 32.3027 10.4234 32.9459 10.7158L32.4781 13.2889L32.2442 13.055C31.6594 12.821 30.8992 12.5871 29.7881 12.5871C28.56 12.6456 27.9752 13.1719 27.9752 13.6397C27.9752 14.1661 28.6769 14.5754 29.7881 15.1017C31.6594 15.9789 32.5366 16.9731 32.5366 18.3766Z" fill="#4A80D5"/>
<path id="Vector_5" d="M4 10.482L4.05848 10.248H9.08772C9.78947 10.248 10.3158 10.482 10.4912 11.2422L11.6023 16.5054C10.4912 13.6983 7.91813 11.4176 4 10.482Z" fill="#F9B50B"/>
<path id="Vector_6" d="M18.6768 10.3651L13.5891 22.2365H10.1388L7.21484 12.2949C9.3201 13.64 11.0745 15.7452 11.7177 17.2072L12.0686 18.4353L15.2265 10.3066H18.6768V10.3651Z" fill="#4A80D5"/>
<path id="Vector_7" d="M20.0233 10.3066H23.2397L21.1929 22.2365H17.9766L20.0233 10.3066Z" fill="#4A80D5"/>
</g>
</g>
</g>
</g>
<defs>
<clipPath id="clip0_4302_108692">
<rect width="48" height="33" fill="white"/>
</clipPath>
</defs>
</svg>
