<?xml version="1.0" encoding="utf-8"?>
<!-- Generator: Adobe Illustrator 27.7.0, SVG Export Plug-In . SVG Version: 6.00 Build 0)  -->
<svg version="1.1" id="Layer_1" xmlns="http://www.w3.org/2000/svg" xmlns:xlink="http://www.w3.org/1999/xlink" x="0px" y="0px"
	 viewBox="0 0 133 42" style="enable-background:new 0 0 133 42;" xml:space="preserve">
<style type="text/css">
	.st0{clip-path:url(#SVGID_00000094617786118037832770000003922415226809735338_);}
	.st1{fill:#F5FCFF;}
</style>
<g>
	<g>
		<defs>
			<rect id="SVGID_1_" y="0" width="133" height="42"/>
		</defs>
		<clipPath id="SVGID_00000053530294399319640950000011362925716752147862_">
			<use xlink:href="#SVGID_1_"  style="overflow:visible;"/>
		</clipPath>
		<g style="clip-path:url(#SVGID_00000053530294399319640950000011362925716752147862_);">
			<path class="st1" d="M132.7,5.8c-0.1-0.7-0.4-1.4-0.7-2c-0.7-1.3-1.8-2.3-3.1-2.9c-0.7-0.3-1.4-0.5-2.1-0.7
				c-0.7-0.1-1.5-0.2-2.2-0.2c-0.3,0-0.7,0-1,0c-0.4,0-0.8,0-1.2,0H10.9c-0.4,0-0.8,0-1.2,0C9.4,0,9,0,8.7,0C7.9,0,7.2,0.1,6.5,0.2
				C5.7,0.3,5,0.5,4.4,0.9C3.7,1.2,3.1,1.6,2.6,2.1C2,2.6,1.6,3.2,1.3,3.8C1,4.4,0.7,5.1,0.6,5.8C0.4,6.5,0.4,7.2,0.4,7.9
				c0,0.3,0,0.6,0,1v24.3c0,0.3,0,0.6,0,1c0,0.7,0.1,1.4,0.2,2.1c0.1,0.7,0.4,1.4,0.7,2c0.3,0.6,0.8,1.2,1.3,1.7s1.1,0.9,1.8,1.2
				c0.7,0.3,1.4,0.5,2.1,0.7c0.7,0,1.4,0.1,2.2,0.1c0.3,0,0.7,0,1,0c0.4,0,0.8,0,1.2,0h111.5c0.4,0,0.8,0,1.2,0c0.3,0,0.7,0,1,0
				c0.7,0,1.5-0.1,2.2-0.2c0.7-0.1,1.4-0.3,2.1-0.7c0.7-0.3,1.3-0.7,1.8-1.2s1-1.1,1.3-1.7c0.3-0.6,0.6-1.3,0.7-2s0.2-1.4,0.2-2.1
				c0-0.3,0-0.6,0-1c0-0.4,0-0.8,0-1.1V10c0-0.4,0-0.8,0-1.1c0-0.3,0-0.6,0-1C132.9,7.2,132.8,6.5,132.7,5.8z M132.1,8.8
				c0,0.4,0,0.8,0,1.1v22c0,0.4,0,0.8,0,1.1s0,0.7,0,1c0,0.7-0.1,1.3-0.2,1.9c-0.1,0.6-0.3,1.2-0.6,1.8c-0.3,0.5-0.7,1-1.1,1.5
				c-0.5,0.4-1,0.8-1.6,1.1c-0.6,0.3-1.2,0.5-1.8,0.6c-0.7,0.1-1.4,0.2-2.1,0.2c-0.3,0-0.7,0-1,0h-1.2H9.7c-0.3,0-0.7,0-1,0
				c-0.7,0-1.4-0.1-2.1-0.2c-0.6-0.1-1.3-0.3-1.8-0.6c-0.6-0.3-1.1-0.6-1.5-1.1c-0.5-0.4-0.8-0.9-1.1-1.5c-0.3-0.5-0.5-1.1-0.6-1.7
				c-0.1-0.7-0.2-1.3-0.2-2c0-0.2,0-1,0-1V8.9c0,0,0-0.7,0-0.9c0-0.7,0.1-1.3,0.2-2c0.1-0.6,0.3-1.2,0.6-1.7s0.7-1,1.1-1.5
				c0.5-0.4,1-0.8,1.6-1.1C5.4,1.4,6,1.2,6.6,1.1C7.3,1,8,0.9,8.7,0.9h1h113.9h1c0.7,0,1.4,0.1,2.1,0.2c0.6,0.1,1.3,0.3,1.9,0.6
				c1.1,0.6,2.1,1.5,2.7,2.5c0.3,0.5,0.5,1.1,0.6,1.7c0.1,0.7,0.2,1.3,0.2,2C132.1,8.2,132.1,8.5,132.1,8.8z"/>
			<path class="st1" d="M27.8,21.3c0-0.9,0.3-1.7,0.7-2.5c0.5-0.8,1.1-1.4,1.9-1.9c-0.5-0.7-1.2-1.2-1.9-1.6s-1.6-0.6-2.5-0.6
				c-1.9-0.2-3.7,1.1-4.6,1.1c-1,0-2.4-1-4-1c-1,0-2,0.3-2.9,0.8c-0.9,0.5-1.6,1.2-2.1,2.1c-2.1,3.5-0.5,8.7,1.5,11.5
				c1,1.4,2.2,2.9,3.8,2.9c1.5-0.1,2.1-0.9,4-0.9c1.8,0,2.4,0.9,4,0.9s2.7-1.4,3.7-2.8c0.7-1,1.3-2.1,1.7-3.2c-1-0.4-1.8-1-2.4-1.8
				C28.1,23.3,27.8,22.3,27.8,21.3z"/>
			<path class="st1" d="M24.8,12.8c0.9-1,1.3-2.3,1.2-3.7c-1.4,0.1-2.6,0.8-3.6,1.7c-0.4,0.5-0.8,1-1,1.6s-0.3,1.2-0.3,1.9
				c0.7,0,1.4-0.1,2-0.4C23.8,13.7,24.4,13.3,24.8,12.8z"/>
			<path class="st1" d="M47.2,28.5H42L40.7,32h-2.2l5-13h2.3l5,13h-2.3L47.2,28.5z M42.5,26.9h4.2l-2.1-5.7h-0.1L42.5,26.9z"/>
			<path class="st1" d="M61.5,27.3c0,3-1.7,4.9-4.2,4.9c-0.6,0-1.3-0.1-1.8-0.4c-0.6-0.3-1-0.7-1.3-1.3l0,0v4.7H52V22.5h2v1.6l0,0
				c0.3-0.5,0.8-1,1.4-1.3c0.6-0.3,1.2-0.4,1.8-0.4C59.8,22.4,61.5,24.3,61.5,27.3z M59.4,27.3c0-1.9-1-3.2-2.7-3.2
				c-1.6,0-2.6,1.3-2.6,3.2c0,1.9,1.1,3.2,2.6,3.2C58.3,30.5,59.4,29.2,59.4,27.3z"/>
			<path class="st1" d="M72.5,27.3c0,3-1.7,4.9-4.2,4.9c-0.6,0-1.3-0.1-1.8-0.4c-0.6-0.3-1-0.7-1.3-1.3l0,0v4.7h-2.1V22.5h2v1.6l0,0
				c0.3-0.5,0.8-1,1.4-1.3s1.2-0.4,1.8-0.4C70.9,22.4,72.5,24.3,72.5,27.3z M70.4,27.3c0-1.9-1.1-3.2-2.7-3.2s-2.6,1.3-2.6,3.2
				c0,1.9,1.1,3.2,2.6,3.2C69.4,30.5,70.4,29.2,70.4,27.3z"/>
			<path class="st1" d="M79.8,28.4c0.2,1.3,1.5,2.1,3.3,2.1c1.7,0,3-0.8,3-2c0-1-0.8-1.6-2.5-2l-1.8-0.4c-2.5-0.6-3.7-1.7-3.7-3.5
				c0-2.2,2.1-3.8,5-3.8s4.9,1.5,5,3.8H86c-0.1-1.3-1.3-2.1-2.9-2.1s-2.8,0.8-2.8,2c0,0.9,0.7,1.5,2.5,1.9l1.5,0.4
				c2.8,0.6,4,1.7,4,3.6c0,2.4-2.1,4-5.3,4c-3.1,0-5.1-1.5-5.2-3.9L79.8,28.4z"/>
			<path class="st1" d="M92.7,20.3v2.2h1.9V24h-1.9v5.2c0,0.8,0.4,1.2,1.2,1.2c0.2,0,0.5,0,0.7,0V32c-0.4,0.1-0.8,0.1-1.1,0.1
				c-2,0-2.8-0.7-2.8-2.6v-5.4h-1.5v-1.5h1.5v-2.2L92.7,20.3L92.7,20.3z"/>
			<path class="st1" d="M95.8,27.3c0-3,1.9-4.9,4.8-4.9s4.8,1.9,4.8,4.9s-1.8,4.9-4.8,4.9C97.6,32.1,95.8,30.3,95.8,27.3z
				 M103.2,27.3c0-2.1-1-3.3-2.7-3.3s-2.7,1.2-2.7,3.3s1,3.3,2.7,3.3C102.2,30.5,103.2,29.3,103.2,27.3z"/>
			<path class="st1" d="M107,22.5h2v1.6l0,0c0.1-0.5,0.4-1,0.9-1.3c0.4-0.3,1-0.5,1.5-0.5c0.2,0,0.5,0,0.7,0.1v1.8
				c-0.3-0.1-0.6-0.1-0.9-0.1s-0.6,0-0.9,0.1s-0.5,0.3-0.7,0.5s-0.4,0.5-0.5,0.7c-0.1,0.3-0.1,0.6-0.1,0.8V32h-2V22.5z"/>
			<path class="st1" d="M121.6,29.2c-0.3,1.7-2.1,2.9-4.3,2.9c-2.9,0-4.7-1.9-4.7-4.8c0-3,1.8-4.9,4.6-4.9c2.8,0,4.5,1.8,4.5,4.7
				v0.7h-7.1v0.1c0,0.3,0,0.7,0.1,1s0.3,0.6,0.6,0.9c0.3,0.3,0.6,0.5,0.9,0.6s0.7,0.2,1.1,0.2c0.5,0,1-0.1,1.4-0.3
				c0.4-0.2,0.7-0.6,0.9-1h2V29.2z M114.6,26.4h5c0-0.3,0-0.6-0.1-0.9s-0.3-0.6-0.5-0.8c-0.2-0.2-0.5-0.4-0.8-0.5s-0.6-0.2-1-0.2
				c-0.3,0-0.7,0.1-1,0.2s-0.6,0.3-0.8,0.5c-0.2,0.2-0.4,0.5-0.6,0.8C114.7,25.8,114.6,26.1,114.6,26.4z"/>
			<path class="st1" d="M42.3,9.2c0.4,0,0.9,0,1.3,0.2c0.4,0.1,0.8,0.4,1.1,0.7s0.5,0.7,0.7,1c0.1,0.4,0.2,0.8,0.1,1.2
				c0,2-1.1,3.2-3.1,3.2H40V9.2H42.3z M40.9,14.5h1.2c0.3,0,0.6,0,0.9-0.1c0.3-0.1,0.5-0.3,0.8-0.5c0.2-0.2,0.4-0.5,0.5-0.8
				s0.1-0.6,0.1-0.9c0-0.3,0-0.6-0.1-0.9c-0.1-0.3-0.2-0.5-0.5-0.7c-0.2-0.2-0.5-0.4-0.7-0.5c-0.3-0.1-0.6-0.2-0.9-0.1H41L40.9,14.5
				L40.9,14.5z"/>
			<path class="st1" d="M46.6,13.1c0-0.3,0-0.6,0.1-0.9c0.1-0.3,0.3-0.6,0.5-0.8s0.5-0.4,0.8-0.5s0.6-0.2,1-0.2c0.3,0,0.7,0.1,1,0.2
				c0.3,0.1,0.6,0.3,0.8,0.5s0.4,0.5,0.5,0.8s0.1,0.6,0.1,0.9c0,0.3,0,0.6-0.1,0.9c-0.1,0.3-0.3,0.6-0.5,0.8s-0.5,0.4-0.8,0.5
				s-0.6,0.2-1,0.2s-0.7-0.1-1-0.2c-0.3-0.1-0.6-0.3-0.8-0.5s-0.4-0.5-0.5-0.8S46.5,13.4,46.6,13.1z M50.3,13.1c0-1-0.5-1.6-1.3-1.6
				c-0.9,0-1.3,0.6-1.3,1.6s0.5,1.6,1.3,1.6C49.8,14.7,50.3,14.1,50.3,13.1z"/>
			<path class="st1" d="M57.5,15.4h-1l-1-3.5h-0.1l-1,3.5h-1L52,10.7h1l0.9,3.6H54l1-3.6h0.9l1,3.6H57l0.9-3.6h1L57.5,15.4z"/>
			<path class="st1" d="M60.1,10.7H61v0.8h0.1c0.1-0.3,0.3-0.5,0.6-0.6c0.3-0.2,0.6-0.2,0.9-0.2c0.2,0,0.5,0,0.7,0.1
				s0.4,0.2,0.6,0.4c0.2,0.2,0.3,0.4,0.4,0.6c0.1,0.2,0.1,0.5,0.1,0.7v3.1h-1v-2.8c0-0.8-0.3-1.1-1.1-1.1c-0.2,0-0.3,0-0.5,0.1
				s-0.3,0.1-0.4,0.3c-0.1,0.1-0.2,0.2-0.3,0.4c-0.1-0.1-0.1,0-0.1,0.2v2.8h-1L60.1,10.7L60.1,10.7z"/>
			<path class="st1" d="M65.9,8.9h1v6.6h-1V8.9z"/>
			<path class="st1" d="M68.2,13.1c0-0.3,0-0.6,0.1-0.9c0.1-0.3,0.3-0.6,0.5-0.8s0.5-0.4,0.8-0.5s0.6-0.2,1-0.2c0.3,0,0.7,0.1,1,0.2
				c0.3,0.1,0.6,0.3,0.8,0.5c0.2,0.2,0.4,0.5,0.5,0.8s0.1,0.6,0.1,0.9c0,0.3,0,0.6-0.1,0.9c-0.1,0.3-0.3,0.6-0.5,0.8
				s-0.5,0.4-0.8,0.5s-0.6,0.2-1,0.2c-0.3,0-0.7-0.1-1-0.2c-0.3-0.1-0.6-0.3-0.8-0.5c-0.2-0.2-0.4-0.5-0.5-0.8S68.2,13.4,68.2,13.1z
				 M71.9,13.1c0-1-0.5-1.6-1.3-1.6c-0.9,0-1.3,0.6-1.3,1.6s0.5,1.6,1.3,1.6C71.4,14.7,71.9,14.1,71.9,13.1z"/>
			<path class="st1" d="M74,14.1c0-0.9,0.7-1.3,1.9-1.4l1.4-0.1v-0.4c0-0.5-0.3-0.8-1-0.8c-0.5,0-0.9,0.2-1,0.5h-1
				c0.1-0.8,0.9-1.3,2-1.3c1.3,0,2,0.6,2,1.6v3.2h-0.9v-0.7h-0.1c-0.2,0.2-0.4,0.4-0.6,0.6c-0.3,0.1-0.6,0.2-0.9,0.2
				c-0.2,0-0.4,0-0.6-0.1s-0.4-0.2-0.5-0.3c-0.2-0.1-0.3-0.3-0.4-0.5C74,14.5,74,14.3,74,14.1z M77.2,13.7v-0.4L76,13.4
				c-0.7,0-1,0.3-1,0.7s0.4,0.7,0.9,0.7c0.2,0,0.3,0,0.5,0s0.3-0.1,0.4-0.2c0.1-0.1,0.2-0.2,0.3-0.3C77.1,14,77.2,13.8,77.2,13.7z"
				/>
			<path class="st1" d="M79.4,13.1c0-1.5,0.8-2.4,2.1-2.4c0.3,0,0.6,0.1,0.9,0.2c0.3,0.1,0.5,0.4,0.6,0.6h0.1V8.9h1v6.6h-0.9v-0.7
				h-0.1c-0.2,0.3-0.4,0.5-0.7,0.6c-0.3,0.1-0.6,0.2-0.9,0.2C80.2,15.5,79.4,14.6,79.4,13.1z M80.5,13.1c0,1,0.5,1.6,1.3,1.6
				s1.3-0.6,1.3-1.6s-0.5-1.6-1.3-1.6S80.5,12.1,80.5,13.1z"/>
			<path class="st1" d="M88.2,13.1c0-0.3,0-0.6,0.1-0.9c0.1-0.3,0.3-0.6,0.5-0.8s0.5-0.4,0.8-0.5s0.6-0.2,1-0.2s0.7,0.1,1,0.2
				c0.3,0.1,0.6,0.3,0.8,0.5c0.2,0.2,0.4,0.5,0.5,0.8s0.1,0.6,0.1,0.9c0,0.3,0,0.6-0.1,0.9c-0.1,0.3-0.3,0.6-0.5,0.8
				s-0.5,0.4-0.8,0.5s-0.6,0.2-1,0.2s-0.7-0.1-1-0.2c-0.3-0.1-0.6-0.3-0.8-0.5c-0.2-0.2-0.4-0.5-0.5-0.8S88.1,13.4,88.2,13.1z
				 M91.9,13.1c0-1-0.5-1.6-1.3-1.6c-0.9,0-1.3,0.6-1.3,1.6s0.5,1.6,1.3,1.6C91.4,14.7,91.9,14.1,91.9,13.1z"/>
			<path class="st1" d="M94.2,10.7h0.9v0.8h0.1c0.1-0.3,0.3-0.5,0.6-0.6c0.3-0.2,0.6-0.2,0.9-0.2c0.2,0,0.5,0,0.7,0.1
				s0.4,0.2,0.6,0.4s0.3,0.4,0.4,0.6c0.1,0.2,0.1,0.5,0.1,0.7v3.1h-1v-2.8c0-0.8-0.3-1.1-1.1-1.1c-0.2,0-0.3,0-0.5,0.1
				s-0.3,0.1-0.4,0.3c-0.1,0.1-0.2,0.2-0.3,0.4c-0.1,0.1-0.1,0.3-0.1,0.5v2.8h-1v-5.1H94.2z"/>
			<path class="st1" d="M104,9.5v1.2h1.1v0.8H104v2.4c0,0.5,0.2,0.7,0.7,0.7c0.1,0,0.3,0,0.4,0v0.8c-0.2,0-0.4,0-0.5,0
				c-1.1,0-1.5-0.4-1.5-1.3v-2.7h-0.8v-0.8h0.8V9.5H104z"/>
			<path class="st1" d="M106.4,8.9h1v2.6h0.1c0.1-0.3,0.3-0.5,0.6-0.7c0.3-0.2,0.6-0.2,0.9-0.2c0.2,0,0.5,0,0.7,0.1s0.4,0.2,0.6,0.4
				s0.3,0.4,0.4,0.6c0.1,0.2,0.1,0.4,0.1,0.7v3.1h-1v-2.8c0-0.8-0.4-1.1-1.1-1.1c-0.2,0-0.3,0-0.5,0.1s-0.3,0.1-0.4,0.3
				c-0.1,0.1-0.2,0.3-0.3,0.4c-0.1,0.2-0.1,0.3-0.1,0.5v2.8h-1C106.4,15.7,106.4,8.9,106.4,8.9z"/>
			<path class="st1" d="M116.5,14.2c-0.1,0.4-0.4,0.8-0.8,1.1c-0.4,0.2-0.9,0.4-1.3,0.3c-0.3,0-0.7-0.1-1-0.2s-0.6-0.3-0.8-0.5
				c-0.2-0.2-0.4-0.5-0.5-0.8s-0.1-0.6-0.1-0.9c0-0.3,0-0.6,0.1-0.9c0.1-0.3,0.3-0.6,0.5-0.8s0.5-0.4,0.8-0.5s0.6-0.2,1-0.2
				c1.4,0,2.2,0.9,2.2,2.4v0.3H113v0.1c0,0.2,0,0.3,0.1,0.5s0.2,0.3,0.3,0.4c0.1,0.1,0.3,0.2,0.4,0.3c0.2,0.1,0.4,0.1,0.5,0.1
				c0.2,0,0.5,0,0.7-0.1s0.4-0.3,0.5-0.5L116.5,14.2z M113,12.6h2.5c0-0.2,0-0.3-0.1-0.5c-0.1-0.1-0.1-0.3-0.3-0.4s-0.3-0.2-0.4-0.3
				c-0.2-0.1-0.3-0.1-0.5-0.1s-0.3,0-0.5,0.1s-0.3,0.2-0.4,0.3s-0.2,0.2-0.3,0.4C113,12.3,113,12.5,113,12.6z"/>
		</g>
	</g>
</g>
</svg>
