<?xml version="1.0" encoding="utf-8"?>
<!-- Generator: Adobe Illustrator 27.7.0, SVG Export Plug-In . SVG Version: 6.00 Build 0)  -->
<svg version="1.1" id="Layer_1" xmlns="http://www.w3.org/2000/svg" xmlns:xlink="http://www.w3.org/1999/xlink" x="0px" y="0px"
	 viewBox="0 0 133 42" style="enable-background:new 0 0 133 42;" xml:space="preserve">
<style type="text/css">
	.st0{clip-path:url(#SVGID_00000143603207965595100620000012393927945933391294_);}
	.st1{display:none;fill:#00254E;}
	.st2{fill:#F5FCFF;}
	.st3{fill:url(#SVGID_00000171685329080431027030000013258964139826115998_);}
	.st4{fill:url(#SVGID_00000075129587968398112550000006327630415463293344_);}
	.st5{fill:url(#SVGID_00000098201434668790842190000011578790369978871442_);}
	.st6{fill:url(#SVGID_00000071549207472152006790000010720318055064577188_);}
	.st7{fill:#00254E;}
	.st8{fill:url(#SVGID_00000163765948231578492240000007350825135248229046_);}
	.st9{fill:url(#SVGID_00000016795402624742085580000010644685695573614740_);}
	.st10{fill:url(#SVGID_00000170998334301467884610000006473056587431452803_);}
	.st11{fill:url(#SVGID_00000013175263854628579650000014980641074661701566_);}
	.st12{fill:url(#SVGID_00000043421813584858383890000011565862197568310970_);}
	.st13{fill:url(#SVGID_00000000214172161049965680000005510868256061134482_);}
</style>
<g>
	<defs>
		<rect id="SVGID_1_" y="0" width="133" height="42"/>
	</defs>
	<clipPath id="SVGID_00000140718747171853790580000005858220514836955567_">
		<use xlink:href="#SVGID_1_"  style="overflow:visible;"/>
	</clipPath>
	<g style="clip-path:url(#SVGID_00000140718747171853790580000005858220514836955567_);">
		<path class="st1" d="M127.5,41.9H5c-2.7,0-4.9-2.4-4.9-5.2V5.3c0-2.9,2.2-5.2,4.9-5.2h122.5c2.7,0,4.9,2.4,4.9,5.2v31.3
			C132.4,39.5,130.2,41.9,127.5,41.9z"/>
		<path class="st2" d="M127.5,0.1H5c-2.7,0-4.9,2.4-4.9,5.2v31.3c0,2.9,2.2,5.2,4.9,5.2h122.5c2.7,0,4.9-2.4,4.9-5.2V5.3
			C132.4,2.5,130.2,0.1,127.5,0.1z M127.5,0.9c2.3,0,4.1,2,4.1,4.4v31.3c0,2.4-1.8,4.4-4.1,4.4H5c-2.3,0-4.1-2-4.1-4.4V5.3
			c0-2.4,1.8-4.4,4.1-4.4H127.5z"/>
		<path class="st2" d="M46.6,10.8c0,0.9-0.2,1.6-0.7,2.1c-0.6,0.6-1.3,0.9-2.2,0.9c-0.8,0-1.6-0.3-2.2-0.9c-0.6-0.6-0.9-1.4-0.9-2.3
			c0-0.9,0.3-1.7,0.9-2.3c0.6-0.6,1.3-0.9,2.2-0.9c0.4,0,0.8,0.1,1.2,0.3c0.4,0.2,0.7,0.4,0.9,0.7l-0.5,0.6C44.9,8.3,44.4,8,43.7,8
			c-0.6,0-1.2,0.2-1.6,0.7c-0.5,0.5-0.7,1.1-0.7,1.8c0,0.7,0.2,1.3,0.7,1.8c0.5,0.5,1,0.7,1.6,0.7c0.7,0,1.2-0.2,1.6-0.7
			c0.3-0.3,0.4-0.7,0.5-1.3h-2.1v-0.8h2.9C46.6,10.5,46.6,10.7,46.6,10.8z"/>
		<path class="st2" d="M46.6,10.8L46.6,10.8c-0.1,0.9-0.3,1.5-0.8,2l0,0l0,0c-0.5,0.6-1.2,0.9-2.1,0.9c-0.8,0-1.5-0.3-2.1-0.9
			c-0.6-0.6-0.9-1.4-0.9-2.3c0-0.9,0.3-1.6,0.9-2.3c0.6-0.6,1.3-0.9,2.1-0.9c0.4,0,0.8,0.1,1.2,0.3c0.4,0.2,0.7,0.4,0.9,0.7l0.1-0.1
			l-0.1-0.1l-0.5,0.6l0.1,0.1l0.1-0.1c-0.4-0.5-1-0.8-1.7-0.8c-0.6,0-1.2,0.2-1.7,0.7c-0.5,0.5-0.7,1.1-0.7,1.9
			c0,0.8,0.2,1.4,0.7,1.9c0.5,0.5,1,0.7,1.7,0.7c0.7,0,1.3-0.2,1.7-0.7c0.3-0.3,0.5-0.8,0.5-1.3l0-0.1h-2.1v-0.5h2.8v-0.1l-0.1,0
			C46.5,10.5,46.5,10.7,46.6,10.8L46.6,10.8L46.6,10.8c0.1-0.2,0.1-0.3,0.1-0.5l0-0.1h-3v0.9v0.1h2.2v-0.1l-0.1,0
			c0,0.5-0.2,0.9-0.5,1.2c-0.4,0.4-0.9,0.7-1.6,0.7c-0.6,0-1.1-0.2-1.5-0.7c-0.4-0.4-0.6-1-0.6-1.7c0-0.7,0.2-1.3,0.6-1.7
			c0.4-0.4,0.9-0.7,1.5-0.7c0.7,0,1.2,0.2,1.5,0.7l0.1,0.1l0.6-0.6L46,8.2l-0.1-0.1c-0.2-0.3-0.6-0.5-1-0.7
			c-0.4-0.2-0.8-0.3-1.2-0.3c-0.9,0-1.6,0.3-2.2,1c-0.6,0.6-0.9,1.5-0.9,2.4c0,1,0.3,1.8,0.9,2.4c0.6,0.6,1.4,1,2.2,1
			c0.9,0,1.7-0.3,2.2-1l-0.1-0.1l0.1,0.1C46.4,12.4,46.7,11.7,46.6,10.8L46.6,10.8z"/>
		<path class="st2" d="M51.1,8.2h-2.7v2h2.4v0.8h-2.4v2h2.7v0.8h-3.4V7.4h3.4V8.2z"/>
		<path class="st2" d="M51.1,8.2V8.1h-2.8v2.2h2.4v0.5l-2.4,0V13H51v0.6h-3.2V7.5H51L51.1,8.2L51.1,8.2L51.1,8.2l0.1-0.8V7.3h-3.6
			v6.5h3.6v-0.9v-0.1h-2.7V11h2.4v-0.9v-0.1h-2.4V8.3h2.7L51.1,8.2L51.1,8.2z"/>
		<path class="st2" d="M54.3,13.7h-0.8V8.2h-1.6V7.4h4v0.8h-1.6V13.7z"/>
		<path class="st2" d="M54.3,13.7v-0.1h-0.7V8.1H52V7.5h3.8v0.6h-1.6L54.3,13.7L54.3,13.7L54.3,13.7l0.1-5.4H56V7.4V7.3h-4.2v0.9
			v0.1h1.6v5.5h0.9h0.1L54.3,13.7L54.3,13.7z"/>
		<path class="st2" d="M58.9,13.7V7.4h0.8v6.3H58.9z"/>
		<path class="st2" d="M58.9,13.7L58.9,13.7L59,7.5h0.6v6.1h-0.7V13.7v0.1h0.8h0.1V7.3h-0.9h-0.1v6.5h0.1V13.7z"/>
		<path class="st2" d="M63,13.7h-0.8V8.2h-1.6V7.4h4v0.8H63V13.7z"/>
		<path class="st2" d="M63,13.7v-0.1h-0.7V8.1h-1.6V7.5h3.8v0.6h-1.6L63,13.7L63,13.7L63,13.7l0.1-5.4h1.6V7.4V7.3h-4.2v0.9v0.1h1.6
			v5.5H63h0.1L63,13.7L63,13.7z"/>
		<path class="st2" d="M68.5,12.4c0.4,0.5,1,0.7,1.6,0.7c0.6,0,1.2-0.2,1.6-0.7c0.4-0.5,0.7-1.1,0.7-1.8c0-0.7-0.2-1.3-0.7-1.8
			c-0.4-0.5-1-0.7-1.6-0.7c-0.6,0-1.2,0.2-1.6,0.7c-0.4,0.5-0.7,1.1-0.7,1.8C67.9,11.3,68.1,11.9,68.5,12.4z M72.3,12.9
			c-0.6,0.6-1.3,1-2.2,1c-0.9,0-1.6-0.3-2.2-1c-0.6-0.6-0.9-1.4-0.9-2.3c0-0.9,0.3-1.7,0.9-2.3c0.6-0.6,1.3-1,2.2-1
			c0.9,0,1.6,0.3,2.2,1c0.6,0.6,0.9,1.4,0.9,2.3C73.1,11.5,72.8,12.2,72.3,12.9z"/>
		<path class="st2" d="M68.5,12.4L68.5,12.4c0.4,0.6,0.9,0.8,1.6,0.8c0.7,0,1.2-0.2,1.7-0.7c0.5-0.5,0.7-1.1,0.7-1.9
			c0-0.8-0.2-1.4-0.7-1.9c-0.5-0.5-1-0.7-1.7-0.7c-0.7,0-1.2,0.2-1.7,0.7c-0.5,0.5-0.7,1.1-0.7,1.9C67.8,11.3,68,11.9,68.5,12.4
			L68.5,12.4L68.5,12.4c-0.3-0.5-0.6-1.1-0.6-1.8c0-0.7,0.2-1.3,0.6-1.7c0.4-0.5,0.9-0.7,1.5-0.7c0.6,0,1.1,0.2,1.5,0.7
			c0.4,0.5,0.6,1,0.6,1.7c0,0.7-0.2,1.3-0.6,1.7c-0.4,0.5-0.9,0.7-1.5,0.7C69.5,13,69,12.7,68.5,12.4L68.5,12.4z M72.3,12.9
			L72.3,12.9c-0.6,0.5-1.3,0.8-2.2,0.8c-0.8,0-1.5-0.3-2.1-0.9c-0.6-0.6-0.8-1.4-0.8-2.3c0-0.9,0.3-1.6,0.8-2.3
			c0.6-0.6,1.2-0.9,2.1-0.9c0.8,0,1.5,0.3,2.1,0.9c0.6,0.6,0.8,1.4,0.8,2.2C73,11.4,72.8,12.2,72.3,12.9L72.3,12.9L72.3,12.9
			c0.7-0.6,1-1.4,1-2.3c0-0.9-0.3-1.7-0.9-2.4c-0.6-0.7-1.3-1-2.2-1c-0.9,0-1.6,0.3-2.2,1C67.3,8.8,67,9.6,67,10.6
			c0,0.9,0.3,1.7,0.9,2.4c0.6,0.7,1.3,1,2.2,1C71,13.9,71.7,13.6,72.3,12.9L72.3,12.9z"/>
		<path class="st2" d="M74.2,13.7V7.4h0.9l2.9,4.9h0l0-1.2V7.4h0.8v6.3h-0.8l-3-5.1h0l0,1.2v3.9H74.2z"/>
		<path class="st2" d="M74.2,13.7L74.2,13.7l0.1-6.2h0.8l2.9,4.9H78h0.1l0-1.3V7.5h0.6v6.1H78l-3-5.1h-0.1h-0.1l0,1.3v3.8h-0.7V13.7
			v0.1h0.8H75v-4l0-1.2l-0.1,0v0.1h0V8.6l-0.1,0.1l3,5.2h0.8h0.1V7.3H78h-0.1v3.8l0,1.2l0.1,0v-0.1h0v0.1l0.1-0.1l-2.9-4.9h-1h-0.1
			v6.5h0.1V13.7z"/>
		<path class="st2" d="M105.1,32.4h1.8V19.4h-1.8V32.4z M121.6,24.1l-2.1,5.7h-0.1l-2.2-5.7h-2l3.3,7.9l-1.9,4.4h1.9l5-12.3H121.6z
			 M111.2,30.9c-0.6,0-1.4-0.3-1.4-1.1c0-1,1-1.4,1.9-1.4c0.8,0,1.2,0.2,1.7,0.4C113.3,30.1,112.3,30.9,111.2,30.9z M111.5,23.8
			c-1.3,0-2.7,0.6-3.3,2l1.6,0.7c0.3-0.7,1-1,1.7-1c0.9,0,1.9,0.6,1.9,1.7v0.1c-0.3-0.2-1-0.5-1.9-0.5c-1.8,0-3.5,1-3.5,2.9
			c0,1.7,1.4,2.9,3,2.9c1.2,0,1.9-0.6,2.3-1.3h0.1v1h1.8v-5C115.2,25.1,113.6,23.8,111.5,23.8z M100.2,25.7h-2.6v-4.5h2.6
			c1.4,0,2.1,1.2,2.1,2.2C102.3,24.4,101.5,25.7,100.2,25.7z M100.1,19.4h-4.4v13.1h1.8v-4.9h2.6c2,0,4-1.6,4-4.1
			C104.1,20.9,102.1,19.4,100.1,19.4z M76.2,31c-1.3,0-2.3-1.1-2.3-2.7c0-1.6,1.1-2.7,2.3-2.7c1.2,0,2.2,1.1,2.2,2.7
			C78.4,29.8,77.5,31,76.2,31z M78.3,24.8L78.3,24.8c-0.5-0.5-1.3-1-2.3-1c-2.1,0-4,2-4,4.5c0,2.5,1.9,4.4,4,4.4c1,0,1.8-0.5,2.2-1
			h0.1v0.6c0,1.7-0.9,2.6-2.2,2.6c-1.1,0-1.8-0.9-2.1-1.6l-1.6,0.7c0.5,1.2,1.7,2.6,3.7,2.6c2.1,0,4-1.3,4-4.6v-8h-1.7V24.8z
			 M81.3,32.4h1.8V19.4h-1.8V32.4z M85.8,28.1c0-1.7,1.2-2.6,2.2-2.6c0.7,0,1.3,0.4,1.5,0.9L85.8,28.1z M91.5,26.6
			c-0.3-1-1.4-2.8-3.6-2.8c-2.1,0-3.9,1.8-3.9,4.4c0,2.5,1.8,4.4,4.1,4.4c1.9,0,3-1.2,3.5-2l-1.4-1c-0.5,0.7-1.1,1.2-2.1,1.2
			c-0.9,0-1.6-0.5-2-1.3l5.6-2.5L91.5,26.6z M47.1,25.2v1.9h4.2c-0.1,1.1-0.5,1.8-1,2.4c-0.6,0.7-1.6,1.4-3.3,1.4
			c-2.6,0-4.6-2.2-4.6-5s2-5,4.6-5c1.4,0,2.4,0.6,3.2,1.3l1.2-1.3c-1.1-1.1-2.5-1.9-4.4-1.9c-3.6,0-6.6,3.1-6.6,6.9
			c0,3.8,3,6.9,6.6,6.9c1.9,0,3.4-0.7,4.5-1.9c1.2-1.2,1.5-3,1.5-4.4c0-0.4,0-0.8-0.1-1.2H47.1z M58,31c-1.3,0-2.4-1.1-2.4-2.7
			c0-1.6,1.1-2.7,2.4-2.7c1.3,0,2.4,1.1,2.4,2.7C60.3,29.8,59.2,31,58,31z M58,23.8c-2.3,0-4.2,1.9-4.2,4.4c0,2.6,1.9,4.4,4.2,4.4
			c2.3,0,4.2-1.9,4.2-4.4C62.2,25.7,60.3,23.8,58,23.8z M67.1,31c-1.3,0-2.4-1.1-2.4-2.7c0-1.6,1.1-2.7,2.4-2.7
			c1.3,0,2.4,1.1,2.4,2.7C69.5,29.8,68.4,31,67.1,31z M67.1,23.8c-2.3,0-4.2,1.9-4.2,4.4c0,2.6,1.9,4.4,4.2,4.4
			c2.3,0,4.2-1.9,4.2-4.4C71.3,25.7,69.4,23.8,67.1,23.8z"/>
		
			<linearGradient id="SVGID_00000065789362314624980170000009707580690714176137_" gradientUnits="userSpaceOnUse" x1="22.1733" y1="31.9361" x2="4.6748" y2="15.5162" gradientTransform="matrix(1 0 0 -1 0 41.8898)">
			<stop  offset="0" style="stop-color:#00A0FF"/>
			<stop  offset="6.574450e-03" style="stop-color:#00A1FF"/>
			<stop  offset="0.2601" style="stop-color:#00BEFF"/>
			<stop  offset="0.5122" style="stop-color:#00D2FF"/>
			<stop  offset="0.7604" style="stop-color:#00DFFF"/>
			<stop  offset="1" style="stop-color:#00E3FF"/>
		</linearGradient>
		<path style="fill:url(#SVGID_00000065789362314624980170000009707580690714176137_);" d="M10.4,33.9L10.4,33.9
			C10,33.5,9.9,33,9.9,32.4v0.2V9.4v0.2c0-0.7,0.2-1.2,0.5-1.5L22.5,21L10.4,33.9z"/>
		
			<linearGradient id="SVGID_00000134971374816536905360000017129286549803641987_" gradientUnits="userSpaceOnUse" x1="33.2682" y1="20.8894" x2="9.5462" y2="20.8894" gradientTransform="matrix(1 0 0 -1 0 41.8898)">
			<stop  offset="0" style="stop-color:#FFE000"/>
			<stop  offset="0.4087" style="stop-color:#FFBD00"/>
			<stop  offset="0.7754" style="stop-color:#FFA500"/>
			<stop  offset="1" style="stop-color:#FF9C00"/>
		</linearGradient>
		<path style="fill:url(#SVGID_00000134971374816536905360000017129286549803641987_);" d="M26.6,25.3l-4-4.3l4-4.3l4.9,3
			c0.6,0.4,1,0.9,1,1.4c0,0,0,0,0,0c-0.1,0.5-0.4,1-1,1.4L26.6,25.3z"/>
		
			<linearGradient id="SVGID_00000072260783455956839980000001223782904966776197_" gradientUnits="userSpaceOnUse" x1="24.3818" y1="18.5516" x2="0.6525" y2="-3.715" gradientTransform="matrix(1 0 0 -1 0 41.8898)">
			<stop  offset="0" style="stop-color:#FF3A44"/>
			<stop  offset="1" style="stop-color:#C31162"/>
		</linearGradient>
		<path style="fill:url(#SVGID_00000072260783455956839980000001223782904966776197_);" d="M11.3,34.4c-0.3,0-0.6-0.1-0.9-0.3
			C10.6,34.3,10.9,34.4,11.3,34.4C11.3,34.4,11.3,34.4,11.3,34.4C11.3,34.4,11.3,34.4,11.3,34.4z M11.3,34.3c-0.3,0-0.6-0.1-0.9-0.3
			L22.5,21l4,4.3l-14.2,8.6C12,34.2,11.6,34.3,11.3,34.3z M10.4,34.1C10.4,34.1,10.4,34.1,10.4,34.1L10.4,34.1z"/>
		
			<linearGradient id="SVGID_00000140694097266395231540000006547148097755041980_" gradientUnits="userSpaceOnUse" x1="6.105" y1="40.3767" x2="16.7011" y2="30.4338" gradientTransform="matrix(1 0 0 -1 0 41.8898)">
			<stop  offset="0" style="stop-color:#32A071"/>
			<stop  offset="6.850000e-02" style="stop-color:#2DA771"/>
			<stop  offset="0.4762" style="stop-color:#15CF74"/>
			<stop  offset="0.8009" style="stop-color:#06E775"/>
			<stop  offset="1" style="stop-color:#00F076"/>
		</linearGradient>
		<path style="fill:url(#SVGID_00000140694097266395231540000006547148097755041980_);" d="M22.5,21L10.4,8.1
			c0.2-0.2,0.5-0.3,0.9-0.3c0.3,0,0.7,0.1,1.1,0.4l14.2,8.6L22.5,21z M12.4,7.9c-0.4-0.2-0.8-0.4-1.1-0.4c0,0,0,0,0,0c0,0,0,0,0,0
			C11.6,7.6,12,7.7,12.4,7.9z"/>
		<path class="st7" d="M10.4,34.1L10.4,34.1C10.4,34.1,10.4,34.1,10.4,34.1z M10.3,34L10.3,34C10.3,34,10.3,34,10.3,34z"/>
		
			<linearGradient id="SVGID_00000054947728810954593770000011974259358473313948_" gradientUnits="userSpaceOnUse" x1="24.8117" y1="18.0914" x2="1.0824" y2="-4.1752" gradientTransform="matrix(1 0 0 -1 0 41.8898)">
			<stop  offset="0" style="stop-color:#CC2E36"/>
			<stop  offset="1" style="stop-color:#9C0E4E"/>
		</linearGradient>
		<path style="fill:url(#SVGID_00000054947728810954593770000011974259358473313948_);" d="M11.3,34.4c-0.3,0-0.6-0.1-0.9-0.3
			c0,0,0,0,0,0L10.3,34c0,0,0,0,0,0l0.1-0.1c0.2,0.2,0.5,0.3,0.9,0.3c0.3,0,0.7-0.1,1.1-0.4l14.2-8.6l0.1,0.1l-0.1,0.1l-14.2,8.6
			C12,34.3,11.7,34.4,11.3,34.4C11.3,34.4,11.3,34.4,11.3,34.4z"/>
		
			<linearGradient id="SVGID_00000093889614832780695760000005047697129553236637_" gradientUnits="userSpaceOnUse" x1="28.1268" y1="25.5912" x2="10.6282" y2="9.1713" gradientTransform="matrix(1 0 0 -1 0 41.8898)">
			<stop  offset="0" style="stop-color:#008DE0"/>
			<stop  offset="6.574450e-03" style="stop-color:#008DE0"/>
			<stop  offset="0.2601" style="stop-color:#00A7E0"/>
			<stop  offset="0.5122" style="stop-color:#00B8E0"/>
			<stop  offset="0.7604" style="stop-color:#00C4E0"/>
			<stop  offset="1" style="stop-color:#00C7E0"/>
		</linearGradient>
		<path style="fill:url(#SVGID_00000093889614832780695760000005047697129553236637_);" d="M10.3,34c-0.3-0.3-0.5-0.8-0.5-1.5v-0.2
			c0,0.6,0.2,1.1,0.5,1.5V34L10.3,34z"/>
		<path class="st7" d="M32.4,21.5c0.1-0.2,0.1-0.4,0.1-0.5v0C32.5,21.2,32.5,21.4,32.4,21.5z"/>
		
			<linearGradient id="SVGID_00000088848769661633131730000017645208477907545262_" gradientUnits="userSpaceOnUse" x1="33.2696" y1="18.6817" x2="9.5475" y2="18.6817" gradientTransform="matrix(1 0 0 -1 0 41.8898)">
			<stop  offset="0" style="stop-color:#E0C500"/>
			<stop  offset="0.4087" style="stop-color:#E0A600"/>
			<stop  offset="0.7754" style="stop-color:#E09100"/>
			<stop  offset="1" style="stop-color:#E08900"/>
		</linearGradient>
		<path style="fill:url(#SVGID_00000088848769661633131730000017645208477907545262_);" d="M26.7,25.4L26.7,25.4l4.8-3.1
			c0.6-0.4,1-0.9,1-1.4c0,0.2,0,0.4-0.1,0.5c-0.2,0.4-0.5,0.7-0.9,1L26.7,25.4z"/>
		<path class="st7" d="M32.5,21c0-0.5-0.3-1.1-1-1.5C32.2,19.9,32.5,20.5,32.5,21z"/>
		
			<linearGradient id="SVGID_00000178204697539161083530000001377092529098506631_" gradientUnits="userSpaceOnUse" x1="33.2699" y1="23.0958" x2="9.5479" y2="23.0958" gradientTransform="matrix(1 0 0 -1 0 41.8898)">
			<stop  offset="0" style="stop-color:#FFE840"/>
			<stop  offset="0.4087" style="stop-color:#FFCE40"/>
			<stop  offset="0.7754" style="stop-color:#FFBC40"/>
			<stop  offset="1" style="stop-color:#FFB540"/>
		</linearGradient>
		<path style="fill:url(#SVGID_00000178204697539161083530000001377092529098506631_);" d="M32.5,21c-0.1-0.5-0.4-1-1-1.4l-4.9-3
			l0.1-0.1l4.8,2.9C32.2,19.9,32.5,20.5,32.5,21z"/>
		<path class="st7" d="M9.9,9.3c0.1-1.1,0.6-1.7,1.4-1.7c-0.3,0-0.6,0.1-0.9,0.3l0,0c0,0,0,0-0.1,0.1C10.1,8.3,9.9,8.7,9.9,9.3z"/>
		
			<linearGradient id="SVGID_00000103977278346822993240000010886516167183909544_" gradientUnits="userSpaceOnUse" x1="15.9386" y1="38.5809" x2="-1.5599" y2="22.1612" gradientTransform="matrix(1 0 0 -1 0 41.8898)">
			<stop  offset="0" style="stop-color:#40B8FF"/>
			<stop  offset="6.574450e-03" style="stop-color:#40B9FF"/>
			<stop  offset="0.2601" style="stop-color:#40CEFF"/>
			<stop  offset="0.5122" style="stop-color:#40DDFF"/>
			<stop  offset="0.7604" style="stop-color:#40E7FF"/>
			<stop  offset="1" style="stop-color:#40EAFF"/>
		</linearGradient>
		<path style="fill:url(#SVGID_00000103977278346822993240000010886516167183909544_);" d="M9.9,9.6V9.4c0,0,0,0,0,0v0
			c0-0.1,0-0.1,0-0.2v0l0,0c0,0,0,0,0,0v0c0-0.6,0.2-1,0.4-1.3l0.1,0.1C10.1,8.4,9.9,8.9,9.9,9.6z M10.4,7.9L10.4,7.9
			C10.4,7.9,10.4,7.9,10.4,7.9z"/>
		
			<linearGradient id="SVGID_00000114785809792734604240000015828250614733759907_" gradientUnits="userSpaceOnUse" x1="6.534" y1="40.837" x2="17.1301" y2="30.894" gradientTransform="matrix(1 0 0 -1 0 41.8898)">
			<stop  offset="0" style="stop-color:#65B895"/>
			<stop  offset="6.850000e-02" style="stop-color:#62BD95"/>
			<stop  offset="0.4762" style="stop-color:#50DB97"/>
			<stop  offset="0.8009" style="stop-color:#44ED98"/>
			<stop  offset="1" style="stop-color:#40F498"/>
		</linearGradient>
		<path style="fill:url(#SVGID_00000114785809792734604240000015828250614733759907_);" d="M26.6,16.7L12.4,8.1
			c-0.4-0.2-0.8-0.4-1.1-0.4c-0.3,0-0.6,0.1-0.9,0.3L10.3,8c0,0,0,0,0.1-0.1c0,0,0,0,0,0c0.2-0.2,0.5-0.3,0.9-0.3c0,0,0,0,0,0
			c0,0,0,0,0,0c0.3,0,0.7,0.1,1.1,0.4L26.6,16.7L26.6,16.7z"/>
	</g>
</g>
</svg>
