<svg width="1896" height="282" viewBox="0 0 1896 282" fill="none" xmlns="http://www.w3.org/2000/svg">
<g opacity="0.15">
<path d="M727.237 184.577C723.948 184.577 720.734 185.552 718 187.379C715.266 189.206 713.135 191.802 711.877 194.84C710.619 197.878 710.289 201.221 710.931 204.446C711.572 207.671 713.156 210.633 715.481 212.958C717.806 215.283 720.768 216.867 723.993 217.508C727.218 218.15 730.561 217.82 733.599 216.562C736.637 215.304 739.233 213.173 741.06 210.439C742.887 207.705 743.862 204.491 743.862 201.202C743.857 196.795 742.104 192.568 738.987 189.452C735.871 186.335 731.644 184.582 727.237 184.577ZM732.765 211.619L734.121 207.562L738.634 205.755V212.183L732.765 211.619ZM715.839 212.183V205.755L720.352 207.562L721.708 211.619L715.839 212.183ZM721.708 190.786L720.352 194.843L715.839 196.65V190.222L721.708 190.786ZM738.634 190.222V196.65L734.121 194.843L732.765 190.786L738.634 190.222ZM733.622 207.054L727.237 209.016L720.852 207.054L718.416 201.202L720.852 195.351L727.237 193.389L733.622 195.351L736.057 201.202L733.622 207.054ZM732.142 211.447L728.097 209.425L733.351 207.811L732.142 211.447ZM722.332 211.447L721.118 207.811L726.376 209.425L722.332 211.447ZM718.029 200.501L716.015 197.283L720.043 195.674L718.029 200.501ZM718.029 201.904L720.043 206.731L716.015 205.122L718.029 201.904ZM722.332 190.958L726.376 192.98L721.118 194.594L722.332 190.958ZM732.142 190.958L733.355 194.594L728.097 192.98L732.142 190.958ZM736.466 201.904L738.479 205.122L734.452 206.731L736.466 201.904ZM736.466 200.501L734.452 195.674L738.479 197.283L736.466 200.501ZM727.237 192.688L722.667 190.403L727.237 185.377L731.806 190.403L727.237 192.688ZM715.447 197.623L717.685 201.202L715.447 204.782L711.416 201.202L715.447 197.623ZM727.237 209.717L731.806 212.002L727.237 217.027L722.667 212.002L727.237 209.717ZM739.026 204.782L736.788 201.202L739.026 197.623L743.057 201.202L739.026 204.782ZM739.516 197.192L742.257 195.747C742.812 197.267 743.13 198.863 743.199 200.48L739.516 197.192ZM739.284 196.59V190.713C740.435 192.029 741.361 193.527 742.025 195.144L739.284 196.59ZM732.83 190.136L734.082 186.759C735.61 187.487 737.014 188.451 738.243 189.615L732.83 190.136ZM732.232 189.895L727.985 185.24C729.875 185.326 731.734 185.749 733.475 186.488L732.232 189.895ZM722.276 189.895L720.998 186.488C722.739 185.749 724.598 185.326 726.488 185.24L722.276 189.895ZM721.643 190.132L716.248 189.611C717.476 188.447 718.88 187.483 720.408 186.754L721.643 190.132ZM715.189 196.586L712.449 195.14C713.113 193.524 714.039 192.028 715.189 190.713V196.586ZM714.953 197.188L711.274 200.467C711.344 198.85 711.661 197.254 712.216 195.734L714.953 197.188ZM714.953 205.208L712.212 206.654C711.657 205.134 711.339 203.538 711.27 201.921L714.953 205.208ZM715.189 205.81V211.692C714.039 210.375 713.113 208.878 712.449 207.26L715.189 205.81ZM721.643 212.264L720.391 215.642C718.863 214.914 717.459 213.949 716.231 212.785L721.643 212.264ZM722.241 212.505L726.488 217.165C724.598 217.079 722.739 216.656 720.998 215.917L722.241 212.505ZM732.198 212.505L733.475 215.917C731.734 216.656 729.875 217.079 727.985 217.165L732.198 212.505ZM732.83 212.273L738.243 212.794C737.014 213.958 735.61 214.922 734.082 215.651L732.83 212.273ZM739.284 205.819L742.025 207.265C741.36 208.881 740.434 210.377 739.284 211.692V205.819ZM739.521 205.217L743.204 201.942C743.134 203.559 742.816 205.155 742.261 206.675L739.521 205.217Z" fill="#999CA1"/>
<g clip-path="url(#clip0_3902_68512)">
<path d="M727.57 60.8682C717.502 60.8682 712.607 66.6767 712.607 78.5841C712.607 90.4916 717.502 96.3001 727.57 96.3001C737.638 96.3001 742.533 90.5071 742.533 78.5841C742.533 66.6612 737.638 60.8682 727.57 60.8682ZM740.999 86.3559L737.735 86.5224L741.94 79.6374C741.912 81.9077 741.596 84.1653 740.999 86.3559ZM713.2 79.6374L717.405 86.5224L714.141 86.3559C713.544 84.1653 713.228 81.9077 713.2 79.6374ZM714.141 70.8123L717.405 70.6458L713.2 77.5309C713.228 75.2605 713.544 73.003 714.141 70.8123ZM741.94 77.5309L737.735 70.6458L740.999 70.8123C741.596 73.003 741.912 75.2605 741.94 77.5309ZM736.573 78.5841L737.394 71.2267L741.898 78.5841L737.387 85.9416L736.573 78.5841ZM734.196 87.1033L727.57 89.7365L720.945 87.1033L719.156 78.5841L720.945 70.0843L727.57 67.4318L734.196 70.0843L735.985 78.6035L734.196 87.1033ZM723.121 92.8073L721.185 87.8119L726.947 90.1353L723.121 92.8073ZM727.57 90.4025L731.625 93.241L727.57 95.6728L723.516 93.241L727.57 90.4025ZM732.019 92.8073L728.178 90.1198L733.94 87.7964L732.019 92.8073ZM717.746 85.9609L713.242 78.5841L717.746 71.2267L718.567 78.5841L717.746 85.9609ZM718.946 76.7525L718.277 70.5723L720.337 70.2276L718.946 76.7525ZM718.946 80.4158L720.321 86.9407L718.277 86.596L718.946 80.4158ZM732.019 64.361L733.956 69.3563L728.194 67.0329L732.019 64.361ZM727.57 66.7657L723.516 63.9273L727.57 61.4955L731.625 63.9273L727.57 66.7657ZM723.121 64.361L726.962 67.0484L721.2 69.3718L723.121 64.361ZM736.194 76.7525L734.819 70.2276L736.879 70.5723L736.194 76.7525ZM736.194 80.4158L736.879 86.6115L734.819 86.9561L736.194 80.4158ZM736.937 69.9914L734.66 69.6042L732.604 64.2565L737.352 64.7211L736.937 69.9914ZM732.744 63.6756L733.801 62.4713C734.838 62.86 735.813 63.3989 736.693 64.0706L732.744 63.6756ZM732.097 63.5362L728.666 61.4761C730.211 61.5273 731.741 61.7879 733.216 62.2506L732.097 63.5362ZM723.043 63.5362L721.924 62.2583C723.399 61.7956 724.93 61.5351 726.474 61.4839L723.043 63.5362ZM722.397 63.6756L718.447 64.0628C719.328 63.3911 720.302 62.8523 721.34 62.4636L722.397 63.6756ZM722.536 64.2565L720.48 69.6119L718.203 69.9991L717.789 64.7211L722.536 64.2565ZM718.203 87.1769L720.48 87.5641L722.536 92.9118L717.789 92.4471L718.203 87.1769ZM722.397 93.4927L721.34 94.697C720.302 94.3082 719.328 93.7694 718.447 93.0977L722.397 93.4927ZM723.043 93.6321L726.474 95.6921C724.93 95.6409 723.399 95.3804 721.924 94.9177L723.043 93.6321ZM732.097 93.6321L733.216 94.9099C731.741 95.3727 730.211 95.6332 728.666 95.6844L732.097 93.6321ZM732.744 93.4927L736.693 93.1054C735.813 93.7771 734.838 94.316 733.801 94.7047L732.744 93.4927ZM732.604 92.9118L734.668 87.5447L736.945 87.1575L737.352 92.4471L732.604 92.9118ZM740.817 70.2199L737.514 70.065L737.902 65.1587C739.244 66.6031 740.241 68.3337 740.817 70.2199ZM717.239 65.1471L717.626 70.0534L714.323 70.2199C714.897 68.3296 715.894 66.5948 717.239 65.1471ZM714.323 86.9484L717.626 87.1149L717.239 92.0212C715.894 90.5735 714.897 88.8387 714.323 86.9484ZM737.902 92.0212L737.514 87.1033L740.817 86.9368C740.245 88.8312 739.247 90.5701 737.902 92.0212Z" fill="#999CA1"/>
</g>
<g clip-path="url(#clip1_3902_68512)">
<path d="M870.679 0C863.527 0 857.711 8.35166 857.711 18.6203C857.711 28.8889 863.527 37.2406 870.679 37.2406C877.83 37.2406 883.646 28.8889 883.646 18.6203C883.646 8.35166 877.83 0 870.679 0ZM879.392 22.6415L877.657 18.6203L879.392 14.5991L882.94 18.6203L879.392 22.6415ZM875.094 25.2748L870.679 27.44L866.263 25.2748L864.346 18.6203L866.263 11.9658L870.679 9.80058L875.094 11.9658L877.011 18.6203L875.094 25.2748ZM866.953 30.0977L866.388 26.0277L870.089 27.8429L866.953 30.0977ZM870.679 28.1523L874.226 30.7204L870.679 36.3655L867.131 30.7204L870.679 28.1523ZM874.404 30.0977L871.268 27.8267L874.969 26.0114L874.404 30.0977ZM861.965 22.6415L858.417 18.6203L861.965 14.5991L863.7 18.6203L861.965 22.6415ZM863.983 17.7249L862.445 14.1718L865.513 12.3932L863.983 17.7249ZM863.983 19.5157L865.513 24.8474L862.437 23.0688L863.983 19.5157ZM874.404 7.14287L874.969 11.2129L871.268 9.39765L874.404 7.14287ZM870.679 9.08833L867.131 6.52015L870.679 0.875052L874.226 6.52015L870.679 9.08833ZM866.953 7.14287L870.089 9.41393L866.388 11.2292L866.953 7.14287ZM877.382 17.7249L875.845 12.3932L878.92 14.1718L877.382 17.7249ZM877.382 19.5157L878.92 23.0688L875.845 24.8474L877.382 19.5157ZM879.752 14.0904L882.238 12.2426C882.709 14.061 882.975 15.9275 883.029 17.8063L879.752 14.0904ZM879.675 13.3863L880.28 7.28125C881.036 8.64789 881.636 10.0966 882.068 11.5995L879.675 13.3863ZM879.049 13.5409L875.627 11.5629L874.981 6.89053L879.735 6.65854L879.049 13.5409ZM874.472 5.77127L871.244 0.630852C872.624 0.733432 873.962 1.15095 875.159 1.85185L874.472 5.77127ZM866.885 5.77127L866.199 1.83964C867.395 1.13874 868.734 0.721222 870.114 0.618641L866.885 5.77127ZM865.73 11.5629L862.308 13.5409L861.622 6.65854L866.376 6.89053L865.73 11.5629ZM861.694 13.3863L859.301 11.6117C859.733 10.1088 860.333 8.6601 861.089 7.29346L861.694 13.3863ZM861.618 14.0904L858.328 17.8063C858.388 15.9283 858.659 14.0631 859.136 12.2467L861.618 14.0904ZM861.618 23.1502L859.132 24.998C858.656 23.18 858.387 21.3135 858.328 19.4343L861.618 23.1502ZM861.694 23.8543L861.089 29.9593C860.333 28.5927 859.733 27.144 859.301 25.6411L861.694 23.8543ZM862.32 23.6997L865.743 25.6777L866.388 30.3501L861.634 30.5821L862.32 23.6997ZM866.885 31.4693L870.114 36.6097C868.734 36.5072 867.395 36.0896 866.199 35.3887L866.885 31.4693ZM874.472 31.4693L875.159 35.4009C873.962 36.1018 872.624 36.5194 871.244 36.6219L874.472 31.4693ZM875.627 25.6777L879.049 23.6997L879.735 30.5821L874.981 30.3501L875.627 25.6777ZM879.663 23.8543L882.056 25.6288C881.624 27.1318 881.024 28.5805 880.268 29.9471L879.663 23.8543ZM879.739 23.1502L883.029 19.4343C882.969 21.3123 882.698 23.1775 882.222 24.9939L879.739 23.1502ZM879.513 6.05617L874.989 6.27595L875.716 2.17746C877.23 3.20027 878.526 4.51922 879.526 6.05617H879.513ZM865.642 2.17746L866.356 6.27595L861.832 6.05617C862.832 4.51922 864.127 3.20027 865.642 2.17746ZM861.832 31.1844L866.356 30.9646L865.642 35.0631C864.127 34.0403 862.832 32.7214 861.832 31.1844ZM875.716 35.0631L875.001 30.9646L879.526 31.1844C878.526 32.7214 877.23 34.0403 875.716 35.0631Z" fill="#999CA1"/>
</g>
<path d="M1040.93 36.5756H1023.64C1021.53 34.4718 1020.34 33.277 1018.23 31.1732V6.73249C1020.34 4.62866 1021.53 3.4339 1023.64 1.33008H1040.93C1043.04 3.4339 1044.23 4.62866 1046.34 6.73249V31.1732C1044.23 33.277 1043.04 34.4718 1040.93 36.5756Z" stroke="#999CA1" stroke-width="0.567079" stroke-miterlimit="10" stroke-linecap="round" stroke-linejoin="round"/>
<path d="M1039.27 33.1986H1025.27C1023.56 31.4844 1022.62 30.5493 1020.91 28.8351V9.06954C1022.62 7.35531 1023.56 6.42028 1025.27 4.70605H1039.27C1040.99 6.42028 1041.92 7.35531 1043.64 9.06954V28.8351C1041.95 30.5493 1040.99 31.5103 1039.27 33.1986Z" stroke="#999CA1" stroke-width="0.567079" stroke-miterlimit="10" stroke-linecap="round" stroke-linejoin="round"/>
<path d="M1036.83 28.1866H1027.76C1026.67 27.0958 1026.05 26.4724 1024.93 25.3556V12.5508C1026.02 11.4599 1026.65 10.8366 1027.76 9.71973H1036.83C1037.92 10.8106 1038.54 11.4339 1039.66 12.5508V25.3556C1038.54 26.4724 1037.92 27.0958 1036.83 28.1866Z" stroke="#999CA1" stroke-width="0.567079" stroke-miterlimit="10" stroke-linecap="round" stroke-linejoin="round"/>
<path d="M1023.64 1.35645L1027.74 9.7198" stroke="#999CA1" stroke-width="0.567079" stroke-miterlimit="10" stroke-linecap="round" stroke-linejoin="round"/>
<path d="M1040.94 36.5758L1036.83 28.1865L1032.29 36.5758L1027.74 28.1865L1023.64 36.5758" stroke="#999CA1" stroke-width="0.567079" stroke-miterlimit="10" stroke-linecap="round" stroke-linejoin="round"/>
<path d="M1036.83 28.1867L1046.34 31.1736L1039.64 25.3556L1046.34 18.9662L1039.64 12.5509L1046.34 6.73289L1036.83 9.7198L1040.94 1.35645" stroke="#999CA1" stroke-width="0.567079" stroke-miterlimit="10" stroke-linecap="round" stroke-linejoin="round"/>
<path d="M1027.74 28.1867L1018.23 31.1736L1024.94 25.3556L1018.23 18.9662L1024.94 12.5509L1018.23 6.73289L1027.74 9.7198L1032.29 1.35645L1036.83 9.7198" stroke="#999CA1" stroke-width="0.567079" stroke-miterlimit="10" stroke-linecap="round" stroke-linejoin="round"/>
<path d="M1184.92 68.2613L1178.96 62.2991L1178.72 62.1982H1158.08L1157.83 62.2991L1151.87 68.2613L1151.77 68.5044V89.1426L1151.87 89.3857L1157.83 95.3479L1158.08 95.4488H1178.72L1178.96 95.3479L1184.92 89.3857L1185.02 89.1426V68.5044L1184.92 68.2613ZM1177.01 91.3807L1169.67 89.1701L1177.01 87.3953V91.3807ZM1177.05 86.6752L1168.38 88.7803L1159.71 86.6752L1158.41 78.8097L1159.71 70.9443L1168.38 68.8392L1177.05 70.9443L1178.36 78.8097L1177.05 86.6752ZM1167.08 89.1701L1159.74 91.3807V87.3953L1167.08 89.1701ZM1157.96 77.3009L1155.84 70.293L1159.02 70.9351L1157.96 77.3009ZM1157.96 80.3186L1159.02 86.6844L1155.84 87.3265L1157.96 80.3186ZM1159.76 66.2388L1167.09 68.4493L1159.76 70.2242V66.2388ZM1169.69 68.4493L1177.03 66.2388V70.2242L1169.69 68.4493ZM1178.81 80.3186L1180.92 87.3265L1177.75 86.6844L1178.81 80.3186ZM1178.81 77.3009L1177.75 70.9351L1180.92 70.293L1178.81 77.3009ZM1177.7 70.2426V66.6057L1180.72 69.6372L1177.7 70.2426ZM1168.38 68.1237L1161.74 66.1195H1175.04L1168.38 68.1237ZM1159.07 70.2426L1156.05 69.6372L1159.07 66.6102V70.2426ZM1157.7 78.8097L1155.69 85.4507V72.1505L1157.7 78.8097ZM1159.07 87.3769V91.0138L1156.05 87.9823L1159.07 87.3769ZM1168.38 89.4958L1175.02 91.5H1161.72L1168.38 89.4958ZM1177.7 87.3769L1180.72 87.9823L1177.7 91.0092V87.3769ZM1179.07 78.8097L1181.07 72.1688V85.469L1179.07 78.8097ZM1181.5 69.4354L1177.76 65.693L1178.82 63.1247L1184.07 68.3714L1181.5 69.4354ZM1177.12 65.4316H1159.64L1158.58 62.8587H1178.19L1177.12 65.4316ZM1159.01 65.693L1155.27 69.4354L1152.7 68.3714L1157.94 63.1247L1159.01 65.693ZM1155 70.0683V87.5512L1152.43 88.6152V69.0043L1155 70.0683ZM1155.27 88.1841L1159.01 91.9265L1157.94 94.4948L1152.7 89.2481L1155.27 88.1841ZM1159.64 92.1879H1177.12L1178.19 94.7608H1158.58L1159.64 92.1879ZM1177.76 91.9265L1181.5 88.1841L1184.07 89.2481L1178.82 94.4948L1177.76 91.9265ZM1181.76 87.5512V70.0683L1184.33 69.0043V88.6152L1181.76 87.5512Z" fill="#999CA1"/>
<g clip-path="url(#clip2_3902_68512)">
<path d="M1168.43 182.582C1159.71 182.582 1155.1 187.196 1155.1 195.932C1155.1 208.89 1168.11 219.717 1168.24 219.823H1168.65C1168.76 219.704 1181.77 208.878 1181.77 195.932C1181.77 187.196 1177.16 182.582 1168.43 182.582ZM1168.43 209.506L1163.4 204.928L1161.27 196.421L1163.36 190.849L1168.43 189.002L1173.51 190.853L1175.6 196.421L1173.47 204.928L1168.43 209.506ZM1162.84 205.254L1164.11 211.585L1159.09 207.663V201.912L1162.84 205.254ZM1160.95 195.524L1159.22 190.918H1162.68L1160.95 195.524ZM1160.87 197.326L1162.59 204.207L1159.15 201.153L1160.87 197.326ZM1164.78 211.829L1163.61 205.943L1167.93 209.872L1164.78 211.829ZM1172.12 187.164L1173.22 190.082L1169.21 188.631L1172.12 187.164ZM1168.43 188.334L1165.09 186.666L1168.43 183.32L1171.78 186.666L1168.43 188.334ZM1164.74 187.176L1167.66 188.631L1163.64 190.095L1164.74 187.176ZM1176 197.334L1177.71 201.153L1174.28 204.207L1176 197.334ZM1175.92 195.524L1174.18 190.918H1177.65L1175.92 195.524ZM1173.26 205.943L1172.1 211.829L1168.94 209.872L1173.26 205.943ZM1174.02 205.254L1177.78 201.912V207.663L1172.76 211.585L1174.02 205.254ZM1176.25 196.392L1178.16 191.277L1181.11 195.932L1178.13 200.587L1176.25 196.392ZM1173.96 190.307L1172.68 186.919L1176.38 185.391L1177.69 190.307H1173.96ZM1172.37 186.389L1169.18 183.206C1171.87 183.295 1174.14 183.874 1175.93 184.926L1172.37 186.389ZM1164.5 186.389L1160.94 184.926C1162.73 183.874 1164.99 183.295 1167.68 183.206L1164.5 186.389ZM1164.18 186.919L1162.91 190.307H1159.16L1160.49 185.391L1164.18 186.919ZM1158.71 191.293L1160.62 196.392L1158.73 200.587L1155.76 195.932L1158.71 191.293ZM1158.3 201.076L1156.52 201.61C1156.1 200.119 1155.83 198.588 1155.73 197.04L1158.3 201.076ZM1158.47 201.638V206.53C1157.76 205.128 1157.17 203.669 1156.7 202.168L1158.47 201.638ZM1164.07 212.326L1162.84 213.256C1161.77 211.919 1160.78 210.516 1159.87 209.057L1164.07 212.326ZM1168.43 210.28L1171.89 212.441L1168.43 218.926L1164.98 212.441L1168.43 210.28ZM1176.99 209.057C1176.1 210.516 1175.11 211.918 1174.04 213.256L1172.82 212.326L1176.99 209.057ZM1178.39 201.638L1180.17 202.172C1179.7 203.672 1179.1 205.129 1178.39 206.53V201.638ZM1178.56 201.052L1181.13 197.016C1181.03 198.563 1180.77 200.095 1180.34 201.585L1178.56 201.052ZM1181.13 194.819L1178.37 190.486L1177.1 185.704C1179.56 187.649 1180.93 190.714 1181.13 194.823V194.819ZM1159.77 185.704L1158.5 190.486L1155.74 194.823C1155.94 190.714 1157.31 187.649 1159.77 185.704ZM1163.22 213.733L1164.47 212.791L1167.32 218.18C1165.86 216.786 1164.49 215.301 1163.22 213.733ZM1169.52 218.18L1172.37 212.791L1173.63 213.733C1172.36 215.301 1170.98 216.786 1169.52 218.18Z" fill="#999CA1"/>
</g>
<g clip-path="url(#clip3_3902_68512)">
<path d="M952.639 118.432H952.255C946.517 123.022 942.951 130.158 942.951 137.052C942.951 143.946 946.517 151.081 952.255 155.672H952.639C958.378 151.081 961.943 143.946 961.943 137.052C961.943 130.158 958.378 123.022 952.639 118.432ZM952.447 147.777L949.813 145.584L947.444 137.052L949.813 128.52L952.447 126.327L955.082 128.52L957.45 137.052L955.082 145.584L952.447 147.777ZM952.039 125.885L950.033 127.556L950.699 124.215L952.039 125.885ZM949.261 128.193L945.994 131.461L946.055 127.152L950.058 124.219L949.261 128.193ZM947.138 138.155L948.959 144.718L946.043 141.802L947.138 138.155ZM947.138 135.949L946.043 132.302L948.959 129.386L947.138 135.949ZM946.807 137.052L945.606 141.063L943.601 137.052L945.606 133.041L946.807 137.052ZM949.257 145.911L950.054 149.881L946.051 146.948L945.994 142.639L949.257 145.911ZM950.679 149.889L950.013 146.548L952.039 148.218L950.679 149.889ZM957.777 138.155L958.872 141.802L955.956 144.718L957.777 138.155ZM957.777 135.949L955.956 129.386L958.872 132.302L957.777 135.949ZM955.633 128.189L954.836 124.219L958.839 127.152L958.9 131.461L955.633 128.189ZM954.212 124.211L954.898 127.556L952.856 125.885L954.212 124.211ZM954.898 146.548L954.232 149.889L952.856 148.218L954.898 146.548ZM955.653 145.911L958.921 142.643L958.859 146.952L954.857 149.885L955.653 145.911ZM958.104 137.052L959.305 133.041L961.294 137.052L959.288 141.063L958.104 137.052ZM959.648 132.351L960.616 131.853C960.943 133.093 961.157 134.36 961.257 135.639L959.648 132.351ZM959.517 131.742L959.468 128.475C959.856 129.382 960.189 130.313 960.465 131.26L959.517 131.742ZM954.898 123.496L955.968 122.63C956.801 123.668 957.55 124.77 958.21 125.926L954.898 123.496ZM952.447 125.436L950.862 123.455L952.447 119.489L954.032 123.447L952.447 125.436ZM946.696 125.926C947.356 124.77 948.106 123.668 948.939 122.63L949.997 123.496L946.696 125.926ZM945.377 131.742L944.43 131.252C944.705 130.307 945.038 129.38 945.426 128.475L945.377 131.742ZM945.263 132.371L943.629 135.639C943.732 134.36 943.949 133.093 944.279 131.853L945.263 132.371ZM945.263 141.765L944.279 142.251C943.952 141.011 943.737 139.744 943.637 138.465L945.263 141.765ZM945.377 142.394L945.426 145.662C945.038 144.754 944.705 143.824 944.43 142.876L945.377 142.394ZM949.997 150.608L948.926 151.474C948.094 150.436 947.344 149.333 946.684 148.178L949.997 150.608ZM952.447 148.668L954.032 150.649L952.447 154.614L950.862 150.657L952.447 148.668ZM958.198 148.178C957.538 149.333 956.788 150.436 955.956 151.474L954.898 150.608L958.198 148.178ZM959.517 142.382L960.465 142.852C960.189 143.797 959.856 144.724 959.468 145.629L959.517 142.382ZM959.631 141.753L961.265 138.486C961.161 139.758 960.944 141.018 960.616 142.251L959.631 141.753ZM955.547 122.148L954.497 123.002L953.195 119.714C954.04 120.472 954.832 121.288 955.563 122.157L955.547 122.148ZM951.683 119.698L950.364 122.994L949.315 122.14C950.052 121.277 950.849 120.466 951.7 119.714L951.683 119.698ZM949.315 151.931L950.364 151.077L951.683 154.373C950.844 153.62 950.058 152.81 949.331 151.947L949.315 151.931ZM953.178 154.382L954.497 151.086L955.547 151.939C954.821 152.81 954.035 153.629 953.195 154.39L953.178 154.382Z" fill="#999CA1"/>
</g>
<path d="M1047.83 244.46H1016.57L1016.24 244.79V276.051L1016.57 276.38H1047.83L1048.16 276.051V244.79L1047.83 244.46ZM1047.5 266.861H1044.52V253.98H1047.51L1047.5 266.861ZM1016.9 253.98H1019.88V266.861H1016.9V253.98ZM1025.76 248.921L1031.28 251.041L1025.76 253.166V248.921ZM1022.47 260.42L1020.55 265.418V255.423L1022.47 260.42ZM1020.71 253.98H1024.96L1022.82 259.501L1020.71 253.98ZM1022.83 261.34L1024.96 266.861H1020.7L1022.83 261.34ZM1025.77 267.674L1031.29 269.799L1025.76 271.92L1025.77 267.674ZM1025.69 266.935L1023.18 260.42L1025.69 253.905L1032.2 251.397L1038.72 253.905L1041.22 260.42L1038.72 266.935L1032.2 269.443L1025.69 266.935ZM1038.65 253.166L1033.12 251.041L1038.64 248.921L1038.65 253.166ZM1038.65 267.683V271.928L1033.12 269.799L1038.65 267.683ZM1041.59 261.348L1043.71 266.869H1039.45L1041.59 261.348ZM1041.94 260.429L1043.86 255.432V265.418L1041.94 260.429ZM1041.59 259.51L1039.45 253.98H1043.7L1041.59 259.51ZM1032.2 250.689L1027.2 248.767H1037.2L1032.2 250.689ZM1025.1 253.329H1019.93L1017.13 245.41L1025.1 248.692V253.329ZM1025.1 267.529V272.179L1017.13 275.461L1019.93 267.542L1025.1 267.529ZM1032.2 270.169L1037.2 272.091H1027.2L1032.2 270.169ZM1039.3 267.529H1044.47L1047.27 275.448L1039.3 272.179V267.529ZM1039.3 253.329V248.661L1047.27 245.379L1044.47 253.298L1039.3 253.329ZM1039.3 247.953V245.12H1046.16L1039.3 247.953ZM1038.64 248.116H1025.76V245.12H1038.64V248.116ZM1025.1 247.953L1018.24 245.129H1025.1V247.953ZM1019.23 253.32H1016.9V246.721L1019.23 253.32ZM1016.9 267.521H1019.23L1016.9 274.119V267.521ZM1025.1 272.896V275.721H1018.24L1025.1 272.896ZM1025.76 272.734H1038.64V275.721H1025.76V272.734ZM1039.3 272.896L1046.16 275.721H1039.3V272.896ZM1045.17 267.521H1047.5V274.119L1045.17 267.521ZM1047.5 253.32H1045.17L1047.5 246.721V253.32Z" fill="#999CA1"/>
<path d="M880.945 276.38H859.744C857.66 274.295 856.469 273.104 854.385 271.02V249.82C856.469 247.735 857.66 246.544 859.744 244.46H880.945C883.029 246.544 884.22 247.735 886.304 249.82V271.02C884.19 273.104 883.029 274.265 880.945 276.38Z" stroke="#999CA1" stroke-width="0.744743" stroke-miterlimit="10" stroke-linecap="round" stroke-linejoin="round"/>
<path d="M878.029 272.003H862.635C861.116 270.484 860.253 269.621 858.734 268.102V252.708C860.253 251.19 861.116 250.326 862.635 248.808H878.029C879.548 250.326 880.411 251.19 881.93 252.708V268.102C880.411 269.621 879.548 270.484 878.029 272.003Z" stroke="#999CA1" stroke-width="0.744743" stroke-miterlimit="10" stroke-linecap="round" stroke-linejoin="round"/>
<path d="M859.744 244.46L862.632 248.837" stroke="#999CA1" stroke-width="0.744743" stroke-miterlimit="10" stroke-linecap="round" stroke-linejoin="round"/>
<path d="M854.385 249.819L858.762 252.708" stroke="#999CA1" stroke-width="0.744743" stroke-miterlimit="10" stroke-linecap="round" stroke-linejoin="round"/>
<path d="M854.385 271.02L858.762 268.102" stroke="#999CA1" stroke-width="0.744743" stroke-miterlimit="10" stroke-linecap="round" stroke-linejoin="round"/>
<path d="M859.744 276.38L862.632 272.003" stroke="#999CA1" stroke-width="0.744743" stroke-miterlimit="10" stroke-linecap="round" stroke-linejoin="round"/>
<path d="M880.943 276.38L878.025 272.003" stroke="#999CA1" stroke-width="0.744743" stroke-miterlimit="10" stroke-linecap="round" stroke-linejoin="round"/>
<path d="M886.305 271.02L881.928 268.102" stroke="#999CA1" stroke-width="0.744743" stroke-miterlimit="10" stroke-linecap="round" stroke-linejoin="round"/>
<path d="M886.305 249.819L881.928 252.708" stroke="#999CA1" stroke-width="0.744743" stroke-miterlimit="10" stroke-linecap="round" stroke-linejoin="round"/>
<path d="M880.943 244.46L878.025 248.837" stroke="#999CA1" stroke-width="0.744743" stroke-miterlimit="10" stroke-linecap="round" stroke-linejoin="round"/>
<path d="M18.6194 184.577C15.3312 184.577 12.1169 185.552 9.38291 187.379C6.6489 189.206 4.518 191.802 3.25967 194.84C2.00134 197.878 1.67211 201.221 2.3136 204.446C2.95509 207.671 4.53849 210.633 6.86358 212.958C9.18866 215.283 12.151 216.867 15.376 217.508C18.601 218.15 21.9438 217.82 24.9816 216.562C28.0195 215.304 30.616 213.173 32.4428 210.439C34.2696 207.705 35.2447 204.491 35.2447 201.202C35.2401 196.795 33.4871 192.568 30.3702 189.452C27.2534 186.335 23.0273 184.582 18.6194 184.577ZM24.1483 211.619L25.5036 207.562L30.017 205.755V212.183L24.1483 211.619ZM7.22181 212.183V205.755L11.7352 207.562L13.0906 211.619L7.22181 212.183ZM13.0906 190.786L11.7352 194.843L7.22181 196.65V190.222L13.0906 190.786ZM30.017 190.222V196.65L25.5036 194.843L24.1483 190.786L30.017 190.222ZM25.0045 207.054L18.6194 209.016L12.2343 207.054L9.79907 201.202L12.2343 195.351L18.6194 193.389L25.0045 195.351L27.4398 201.202L25.0045 207.054ZM23.5244 211.447L19.4799 209.425L24.7334 207.811L23.5244 211.447ZM13.7144 211.447L12.5011 207.811L17.7589 209.425L13.7144 211.447ZM9.41184 200.501L7.39822 197.283L11.4255 195.674L9.41184 200.501ZM9.41184 201.904L11.4255 206.731L7.39822 205.122L9.41184 201.904ZM13.7144 190.958L17.7589 192.98L12.5011 194.594L13.7144 190.958ZM23.5244 190.958L24.7377 194.594L19.4799 192.98L23.5244 190.958ZM27.8485 201.904L29.8621 205.122L25.8349 206.731L27.8485 201.904ZM27.8485 200.501L25.8349 195.674L29.8621 197.283L27.8485 200.501ZM18.6194 192.688L14.05 190.403L18.6194 185.377L23.1888 190.403L18.6194 192.688ZM6.83028 197.623L9.06763 201.202L6.83028 204.782L2.79873 201.202L6.83028 197.623ZM18.6194 209.717L23.1888 212.002L18.6194 217.027L14.05 212.002L18.6194 209.717ZM30.4085 204.782L28.1712 201.202L30.4085 197.623L34.4401 201.202L30.4085 204.782ZM30.899 197.192L33.6398 195.747C34.1946 197.267 34.5124 198.863 34.5821 200.48L30.899 197.192ZM30.6667 196.59V190.713C31.8175 192.029 32.7435 193.527 33.4075 195.144L30.6667 196.59ZM24.2128 190.136L25.4649 186.759C26.9929 187.487 28.3969 188.451 29.6255 189.615L24.2128 190.136ZM23.6147 189.895L19.3681 185.24C21.2577 185.326 23.1168 185.749 24.8582 186.488L23.6147 189.895ZM13.6585 189.895L12.3806 186.488C14.122 185.749 15.9811 185.326 17.8708 185.24L13.6585 189.895ZM13.026 190.132L7.63056 189.611C8.85916 188.447 10.2632 187.483 11.7912 186.754L13.026 190.132ZM6.57212 196.586L3.83136 195.14C4.49576 193.524 5.42173 192.028 6.57212 190.713V196.586ZM6.33548 197.188L2.65675 200.467C2.72642 198.85 3.04423 197.254 3.59902 195.734L6.33548 197.188ZM6.33548 205.208L3.59472 206.654C3.03992 205.134 2.72212 203.538 2.65245 201.921L6.33548 205.208ZM6.57212 205.81V211.692C5.42133 210.375 4.49535 208.878 3.83136 207.26L6.57212 205.81ZM13.026 212.264L11.774 215.642C10.246 214.914 8.84195 213.949 7.61335 212.785L13.026 212.264ZM13.6241 212.505L17.8708 217.165C15.9811 217.079 14.122 216.656 12.3806 215.917L13.6241 212.505ZM23.5803 212.505L24.8582 215.917C23.1168 216.656 21.2577 217.079 19.3681 217.165L23.5803 212.505ZM24.2128 212.273L29.6255 212.794C28.3969 213.958 26.9929 214.922 25.4649 215.651L24.2128 212.273ZM30.6667 205.819L33.4075 207.265C32.7431 208.881 31.8171 210.377 30.6667 211.692V205.819ZM30.9033 205.217L34.5864 201.942C34.5167 203.559 34.1989 205.155 33.6441 206.675L30.9033 205.217Z" fill="#999CA1"/>
<g clip-path="url(#clip4_3902_68512)">
<path d="M18.9539 60.8682C8.88585 60.8682 3.99121 66.6767 3.99121 78.5841C3.99121 90.4916 8.88585 96.3001 18.9539 96.3001C29.022 96.3001 33.9167 90.5071 33.9167 78.5841C33.9167 66.6612 29.022 60.8682 18.9539 60.8682ZM32.3832 86.3559L29.1188 86.5224L33.3242 79.6374C33.2963 81.9077 32.9801 84.1653 32.3832 86.3559ZM4.58368 79.6374L8.78904 86.5224L5.52466 86.3559C4.9278 84.1653 4.61161 81.9077 4.58368 79.6374ZM5.52466 70.8123L8.78904 70.6458L4.58368 77.5309C4.61161 75.2605 4.9278 73.003 5.52466 70.8123ZM33.3242 77.5309L29.1188 70.6458L32.3832 70.8123C32.9801 73.003 33.2963 75.2605 33.3242 77.5309ZM27.9571 78.5841L28.7781 71.2267L33.2816 78.5841L28.7703 85.9416L27.9571 78.5841ZM25.5795 87.1033L18.9539 89.7365L12.3284 87.1033L10.5393 78.5841L12.3284 70.0843L18.9539 67.4318L25.5795 70.0843L27.3686 78.6035L25.5795 87.1033ZM14.5046 92.8073L12.5685 87.8119L18.3305 90.1353L14.5046 92.8073ZM18.9539 90.4025L23.0083 93.241L18.9539 95.6728L14.8996 93.241L18.9539 90.4025ZM23.4033 92.8073L19.5619 90.1198L25.3239 87.7964L23.4033 92.8073ZM9.12981 85.9609L4.62628 78.5841L9.12981 71.2267L9.95075 78.5841L9.12981 85.9609ZM10.3302 76.7525L9.66032 70.5723L11.7204 70.2276L10.3302 76.7525ZM10.3302 80.4158L11.7049 86.9407L9.66032 86.596L10.3302 80.4158ZM23.4033 64.361L25.3394 69.3563L19.5774 67.0329L23.4033 64.361ZM18.9539 66.7657L14.8996 63.9273L18.9539 61.4955L23.0083 63.9273L18.9539 66.7657ZM14.5046 64.361L18.346 67.0484L12.5839 69.3718L14.5046 64.361ZM27.5777 76.7525L26.203 70.2276L28.2631 70.5723L27.5777 76.7525ZM27.5777 80.4158L28.2631 86.6115L26.203 86.9561L27.5777 80.4158ZM28.3211 69.9914L26.0442 69.6042L23.988 64.2565L28.7355 64.7211L28.3211 69.9914ZM24.1274 63.6756L25.1845 62.4713C26.2218 62.86 27.1964 63.3989 28.0772 64.0706L24.1274 63.6756ZM23.4807 63.5362L20.0498 61.4761C21.5945 61.5273 23.1252 61.7879 24.5998 62.2506L23.4807 63.5362ZM14.4272 63.5362L13.3081 62.2583C14.7827 61.7956 16.3134 61.5351 17.8581 61.4839L14.4272 63.5362ZM13.7805 63.6756L9.83071 64.0628C10.7115 63.3911 11.6861 62.8523 12.7233 62.4636L13.7805 63.6756ZM13.9199 64.2565L11.8637 69.6119L9.58675 69.9991L9.17241 64.7211L13.9199 64.2565ZM9.58675 87.1769L11.8637 87.5641L13.9199 92.9118L9.17241 92.4471L9.58675 87.1769ZM13.7805 93.4927L12.7233 94.697C11.6861 94.3082 10.7115 93.7694 9.83071 93.0977L13.7805 93.4927ZM14.4272 93.6321L17.8581 95.6921C16.3134 95.6409 14.7827 95.3804 13.3081 94.9177L14.4272 93.6321ZM23.4807 93.6321L24.5998 94.9099C23.1252 95.3727 21.5945 95.6332 20.0498 95.6844L23.4807 93.6321ZM24.1274 93.4927L28.0772 93.1054C27.1964 93.7771 26.2218 94.316 25.1845 94.7047L24.1274 93.4927ZM23.988 92.9118L26.052 87.5447L28.3289 87.1575L28.7355 92.4471L23.988 92.9118ZM32.2012 70.2199L28.8981 70.065L29.2854 65.1587C30.6282 66.6031 31.6253 68.3337 32.2012 70.2199ZM8.62253 65.1471L9.00977 70.0534L5.70666 70.2199C6.281 68.3296 7.27816 66.5948 8.62253 65.1471ZM5.70666 86.9484L9.00977 87.1149L8.62253 92.0212C7.27816 90.5735 6.281 88.8387 5.70666 86.9484ZM29.2854 92.0212L28.8981 87.1033L32.2012 86.9368C31.6285 88.8312 30.6313 90.5701 29.2854 92.0212Z" fill="#999CA1"/>
</g>
<g clip-path="url(#clip5_3902_68512)">
<path d="M162.061 0C154.91 0 149.094 8.35166 149.094 18.6203C149.094 28.8889 154.91 37.2406 162.061 37.2406C169.213 37.2406 175.029 28.8889 175.029 18.6203C175.029 8.35166 169.213 0 162.061 0ZM170.775 22.6415L169.04 18.6203L170.775 14.5991L174.323 18.6203L170.775 22.6415ZM166.477 25.2748L162.061 27.44L157.646 25.2748L155.729 18.6203L157.646 11.9658L162.061 9.80058L166.477 11.9658L168.394 18.6203L166.477 25.2748ZM158.336 30.0977L157.771 26.0277L161.472 27.8429L158.336 30.0977ZM162.061 28.1523L165.609 30.7204L162.061 36.3655L158.514 30.7204L162.061 28.1523ZM165.787 30.0977L162.651 27.8267L166.352 26.0114L165.787 30.0977ZM153.348 22.6415L149.8 18.6203L153.348 14.5991L155.083 18.6203L153.348 22.6415ZM155.366 17.7249L153.828 14.1718L156.895 12.3932L155.366 17.7249ZM155.366 19.5157L156.895 24.8474L153.82 23.0688L155.366 19.5157ZM165.787 7.14287L166.352 11.2129L162.651 9.39765L165.787 7.14287ZM162.061 9.08833L158.514 6.52015L162.061 0.875052L165.609 6.52015L162.061 9.08833ZM158.336 7.14287L161.472 9.41393L157.771 11.2292L158.336 7.14287ZM168.765 17.7249L167.228 12.3932L170.303 14.1718L168.765 17.7249ZM168.765 19.5157L170.303 23.0688L167.228 24.8474L168.765 19.5157ZM171.134 14.0904L173.621 12.2426C174.092 14.061 174.357 15.9275 174.412 17.8063L171.134 14.0904ZM171.058 13.3863L171.663 7.28125C172.419 8.64789 173.019 10.0966 173.451 11.5995L171.058 13.3863ZM170.432 13.5409L167.01 11.5629L166.364 6.89053L171.118 6.65854L170.432 13.5409ZM165.855 5.77127L162.626 0.630852C164.006 0.733432 165.345 1.15095 166.541 1.85185L165.855 5.77127ZM158.268 5.77127L157.581 1.83964C158.778 1.13874 160.117 0.721222 161.496 0.618641L158.268 5.77127ZM157.113 11.5629L153.691 13.5409L153.005 6.65854L157.759 6.89053L157.113 11.5629ZM153.077 13.3863L150.684 11.6117C151.116 10.1088 151.716 8.6601 152.472 7.29346L153.077 13.3863ZM153.001 14.0904L149.711 17.8063C149.771 15.9283 150.042 14.0631 150.518 12.2467L153.001 14.0904ZM153.001 23.1502L150.514 24.998C150.039 23.18 149.769 21.3135 149.711 19.4343L153.001 23.1502ZM153.077 23.8543L152.472 29.9593C151.716 28.5927 151.116 27.144 150.684 25.6411L153.077 23.8543ZM153.703 23.6997L157.125 25.6777L157.771 30.3501L153.017 30.5821L153.703 23.6997ZM158.268 31.4693L161.496 36.6097C160.117 36.5072 158.778 36.0896 157.581 35.3887L158.268 31.4693ZM165.855 31.4693L166.541 35.4009C165.345 36.1018 164.006 36.5194 162.626 36.6219L165.855 31.4693ZM167.01 25.6777L170.432 23.6997L171.118 30.5821L166.364 30.3501L167.01 25.6777ZM171.046 23.8543L173.439 25.6288C173.007 27.1318 172.407 28.5805 171.651 29.9471L171.046 23.8543ZM171.122 23.1502L174.412 19.4343C174.352 21.3123 174.081 23.1775 173.604 24.9939L171.122 23.1502ZM170.896 6.05617L166.372 6.27595L167.098 2.17746C168.613 3.20027 169.909 4.51922 170.908 6.05617H170.896ZM157.025 2.17746L157.739 6.27595L153.215 6.05617C154.214 4.51922 155.51 3.20027 157.025 2.17746ZM153.215 31.1844L157.739 30.9646L157.025 35.0631C155.51 34.0403 154.214 32.7214 153.215 31.1844ZM167.098 35.0631L166.384 30.9646L170.908 31.1844C169.909 32.7214 168.613 34.0403 167.098 35.0631Z" fill="#999CA1"/>
</g>
<path d="M332.318 36.5756H315.02C312.916 34.4718 311.721 33.277 309.617 31.1732V6.73249C311.721 4.62866 312.916 3.4339 315.02 1.33008H332.318C334.422 3.4339 335.616 4.62866 337.72 6.73249V31.1732C335.616 33.277 334.422 34.4718 332.318 36.5756Z" stroke="#999CA1" stroke-width="0.567079" stroke-miterlimit="10" stroke-linecap="round" stroke-linejoin="round"/>
<path d="M330.656 33.1986H316.656C314.942 31.4844 314.007 30.5493 312.293 28.8351V9.06954C314.007 7.35531 314.942 6.42028 316.656 4.70605H330.656C332.37 6.42028 333.305 7.35531 335.019 9.06954V28.8351C333.331 30.5493 332.37 31.5103 330.656 33.1986Z" stroke="#999CA1" stroke-width="0.567079" stroke-miterlimit="10" stroke-linecap="round" stroke-linejoin="round"/>
<path d="M328.212 28.1866H319.147C318.057 27.0958 317.433 26.4724 316.316 25.3556V12.5508C317.407 11.4599 318.031 10.8366 319.147 9.71973H328.212C329.303 10.8106 329.926 11.4339 331.043 12.5508V25.3556C329.926 26.4724 329.303 27.0958 328.212 28.1866Z" stroke="#999CA1" stroke-width="0.567079" stroke-miterlimit="10" stroke-linecap="round" stroke-linejoin="round"/>
<path d="M315.021 1.35645L319.125 9.7198" stroke="#999CA1" stroke-width="0.567079" stroke-miterlimit="10" stroke-linecap="round" stroke-linejoin="round"/>
<path d="M332.32 36.5758L328.216 28.1865L323.671 36.5758L319.125 28.1865L315.021 36.5758" stroke="#999CA1" stroke-width="0.567079" stroke-miterlimit="10" stroke-linecap="round" stroke-linejoin="round"/>
<path d="M328.215 28.1867L337.721 31.1736L331.02 25.3556L337.721 18.9662L331.02 12.5509L337.721 6.73289L328.215 9.7198L332.319 1.35645" stroke="#999CA1" stroke-width="0.567079" stroke-miterlimit="10" stroke-linecap="round" stroke-linejoin="round"/>
<path d="M319.123 28.1867L309.617 31.1736L316.318 25.3556L309.617 18.9662L316.318 12.5509L309.617 6.73289L319.123 9.7198L323.669 1.35645L328.214 9.7198" stroke="#999CA1" stroke-width="0.567079" stroke-miterlimit="10" stroke-linecap="round" stroke-linejoin="round"/>
<path d="M476.304 68.2613L470.342 62.2991L470.099 62.1982H449.46L449.217 62.2991L443.255 68.2613L443.154 68.5044V89.1426L443.255 89.3857L449.217 95.3479L449.46 95.4488H470.099L470.342 95.3479L476.304 89.3857L476.405 89.1426V68.5044L476.304 68.2613ZM468.393 91.3807L461.055 89.1701L468.393 87.3953V91.3807ZM468.434 86.6752L459.766 88.7803L451.098 86.6752L449.791 78.8097L451.098 70.9443L459.766 68.8392L468.434 70.9443L469.741 78.8097L468.434 86.6752ZM458.459 89.1701L451.121 91.3807V87.3953L458.459 89.1701ZM449.341 77.3009L447.227 70.293L450.401 70.9351L449.341 77.3009ZM449.341 80.3186L450.401 86.6844L447.227 87.3265L449.341 80.3186ZM451.139 66.2388L458.477 68.4493L451.139 70.2242V66.2388ZM461.073 68.4493L468.411 66.2388V70.2242L461.073 68.4493ZM470.19 80.3186L472.305 87.3265L469.131 86.6844L470.19 80.3186ZM470.19 77.3009L469.131 70.9351L472.305 70.293L470.19 77.3009ZM469.081 70.2426V66.6057L472.103 69.6372L469.081 70.2426ZM459.766 68.1237L453.125 66.1195H466.425L459.766 68.1237ZM450.451 70.2426L447.429 69.6372L450.451 66.6102V70.2426ZM449.08 78.8097L447.076 85.4507V72.1505L449.08 78.8097ZM450.456 87.3769V91.0138L447.429 87.9823L450.456 87.3769ZM459.766 89.4958L466.407 91.5H453.107L459.766 89.4958ZM469.081 87.3769L472.103 87.9823L469.081 91.0092V87.3769ZM470.452 78.8097L472.456 72.1688V85.469L470.452 78.8097ZM472.883 69.4354L469.14 65.693L470.204 63.1247L475.451 68.3714L472.883 69.4354ZM468.507 65.4316H451.024L449.96 62.8587H469.571L468.507 65.4316ZM450.391 65.693L446.649 69.4354L444.081 68.3714L449.327 63.1247L450.391 65.693ZM446.388 70.0683V87.5512L443.815 88.6152V69.0043L446.388 70.0683ZM446.649 88.1841L450.391 91.9265L449.327 94.4948L444.081 89.2481L446.649 88.1841ZM451.024 92.1879H468.507L469.571 94.7608H449.96L451.024 92.1879ZM469.14 91.9265L472.883 88.1841L475.451 89.2481L470.204 94.4948L469.14 91.9265ZM473.144 87.5512V70.0683L475.717 69.0043V88.6152L473.144 87.5512Z" fill="#999CA1"/>
<g clip-path="url(#clip6_3902_68512)">
<path d="M459.816 182.582C451.089 182.582 446.479 187.196 446.479 195.932C446.479 208.89 459.49 219.717 459.62 219.823H460.028C460.142 219.704 473.153 208.878 473.153 195.932C473.153 187.196 468.543 182.582 459.816 182.582ZM459.816 209.506L454.782 204.928L452.654 196.421L454.741 190.849L459.816 189.002L464.891 190.853L466.978 196.421L464.85 204.928L459.816 209.506ZM454.227 205.254L455.491 211.585L450.469 207.663V201.912L454.227 205.254ZM452.332 195.524L450.604 190.918H454.064L452.332 195.524ZM452.25 197.326L453.971 204.207L450.534 201.153L452.25 197.326ZM456.168 211.829L454.99 205.943L459.311 209.872L456.168 211.829ZM463.505 187.164L464.602 190.082L460.59 188.631L463.505 187.164ZM459.816 188.334L456.469 186.666L459.816 183.32L463.163 186.666L459.816 188.334ZM456.123 187.176L459.042 188.631L455.026 190.095L456.123 187.176ZM467.382 197.334L469.098 201.153L465.661 204.207L467.382 197.334ZM467.3 195.524L465.568 190.918H469.028L467.3 195.524ZM464.642 205.943L463.485 211.829L460.321 209.872L464.642 205.943ZM465.405 205.254L469.163 201.912V207.663L464.141 211.585L465.405 205.254ZM467.63 196.392L469.546 191.277L472.489 195.932L469.517 200.587L467.63 196.392ZM465.339 190.307L464.068 186.919L467.761 185.391L469.073 190.307H465.339ZM463.75 186.389L460.566 183.206C463.256 183.295 465.523 183.874 467.308 184.926L463.75 186.389ZM455.882 186.389L452.324 184.926C454.109 183.874 456.376 183.295 459.066 183.206L455.882 186.389ZM455.564 186.919L454.293 190.307H450.547L451.871 185.391L455.564 186.919ZM450.09 191.293L452.002 196.392L450.115 200.587L447.147 195.932L450.09 191.293ZM449.682 201.076L447.905 201.61C447.479 200.119 447.214 198.588 447.114 197.04L449.682 201.076ZM449.858 201.638V206.53C449.146 205.128 448.551 203.669 448.08 202.168L449.858 201.638ZM455.45 212.326L454.227 213.256C453.152 211.919 452.159 210.516 451.256 209.057L455.45 212.326ZM459.816 210.28L463.273 212.441L459.816 218.926L456.359 212.441L459.816 210.28ZM468.376 209.057C467.478 210.516 466.491 211.918 465.421 213.256L464.198 212.326L468.376 209.057ZM469.774 201.638L471.552 202.172C471.081 203.672 470.486 205.129 469.774 206.53V201.638ZM469.945 201.052L472.513 197.016C472.414 198.563 472.149 200.095 471.723 201.585L469.945 201.052ZM472.513 194.819L469.754 190.486L468.478 185.704C470.944 187.649 472.31 190.714 472.513 194.823V194.819ZM451.154 185.704L449.878 190.486L447.118 194.823C447.322 190.714 448.688 187.649 451.154 185.704ZM454.598 213.733L455.854 212.791L458.707 218.18C457.245 216.786 455.873 215.301 454.598 213.733ZM460.904 218.18L463.758 212.791L465.013 213.733C463.739 215.301 462.367 216.786 460.904 218.18Z" fill="#999CA1"/>
</g>
<g clip-path="url(#clip7_3902_68512)">
<path d="M244.022 118.432H243.638C237.9 123.022 234.334 130.158 234.334 137.052C234.334 143.946 237.9 151.081 243.638 155.672H244.022C249.76 151.081 253.326 143.946 253.326 137.052C253.326 130.158 249.76 123.022 244.022 118.432ZM243.83 147.777L241.196 145.584L238.827 137.052L241.196 128.52L243.83 126.327L246.464 128.52L248.833 137.052L246.464 145.584L243.83 147.777ZM243.422 125.885L241.416 127.556L242.082 124.215L243.422 125.885ZM240.644 128.193L237.377 131.461L237.438 127.152L241.441 124.219L240.644 128.193ZM238.52 138.155L240.342 144.718L237.426 141.802L238.52 138.155ZM238.52 135.949L237.426 132.302L240.342 129.386L238.52 135.949ZM238.19 137.052L236.989 141.063L234.983 137.052L236.989 133.041L238.19 137.052ZM240.64 145.911L241.437 149.881L237.434 146.948L237.377 142.639L240.64 145.911ZM242.061 149.889L241.396 146.548L243.422 148.218L242.061 149.889ZM249.16 138.155L250.255 141.802L247.338 144.718L249.16 138.155ZM249.16 135.949L247.338 129.386L250.255 132.302L249.16 135.949ZM247.016 128.189L246.219 124.219L250.222 127.152L250.283 131.461L247.016 128.189ZM245.594 124.211L246.281 127.556L244.238 125.885L245.594 124.211ZM246.281 146.548L245.615 149.889L244.238 148.218L246.281 146.548ZM247.036 145.911L250.304 142.643L250.242 146.952L246.24 149.885L247.036 145.911ZM249.487 137.052L250.687 133.041L252.677 137.052L250.671 141.063L249.487 137.052ZM251.031 132.351L251.999 131.853C252.325 133.093 252.54 134.36 252.64 135.639L251.031 132.351ZM250.9 131.742L250.851 128.475C251.239 129.382 251.572 130.313 251.847 131.26L250.9 131.742ZM246.281 123.496L247.351 122.63C248.184 123.668 248.933 124.77 249.593 125.926L246.281 123.496ZM243.83 125.436L242.245 123.455L243.83 119.489L245.415 123.447L243.83 125.436ZM238.079 125.926C238.739 124.77 239.489 123.668 240.322 122.63L241.379 123.496L238.079 125.926ZM236.76 131.742L235.812 131.252C236.088 130.307 236.421 129.38 236.809 128.475L236.76 131.742ZM236.646 132.371L235.012 135.639C235.114 134.36 235.332 133.093 235.661 131.853L236.646 132.371ZM236.646 141.765L235.661 142.251C235.335 141.011 235.12 139.744 235.02 138.465L236.646 141.765ZM236.76 142.394L236.809 145.662C236.421 144.754 236.088 143.824 235.812 142.876L236.76 142.394ZM241.379 150.608L240.309 151.474C239.476 150.436 238.727 149.333 238.067 148.178L241.379 150.608ZM243.83 148.668L245.415 150.649L243.83 154.614L242.245 150.657L243.83 148.668ZM249.581 148.178C248.921 149.333 248.171 150.436 247.338 151.474L246.281 150.608L249.581 148.178ZM250.9 142.382L251.847 142.852C251.572 143.797 251.239 144.724 250.851 145.629L250.9 142.382ZM251.014 141.753L252.648 138.486C252.544 139.758 252.327 141.018 251.999 142.251L251.014 141.753ZM246.93 122.148L245.88 123.002L244.577 119.714C245.423 120.472 246.215 121.288 246.946 122.157L246.93 122.148ZM243.066 119.698L241.747 122.994L240.697 122.14C241.435 121.277 242.232 120.466 243.083 119.714L243.066 119.698ZM240.697 151.931L241.747 151.077L243.066 154.373C242.227 153.62 241.441 152.81 240.714 151.947L240.697 151.931ZM244.561 154.382L245.88 151.086L246.93 151.939C246.204 152.81 245.418 153.629 244.577 154.39L244.561 154.382Z" fill="#999CA1"/>
</g>
<path d="M339.214 244.46H307.953L307.623 244.79V276.051L307.953 276.38H339.214L339.544 276.051V244.79L339.214 244.46ZM338.884 266.861H335.901V253.98H338.888L338.884 266.861ZM308.283 253.98H311.266V266.861H308.283V253.98ZM317.143 248.921L322.664 251.041L317.143 253.166V248.921ZM313.852 260.42L311.93 265.418V255.423L313.852 260.42ZM312.093 253.98H316.338L314.204 259.501L312.093 253.98ZM314.213 261.34L316.338 266.861H312.084L314.213 261.34ZM317.152 267.674L322.673 269.799L317.143 271.92L317.152 267.674ZM317.077 266.935L314.561 260.42L317.068 253.905L323.583 251.397L330.098 253.905L332.606 260.42L330.098 266.935L323.583 269.443L317.077 266.935ZM330.033 253.166L324.503 251.041L330.024 248.921L330.033 253.166ZM330.033 267.683V271.928L324.503 269.799L330.033 267.683ZM332.971 261.348L335.092 266.869H330.838L332.971 261.348ZM333.323 260.429L335.246 255.432V265.418L333.323 260.429ZM332.971 259.51L330.838 253.98H335.083L332.971 259.51ZM323.583 250.689L318.586 248.767H328.581L323.583 250.689ZM316.483 253.329H311.314L308.512 245.41L316.483 248.692V253.329ZM316.483 267.529V272.179L308.512 275.461L311.314 267.542L316.483 267.529ZM323.583 270.169L328.581 272.091H318.586L323.583 270.169ZM330.684 267.529H335.853L338.655 275.448L330.684 272.179V267.529ZM330.684 253.329V248.661L338.655 245.379L335.853 253.298L330.684 253.329ZM330.684 247.953V245.12H337.546L330.684 247.953ZM330.024 248.116H317.143V245.12H330.024V248.116ZM316.483 247.953L309.62 245.129H316.483V247.953ZM310.614 253.32H308.283V246.721L310.614 253.32ZM308.283 267.521H310.614L308.283 274.119V267.521ZM316.483 272.896V275.721H309.62L316.483 272.896ZM317.143 272.734H330.024V275.721H317.143V272.734ZM330.684 272.896L337.546 275.721H330.684V272.896ZM336.552 267.521H338.884V274.119L336.552 267.521ZM338.884 253.32H336.552L338.884 246.721V253.32Z" fill="#999CA1"/>
<path d="M172.328 276.38H151.127C149.043 274.295 147.852 273.104 145.768 271.02V249.82C147.852 247.735 149.043 246.544 151.127 244.46H172.328C174.412 246.544 175.603 247.735 177.687 249.82V271.02C175.573 273.104 174.412 274.265 172.328 276.38Z" stroke="#999CA1" stroke-width="0.744743" stroke-miterlimit="10" stroke-linecap="round" stroke-linejoin="round"/>
<path d="M169.412 272.003H154.018C152.499 270.484 151.636 269.621 150.117 268.102V252.708C151.636 251.19 152.499 250.326 154.018 248.808H169.412C170.93 250.326 171.794 251.19 173.312 252.708V268.102C171.794 269.621 170.93 270.484 169.412 272.003Z" stroke="#999CA1" stroke-width="0.744743" stroke-miterlimit="10" stroke-linecap="round" stroke-linejoin="round"/>
<path d="M151.127 244.46L154.015 248.837" stroke="#999CA1" stroke-width="0.744743" stroke-miterlimit="10" stroke-linecap="round" stroke-linejoin="round"/>
<path d="M145.768 249.819L150.145 252.708" stroke="#999CA1" stroke-width="0.744743" stroke-miterlimit="10" stroke-linecap="round" stroke-linejoin="round"/>
<path d="M145.768 271.02L150.145 268.102" stroke="#999CA1" stroke-width="0.744743" stroke-miterlimit="10" stroke-linecap="round" stroke-linejoin="round"/>
<path d="M151.127 276.38L154.015 272.003" stroke="#999CA1" stroke-width="0.744743" stroke-miterlimit="10" stroke-linecap="round" stroke-linejoin="round"/>
<path d="M172.326 276.38L169.408 272.003" stroke="#999CA1" stroke-width="0.744743" stroke-miterlimit="10" stroke-linecap="round" stroke-linejoin="round"/>
<path d="M177.688 271.02L173.311 268.102" stroke="#999CA1" stroke-width="0.744743" stroke-miterlimit="10" stroke-linecap="round" stroke-linejoin="round"/>
<path d="M177.688 249.819L173.311 252.708" stroke="#999CA1" stroke-width="0.744743" stroke-miterlimit="10" stroke-linecap="round" stroke-linejoin="round"/>
<path d="M172.326 244.46L169.408 248.837" stroke="#999CA1" stroke-width="0.744743" stroke-miterlimit="10" stroke-linecap="round" stroke-linejoin="round"/>
<path d="M1435.85 187.537C1432.57 187.537 1429.35 188.512 1426.62 190.339C1423.88 192.166 1421.75 194.762 1420.49 197.8C1419.24 200.838 1418.91 204.181 1419.55 207.406C1420.19 210.631 1421.77 213.593 1424.1 215.918C1426.42 218.243 1429.39 219.827 1432.61 220.468C1435.84 221.11 1439.18 220.78 1442.22 219.522C1445.25 218.264 1447.85 216.133 1449.68 213.399C1451.5 210.665 1452.48 207.451 1452.48 204.162C1452.47 199.754 1450.72 195.528 1447.6 192.412C1444.49 189.295 1440.26 187.542 1435.85 187.537ZM1441.38 214.579L1442.74 210.522L1447.25 208.715V215.143L1441.38 214.579ZM1424.46 215.143V208.715L1428.97 210.522L1430.32 214.579L1424.46 215.143ZM1430.32 193.746L1428.97 197.803L1424.46 199.61V193.182L1430.32 193.746ZM1447.25 193.182V199.61L1442.74 197.803L1441.38 193.746L1447.25 193.182ZM1442.24 210.014L1435.85 211.976L1429.47 210.014L1427.03 204.162L1429.47 198.311L1435.85 196.349L1442.24 198.311L1444.67 204.162L1442.24 210.014ZM1440.76 214.407L1436.71 212.385L1441.97 210.771L1440.76 214.407ZM1430.95 214.407L1429.74 210.771L1434.99 212.385L1430.95 214.407ZM1426.65 203.461L1424.63 200.243L1428.66 198.634L1426.65 203.461ZM1426.65 204.864L1428.66 209.691L1424.63 208.082L1426.65 204.864ZM1430.95 193.918L1434.99 195.94L1429.74 197.554L1430.95 193.918ZM1440.76 193.918L1441.97 197.554L1436.71 195.94L1440.76 193.918ZM1445.08 204.864L1447.1 208.082L1443.07 209.691L1445.08 204.864ZM1445.08 203.461L1443.07 198.634L1447.1 200.243L1445.08 203.461ZM1435.85 195.648L1431.28 193.363L1435.85 188.337L1440.42 193.363L1435.85 195.648ZM1424.06 200.583L1426.3 204.162L1424.06 207.742L1420.03 204.162L1424.06 200.583ZM1435.85 212.677L1440.42 214.962L1435.85 219.987L1431.28 214.962L1435.85 212.677ZM1447.64 207.742L1445.41 204.162L1447.64 200.583L1451.67 204.162L1447.64 207.742ZM1448.13 200.152L1450.87 198.707C1451.43 200.227 1451.75 201.823 1451.82 203.44L1448.13 200.152ZM1447.9 199.55V193.673C1449.05 194.989 1449.98 196.487 1450.64 198.104L1447.9 199.55ZM1441.45 193.096L1442.7 189.719C1444.23 190.447 1445.63 191.411 1446.86 192.575L1441.45 193.096ZM1440.85 192.855L1436.6 188.2C1438.49 188.286 1440.35 188.709 1442.09 189.447L1440.85 192.855ZM1430.89 192.855L1429.62 189.447C1431.36 188.709 1433.22 188.286 1435.11 188.2L1430.89 192.855ZM1430.26 193.092L1424.86 192.571C1426.09 191.407 1427.5 190.443 1429.03 189.714L1430.26 193.092ZM1423.81 199.546L1421.07 198.1C1421.73 196.484 1422.66 194.988 1423.81 193.673V199.546ZM1423.57 200.148L1419.89 203.427C1419.96 201.81 1420.28 200.214 1420.83 198.694L1423.57 200.148ZM1423.57 208.168L1420.83 209.614C1420.27 208.094 1419.96 206.497 1419.89 204.881L1423.57 208.168ZM1423.81 208.77V214.652C1422.66 213.335 1421.73 211.838 1421.07 210.22L1423.81 208.77ZM1430.26 215.224L1429.01 218.602C1427.48 217.873 1426.08 216.909 1424.85 215.745L1430.26 215.224ZM1430.86 215.465L1435.11 220.125C1433.22 220.039 1431.36 219.616 1429.62 218.877L1430.86 215.465ZM1440.81 215.465L1442.09 218.877C1440.35 219.616 1438.49 220.039 1436.6 220.125L1440.81 215.465ZM1441.45 215.233L1446.86 215.754C1445.63 216.918 1444.23 217.882 1442.7 218.611L1441.45 215.233ZM1447.9 208.779L1450.64 210.225C1449.98 211.841 1449.05 213.337 1447.9 214.652V208.779ZM1448.14 208.177L1451.82 204.902C1451.75 206.519 1451.43 208.115 1450.88 209.635L1448.14 208.177Z" fill="#999CA1"/>
<g clip-path="url(#clip8_3902_68512)">
<path d="M1436.19 63.8281C1426.12 63.8281 1421.22 69.6366 1421.22 81.5441C1421.22 93.4516 1426.12 99.2601 1436.19 99.2601C1446.26 99.2601 1451.15 93.467 1451.15 81.5441C1451.15 69.6212 1446.26 63.8281 1436.19 63.8281ZM1449.62 89.3159L1446.35 89.4824L1450.56 82.5974C1450.53 84.8677 1450.21 87.1253 1449.62 89.3159ZM1421.82 82.5974L1426.02 89.4824L1422.76 89.3159C1422.16 87.1253 1421.85 84.8677 1421.82 82.5974ZM1422.76 73.7723L1426.02 73.6058L1421.82 80.4908C1421.85 78.2205 1422.16 75.9629 1422.76 73.7723ZM1450.56 80.4908L1446.35 73.6058L1449.62 73.7723C1450.21 75.9629 1450.53 78.2205 1450.56 80.4908ZM1445.19 81.5441L1446.01 74.1866L1450.52 81.5441L1446 88.9015L1445.19 81.5441ZM1442.81 90.0633L1436.19 92.6964L1429.56 90.0633L1427.77 81.5441L1429.56 73.0443L1436.19 70.3917L1442.81 73.0443L1444.6 81.5635L1442.81 90.0633ZM1431.74 95.7672L1429.8 90.7719L1435.56 93.0953L1431.74 95.7672ZM1436.19 93.3625L1440.24 96.2009L1436.19 98.6327L1432.13 96.2009L1436.19 93.3625ZM1440.64 95.7672L1436.8 93.0798L1442.56 90.7564L1440.64 95.7672ZM1426.36 88.9209L1421.86 81.5441L1426.36 74.1866L1427.18 81.5441L1426.36 88.9209ZM1427.56 79.7125L1426.89 73.5322L1428.95 73.1876L1427.56 79.7125ZM1427.56 83.3757L1428.94 89.9006L1426.89 89.556L1427.56 83.3757ZM1440.64 67.321L1442.57 72.3163L1436.81 69.9929L1440.64 67.321ZM1436.19 69.7257L1432.13 66.8873L1436.19 64.4554L1440.24 66.8873L1436.19 69.7257ZM1431.74 67.321L1435.58 70.0084L1429.82 72.3318L1431.74 67.321ZM1444.81 79.7125L1443.44 73.1876L1445.5 73.5322L1444.81 79.7125ZM1444.81 83.3757L1445.5 89.5715L1443.44 89.9161L1444.81 83.3757ZM1445.55 72.9514L1443.28 72.5641L1441.22 67.2164L1445.97 67.6811L1445.55 72.9514ZM1441.36 66.6356L1442.42 65.4313C1443.46 65.82 1444.43 66.3588 1445.31 67.0306L1441.36 66.6356ZM1440.71 66.4962L1437.28 64.4361C1438.83 64.4873 1440.36 64.7478 1441.83 65.2106L1440.71 66.4962ZM1431.66 66.4962L1430.54 65.2183C1432.02 64.7556 1433.55 64.495 1435.09 64.4438L1431.66 66.4962ZM1431.01 66.6356L1427.06 67.0228C1427.94 66.3511 1428.92 65.8123 1429.96 65.4235L1431.01 66.6356ZM1431.15 67.2164L1429.1 72.5719L1426.82 72.9591L1426.41 67.6811L1431.15 67.2164ZM1426.82 90.1368L1429.1 90.5241L1431.15 95.8718L1426.41 95.4071L1426.82 90.1368ZM1431.01 96.4526L1429.96 97.6569C1428.92 97.2682 1427.94 96.7294 1427.06 96.0576L1431.01 96.4526ZM1431.66 96.592L1435.09 98.6521C1433.55 98.6009 1432.02 98.3404 1430.54 97.8776L1431.66 96.592ZM1440.71 96.592L1441.83 97.8699C1440.36 98.3326 1438.83 98.5932 1437.28 98.6444L1440.71 96.592ZM1441.36 96.4526L1445.31 96.0654C1444.43 96.7371 1443.46 97.2759 1442.42 97.6647L1441.36 96.4526ZM1441.22 95.8718L1443.29 90.5047L1445.56 90.1175L1445.97 95.4071L1441.22 95.8718ZM1449.43 73.1798L1446.13 73.0249L1446.52 68.1187C1447.86 69.563 1448.86 71.2937 1449.43 73.1798ZM1425.86 68.1071L1426.24 73.0133L1422.94 73.1798C1423.51 71.2895 1424.51 69.5548 1425.86 68.1071ZM1422.94 89.9084L1426.24 90.0749L1425.86 94.9811C1424.51 93.5334 1423.51 91.7987 1422.94 89.9084ZM1446.52 94.9811L1446.13 90.0633L1449.43 89.8967C1448.86 91.7912 1447.86 93.5301 1446.52 94.9811Z" fill="#999CA1"/>
</g>
<g clip-path="url(#clip9_3902_68512)">
<path d="M1579.3 2.95996C1572.14 2.95996 1566.33 11.3116 1566.33 21.5803C1566.33 31.8489 1572.14 40.2005 1579.3 40.2005C1586.45 40.2005 1592.26 31.8489 1592.26 21.5803C1592.26 11.3116 1586.45 2.95996 1579.3 2.95996ZM1588.01 25.6014L1586.27 21.5803L1588.01 17.5591L1591.56 21.5803L1588.01 25.6014ZM1583.71 28.2347L1579.3 30.4L1574.88 28.2347L1572.96 21.5803L1574.88 14.9258L1579.3 12.7605L1583.71 14.9258L1585.63 21.5803L1583.71 28.2347ZM1575.57 33.0577L1575.01 28.9877L1578.71 30.8029L1575.57 33.0577ZM1579.3 31.1122L1582.84 33.6804L1579.3 39.3255L1575.75 33.6804L1579.3 31.1122ZM1583.02 33.0577L1579.89 30.7866L1583.59 28.9714L1583.02 33.0577ZM1570.58 25.6014L1567.03 21.5803L1570.58 17.5591L1572.32 21.5803L1570.58 25.6014ZM1572.6 20.6849L1571.06 17.1317L1574.13 15.3531L1572.6 20.6849ZM1572.6 22.4757L1574.13 27.8074L1571.05 26.0288L1572.6 22.4757ZM1583.02 10.1028L1583.59 14.1728L1579.89 12.3576L1583.02 10.1028ZM1579.3 12.0483L1575.75 9.48012L1579.3 3.83501L1582.84 9.48012L1579.3 12.0483ZM1575.57 10.1028L1578.71 12.3739L1575.01 14.1891L1575.57 10.1028ZM1586 20.6849L1584.46 15.3531L1587.54 17.1317L1586 20.6849ZM1586 22.4757L1587.54 26.0288L1584.46 27.8074L1586 22.4757ZM1588.37 17.0503L1590.85 15.2025C1591.33 17.021 1591.59 18.8875 1591.65 20.7663L1588.37 17.0503ZM1588.29 16.3462L1588.9 10.2412C1589.65 11.6079 1590.25 13.0565 1590.69 14.5595L1588.29 16.3462ZM1587.67 16.5009L1584.24 14.5229L1583.6 9.85049L1588.35 9.6185L1587.67 16.5009ZM1583.09 8.73123L1579.86 3.59081C1581.24 3.69339 1582.58 4.11091 1583.78 4.81182L1583.09 8.73123ZM1575.5 8.73123L1574.82 4.79961C1576.01 4.0987 1577.35 3.68118 1578.73 3.5786L1575.5 8.73123ZM1574.35 14.5229L1570.93 16.5009L1570.24 9.6185L1574.99 9.85049L1574.35 14.5229ZM1570.31 16.3462L1567.92 14.5717C1568.35 13.0687 1568.95 11.6201 1569.71 10.2534L1570.31 16.3462ZM1570.23 17.0503L1566.95 20.7663C1567.01 18.8882 1567.28 17.0231 1567.75 15.2066L1570.23 17.0503ZM1570.23 26.1102L1567.75 27.958C1567.27 26.14 1567 24.2735 1566.95 22.3943L1570.23 26.1102ZM1570.31 26.8143L1569.71 32.9193C1568.95 31.5527 1568.35 30.104 1567.92 28.601L1570.31 26.8143ZM1570.94 26.6596L1574.36 28.6376L1575.01 33.31L1570.25 33.542L1570.94 26.6596ZM1575.5 34.4293L1578.73 39.5697C1577.35 39.4671 1576.01 39.0496 1574.82 38.3487L1575.5 34.4293ZM1583.09 34.4293L1583.78 38.3609C1582.58 39.0618 1581.24 39.4793 1579.86 39.5819L1583.09 34.4293ZM1584.24 28.6376L1587.67 26.6596L1588.35 33.542L1583.6 33.31L1584.24 28.6376ZM1588.28 26.8143L1590.67 28.5888C1590.24 30.0918 1589.64 31.5404 1588.89 32.9071L1588.28 26.8143ZM1588.36 26.1102L1591.65 22.3943C1591.59 24.2723 1591.32 26.1374 1590.84 27.9539L1588.36 26.1102ZM1588.13 9.01613L1583.61 9.23592L1584.33 5.13742C1585.85 6.16023 1587.14 7.47918 1588.14 9.01613H1588.13ZM1574.26 5.13742L1574.97 9.23592L1570.45 9.01613C1571.45 7.47918 1572.74 6.16023 1574.26 5.13742ZM1570.45 34.1444L1574.97 33.9246L1574.26 38.0231C1572.74 37.0003 1571.45 35.6813 1570.45 34.1444ZM1584.33 38.0231L1583.62 33.9246L1588.14 34.1444C1587.14 35.6813 1585.85 37.0003 1584.33 38.0231Z" fill="#999CA1"/>
</g>
<path d="M1749.55 39.5356H1732.25C1730.15 37.4318 1728.96 36.237 1726.85 34.1332V9.69245C1728.96 7.58863 1730.15 6.39386 1732.25 4.29004H1749.55C1751.66 6.39386 1752.85 7.58863 1754.95 9.69245V34.1332C1752.85 36.237 1751.66 37.4318 1749.55 39.5356Z" stroke="#999CA1" stroke-width="0.567079" stroke-miterlimit="10" stroke-linecap="round" stroke-linejoin="round"/>
<path d="M1747.89 36.1585H1733.89C1732.18 34.4443 1731.24 33.5093 1729.53 31.7951V12.0295C1731.24 10.3153 1732.18 9.38024 1733.89 7.66602H1747.89C1749.6 9.38024 1750.54 10.3153 1752.25 12.0295V31.7951C1750.57 33.5093 1749.6 34.4703 1747.89 36.1585Z" stroke="#999CA1" stroke-width="0.567079" stroke-miterlimit="10" stroke-linecap="round" stroke-linejoin="round"/>
<path d="M1745.45 31.1466H1736.38C1735.29 30.0557 1734.67 29.4324 1733.55 28.3155V15.5108C1734.64 14.4199 1735.27 13.7965 1736.38 12.6797H1745.45C1746.54 13.7706 1747.16 14.3939 1748.28 15.5108V28.3155C1747.16 29.4324 1746.54 30.0557 1745.45 31.1466Z" stroke="#999CA1" stroke-width="0.567079" stroke-miterlimit="10" stroke-linecap="round" stroke-linejoin="round"/>
<path d="M1732.26 4.31641L1736.36 12.6798" stroke="#999CA1" stroke-width="0.567079" stroke-miterlimit="10" stroke-linecap="round" stroke-linejoin="round"/>
<path d="M1749.55 39.5358L1745.45 31.1465L1740.9 39.5358L1736.36 31.1465L1732.26 39.5358" stroke="#999CA1" stroke-width="0.567079" stroke-miterlimit="10" stroke-linecap="round" stroke-linejoin="round"/>
<path d="M1745.45 31.1467L1754.96 34.1336L1748.25 28.3156L1754.96 21.9262L1748.25 15.5108L1754.96 9.69285L1745.45 12.6798L1749.55 4.31641" stroke="#999CA1" stroke-width="0.567079" stroke-miterlimit="10" stroke-linecap="round" stroke-linejoin="round"/>
<path d="M1736.36 31.1467L1726.85 34.1336L1733.55 28.3156L1726.85 21.9262L1733.55 15.5108L1726.85 9.69285L1736.36 12.6798L1740.9 4.31641L1745.45 12.6798" stroke="#999CA1" stroke-width="0.567079" stroke-miterlimit="10" stroke-linecap="round" stroke-linejoin="round"/>
<path d="M1893.54 71.2213L1887.58 65.2591L1887.33 65.1582H1866.69L1866.45 65.2591L1860.49 71.2213L1860.39 71.4643V92.1026L1860.49 92.3457L1866.45 98.3078L1866.69 98.4087H1887.33L1887.58 98.3078L1893.54 92.3457L1893.64 92.1026V71.4643L1893.54 71.2213ZM1885.63 94.3407L1878.29 92.1301L1885.63 90.3552V94.3407ZM1885.67 89.6352L1877 91.7403L1868.33 89.6352L1867.03 81.7697L1868.33 73.9042L1877 71.7991L1885.67 73.9042L1886.98 81.7697L1885.67 89.6352ZM1875.69 92.1301L1868.36 94.3407V90.3552L1875.69 92.1301ZM1866.58 80.2608L1864.46 73.253L1867.63 73.8951L1866.58 80.2608ZM1866.58 83.2786L1867.63 89.6443L1864.46 90.2864L1866.58 83.2786ZM1868.37 69.1987L1875.71 71.4093L1868.37 73.1842V69.1987ZM1878.31 71.4093L1885.65 69.1987V73.1842L1878.31 71.4093ZM1887.42 83.2786L1889.54 90.2864L1886.37 89.6443L1887.42 83.2786ZM1887.42 80.2608L1886.37 73.8951L1889.54 73.253L1887.42 80.2608ZM1886.31 73.2025V69.5656L1889.34 72.5971L1886.31 73.2025ZM1877 71.0837L1870.36 69.0795H1883.66L1877 71.0837ZM1867.69 73.2025L1864.66 72.5971L1867.69 69.5702V73.2025ZM1866.31 81.7697L1864.31 88.4106V75.1104L1866.31 81.7697ZM1867.69 90.3369V93.9738L1864.66 90.9423L1867.69 90.3369ZM1877 92.4557L1883.64 94.4599H1870.34L1877 92.4557ZM1886.31 90.3369L1889.34 90.9423L1886.31 93.9692V90.3369ZM1887.69 81.7697L1889.69 75.1288V88.429L1887.69 81.7697ZM1890.12 72.3954L1886.37 68.6529L1887.44 66.0846L1892.69 71.3313L1890.12 72.3954ZM1885.74 68.3915H1868.26L1867.19 65.8186H1886.81L1885.74 68.3915ZM1867.63 68.6529L1863.88 72.3954L1861.32 71.3313L1866.56 66.0846L1867.63 68.6529ZM1863.62 73.0283V90.5112L1861.05 91.5752V71.9642L1863.62 73.0283ZM1863.88 91.1441L1867.63 94.8865L1866.56 97.4548L1861.32 92.2081L1863.88 91.1441ZM1868.26 95.1479H1885.74L1886.81 97.7208H1867.19L1868.26 95.1479ZM1886.37 94.8865L1890.12 91.1441L1892.69 92.2081L1887.44 97.4548L1886.37 94.8865ZM1890.38 90.5112V73.0283L1892.95 71.9642V91.5752L1890.38 90.5112Z" fill="#999CA1"/>
<g clip-path="url(#clip10_3902_68512)">
<path d="M1877.05 185.542C1868.32 185.542 1863.71 190.156 1863.71 198.892C1863.71 211.85 1876.72 222.677 1876.85 222.783H1877.26C1877.38 222.664 1890.39 211.838 1890.39 198.892C1890.39 190.156 1885.78 185.542 1877.05 185.542ZM1877.05 212.466L1872.02 207.888L1869.89 199.381L1871.98 193.809L1877.05 191.962L1882.13 193.813L1884.21 199.381L1882.08 207.888L1877.05 212.466ZM1871.46 208.214L1872.73 214.544L1867.7 210.623V204.872L1871.46 208.214ZM1869.57 198.484L1867.84 193.878H1871.3L1869.57 198.484ZM1869.48 200.286L1871.21 207.166L1867.77 204.113L1869.48 200.286ZM1873.4 214.789L1872.22 208.903L1876.54 212.832L1873.4 214.789ZM1880.74 190.124L1881.84 193.042L1877.82 191.591L1880.74 190.124ZM1877.05 191.294L1873.7 189.626L1877.05 186.28L1880.4 189.626L1877.05 191.294ZM1873.36 190.136L1876.28 191.591L1872.26 193.055L1873.36 190.136ZM1884.62 200.294L1886.33 204.113L1882.9 207.166L1884.62 200.294ZM1884.53 198.484L1882.8 193.878H1886.26L1884.53 198.484ZM1881.88 208.903L1880.72 214.789L1877.56 212.832L1881.88 208.903ZM1882.64 208.214L1886.4 204.872V210.623L1881.38 214.544L1882.64 208.214ZM1884.86 199.352L1886.78 194.237L1889.72 198.892L1886.75 203.547L1884.86 199.352ZM1882.57 193.266L1881.3 189.879L1884.99 188.351L1886.31 193.266H1882.57ZM1880.98 189.349L1877.8 186.166C1880.49 186.255 1882.76 186.834 1884.54 187.886L1880.98 189.349ZM1873.12 189.349L1869.56 187.886C1871.34 186.834 1873.61 186.255 1876.3 186.166L1873.12 189.349ZM1872.8 189.879L1871.53 193.266H1867.78L1869.11 188.351L1872.8 189.879ZM1867.32 194.253L1869.24 199.352L1867.35 203.547L1864.38 198.892L1867.32 194.253ZM1866.92 204.036L1865.14 204.57C1864.71 203.079 1864.45 201.548 1864.35 200L1866.92 204.036ZM1867.09 204.598V209.49C1866.38 208.088 1865.79 206.629 1865.31 205.128L1867.09 204.598ZM1872.68 215.286L1871.46 216.216C1870.39 214.878 1869.39 213.476 1868.49 212.017L1872.68 215.286ZM1877.05 213.24L1880.51 215.4L1877.05 221.886L1873.59 215.4L1877.05 213.24ZM1885.61 212.017C1884.71 213.476 1883.73 214.878 1882.66 216.216L1881.43 215.286L1885.61 212.017ZM1887.01 204.598L1888.79 205.132C1888.31 206.632 1887.72 208.089 1887.01 209.49V204.598ZM1887.18 204.011L1889.75 199.976C1889.65 201.523 1889.38 203.055 1888.96 204.545L1887.18 204.011ZM1889.75 197.779L1886.99 193.446L1885.71 188.664C1888.18 190.609 1889.54 193.674 1889.75 197.783V197.779ZM1868.39 188.664L1867.11 193.446L1864.35 197.783C1864.56 193.674 1865.92 190.609 1868.39 188.664ZM1871.83 216.693L1873.09 215.751L1875.94 221.14C1874.48 219.746 1873.11 218.26 1871.83 216.693ZM1878.14 221.14L1880.99 215.751L1882.25 216.693C1880.97 218.26 1879.6 219.746 1878.14 221.14Z" fill="#999CA1"/>
</g>
<g clip-path="url(#clip11_3902_68512)">
<path d="M1661.26 121.394H1660.87C1655.13 125.984 1651.57 133.12 1651.57 140.014C1651.57 146.908 1655.13 154.043 1660.87 158.634H1661.26C1666.99 154.043 1670.56 146.908 1670.56 140.014C1670.56 133.12 1666.99 125.984 1661.26 121.394ZM1661.06 150.739L1658.43 148.546L1656.06 140.014L1658.43 131.482L1661.06 129.288L1663.7 131.482L1666.07 140.014L1663.7 148.546L1661.06 150.739ZM1660.66 128.847L1658.65 130.518L1659.32 127.177L1660.66 128.847ZM1657.88 131.155L1654.61 134.422L1654.67 130.114L1658.68 127.181L1657.88 131.155ZM1655.75 141.117L1657.58 147.68L1654.66 144.764L1655.75 141.117ZM1655.75 138.911L1654.66 135.264L1657.58 132.348L1655.75 138.911ZM1655.42 140.014L1654.22 144.025L1652.22 140.014L1654.22 136.003L1655.42 140.014ZM1657.87 148.873L1658.67 152.843L1654.67 149.91L1654.61 145.601L1657.87 148.873ZM1659.3 152.851L1658.63 149.51L1660.66 151.18L1659.3 152.851ZM1666.39 141.117L1667.49 144.764L1664.57 147.68L1666.39 141.117ZM1666.39 138.911L1664.57 132.348L1667.49 135.264L1666.39 138.911ZM1664.25 131.151L1663.45 127.181L1667.46 130.114L1667.52 134.422L1664.25 131.151ZM1662.83 127.173L1663.51 130.518L1661.47 128.847L1662.83 127.173ZM1663.51 149.51L1662.85 152.851L1661.47 151.18L1663.51 149.51ZM1664.27 148.873L1667.54 145.605L1667.48 149.914L1663.47 152.847L1664.27 148.873ZM1666.72 140.014L1667.92 136.003L1669.91 140.014L1667.91 144.025L1666.72 140.014ZM1668.26 135.313L1669.23 134.815C1669.56 136.055 1669.77 137.322 1669.87 138.601L1668.26 135.313ZM1668.13 134.704L1668.09 131.437C1668.47 132.344 1668.81 133.275 1669.08 134.222L1668.13 134.704ZM1663.51 126.458L1664.59 125.592C1665.42 126.63 1666.17 127.732 1666.83 128.888L1663.51 126.458ZM1661.06 128.398L1659.48 126.417L1661.06 122.451L1662.65 126.409L1661.06 128.398ZM1655.31 128.888C1655.97 127.732 1656.72 126.63 1657.56 125.592L1658.61 126.458L1655.31 128.888ZM1653.99 134.704L1653.05 134.214C1653.32 133.269 1653.66 132.342 1654.04 131.437L1653.99 134.704ZM1653.88 135.333L1652.25 138.601C1652.35 137.322 1652.57 136.055 1652.9 134.815L1653.88 135.333ZM1653.88 144.727L1652.9 145.213C1652.57 143.973 1652.35 142.706 1652.25 141.427L1653.88 144.727ZM1653.99 145.356L1654.04 148.624C1653.66 147.716 1653.32 146.786 1653.05 145.838L1653.99 145.356ZM1658.61 153.57L1657.54 154.435C1656.71 153.397 1655.96 152.295 1655.3 151.139L1658.61 153.57ZM1661.06 151.63L1662.65 153.61L1661.06 157.576L1659.48 153.619L1661.06 151.63ZM1666.82 151.139C1666.16 152.295 1665.41 153.397 1664.57 154.435L1663.51 153.57L1666.82 151.139ZM1668.13 145.344L1669.08 145.814C1668.81 146.759 1668.47 147.686 1668.09 148.591L1668.13 145.344ZM1668.25 144.715L1669.88 141.447C1669.78 142.72 1669.56 143.98 1669.23 145.213L1668.25 144.715ZM1664.16 125.11L1663.11 125.964L1661.81 122.676C1662.66 123.434 1663.45 124.25 1664.18 125.118L1664.16 125.11ZM1660.3 122.66L1658.98 125.956L1657.93 125.102C1658.67 124.239 1659.47 123.428 1660.32 122.676L1660.3 122.66ZM1657.93 154.893L1658.98 154.039L1660.3 157.335C1659.46 156.582 1658.68 155.771 1657.95 154.909L1657.93 154.893ZM1661.8 157.344L1663.11 154.047L1664.16 154.901C1663.44 155.772 1662.65 156.591 1661.81 157.352L1661.8 157.344Z" fill="#999CA1"/>
</g>
<path d="M1756.45 247.42H1725.19L1724.86 247.75V279.01L1725.19 279.34H1756.45L1756.78 279.01V247.75L1756.45 247.42ZM1756.12 269.821H1753.14V256.94H1756.12L1756.12 269.821ZM1725.52 256.94H1728.5V269.821H1725.52V256.94ZM1734.38 251.881L1739.9 254.001L1734.38 256.126V251.881ZM1731.09 263.38L1729.16 268.378V258.383L1731.09 263.38ZM1729.33 256.94H1733.57L1731.44 262.461L1729.33 256.94ZM1731.45 264.3L1733.57 269.821H1729.32L1731.45 264.3ZM1734.39 270.634L1739.91 272.759L1734.38 274.88L1734.39 270.634ZM1734.31 269.895L1731.79 263.38L1734.3 256.865L1740.82 254.357L1747.33 256.865L1749.84 263.38L1747.33 269.895L1740.82 272.403L1734.31 269.895ZM1747.27 256.126L1741.74 254.001L1747.26 251.881L1747.27 256.126ZM1747.27 270.643V274.888L1741.74 272.759L1747.27 270.643ZM1750.21 264.308L1752.33 269.829H1748.07L1750.21 264.308ZM1750.56 263.389L1752.48 258.391V268.378L1750.56 263.389ZM1750.21 262.47L1748.07 256.94H1752.32L1750.21 262.47ZM1740.82 253.649L1735.82 251.727H1745.82L1740.82 253.649ZM1733.72 256.289H1728.55L1725.75 248.37L1733.72 251.652V256.289ZM1733.72 270.489V275.139L1725.75 278.421L1728.55 270.502L1733.72 270.489ZM1740.82 273.129L1745.82 275.051H1735.82L1740.82 273.129ZM1747.92 270.489H1753.09L1755.89 278.408L1747.92 275.139V270.489ZM1747.92 256.289V251.621L1755.89 248.339L1753.09 256.258L1747.92 256.289ZM1747.92 250.913V248.08H1754.78L1747.92 250.913ZM1747.26 251.076H1734.38V248.08H1747.26V251.076ZM1733.72 250.913L1726.85 248.089H1733.72V250.913ZM1727.85 256.28H1725.52V249.681L1727.85 256.28ZM1725.52 270.48H1727.85L1725.52 277.079V270.48ZM1733.72 275.856V278.681H1726.85L1733.72 275.856ZM1734.38 275.693H1747.26V278.681H1734.38V275.693ZM1747.92 275.856L1754.78 278.681H1747.92V275.856ZM1753.79 270.48H1756.12V277.079L1753.79 270.48ZM1756.12 256.28H1753.79L1756.12 249.681V256.28Z" fill="#999CA1"/>
<path d="M1589.56 279.339H1568.36C1566.28 277.255 1565.09 276.064 1563 273.98V252.78C1565.09 250.695 1566.28 249.504 1568.36 247.42H1589.56C1591.65 249.504 1592.84 250.695 1594.92 252.78V273.98C1592.81 276.064 1591.65 277.225 1589.56 279.339Z" stroke="#999CA1" stroke-width="0.744743" stroke-miterlimit="10" stroke-linecap="round" stroke-linejoin="round"/>
<path d="M1586.65 274.963H1571.25C1569.73 273.444 1568.87 272.581 1567.35 271.062V255.668C1568.87 254.15 1569.73 253.286 1571.25 251.768H1586.65C1588.16 253.286 1589.03 254.15 1590.55 255.668V271.062C1589.03 272.581 1588.16 273.444 1586.65 274.963Z" stroke="#999CA1" stroke-width="0.744743" stroke-miterlimit="10" stroke-linecap="round" stroke-linejoin="round"/>
<path d="M1568.36 247.42L1571.25 251.797" stroke="#999CA1" stroke-width="0.744743" stroke-miterlimit="10" stroke-linecap="round" stroke-linejoin="round"/>
<path d="M1563 252.779L1567.38 255.668" stroke="#999CA1" stroke-width="0.744743" stroke-miterlimit="10" stroke-linecap="round" stroke-linejoin="round"/>
<path d="M1563 273.98L1567.38 271.062" stroke="#999CA1" stroke-width="0.744743" stroke-miterlimit="10" stroke-linecap="round" stroke-linejoin="round"/>
<path d="M1568.36 279.34L1571.25 274.963" stroke="#999CA1" stroke-width="0.744743" stroke-miterlimit="10" stroke-linecap="round" stroke-linejoin="round"/>
<path d="M1589.56 279.34L1586.64 274.963" stroke="#999CA1" stroke-width="0.744743" stroke-miterlimit="10" stroke-linecap="round" stroke-linejoin="round"/>
<path d="M1594.92 273.98L1590.54 271.062" stroke="#999CA1" stroke-width="0.744743" stroke-miterlimit="10" stroke-linecap="round" stroke-linejoin="round"/>
<path d="M1594.92 252.779L1590.54 255.668" stroke="#999CA1" stroke-width="0.744743" stroke-miterlimit="10" stroke-linecap="round" stroke-linejoin="round"/>
<path d="M1589.56 247.42L1586.64 251.797" stroke="#999CA1" stroke-width="0.744743" stroke-miterlimit="10" stroke-linecap="round" stroke-linejoin="round"/>
</g>
<defs>
<clipPath id="clip0_3902_68512">
<rect width="37.2406" height="37.2406" fill="white" transform="translate(708.617 60.2031)"/>
</clipPath>
<clipPath id="clip1_3902_68512">
<rect width="37.2406" height="37.2406" fill="white" transform="translate(851.725)"/>
</clipPath>
<clipPath id="clip2_3902_68512">
<rect width="37.2406" height="37.2406" fill="white" transform="translate(1149.78 182.582)"/>
</clipPath>
<clipPath id="clip3_3902_68512">
<rect width="37.2406" height="37.2406" fill="white" transform="translate(933.641 118.432)"/>
</clipPath>
<clipPath id="clip4_3902_68512">
<rect width="37.2406" height="37.2406" fill="white" transform="translate(0 60.2031)"/>
</clipPath>
<clipPath id="clip5_3902_68512">
<rect width="37.2406" height="37.2406" fill="white" transform="translate(143.107)"/>
</clipPath>
<clipPath id="clip6_3902_68512">
<rect width="37.2406" height="37.2406" fill="white" transform="translate(441.16 182.582)"/>
</clipPath>
<clipPath id="clip7_3902_68512">
<rect width="37.2406" height="37.2406" fill="white" transform="translate(225.023 118.432)"/>
</clipPath>
<clipPath id="clip8_3902_68512">
<rect width="37.2406" height="37.2406" fill="white" transform="translate(1417.23 63.1631)"/>
</clipPath>
<clipPath id="clip9_3902_68512">
<rect width="37.2406" height="37.2406" fill="white" transform="translate(1560.34 2.95996)"/>
</clipPath>
<clipPath id="clip10_3902_68512">
<rect width="37.2406" height="37.2406" fill="white" transform="translate(1858.39 185.542)"/>
</clipPath>
<clipPath id="clip11_3902_68512">
<rect width="37.2406" height="37.2406" fill="white" transform="translate(1642.26 121.394)"/>
</clipPath>
</defs>
</svg>
